<?xml version="1.0" encoding="utf-8"?>
<!-- Generator: Adobe Illustrator 20.0.0, SVG Export Plug-In . SVG Version: 6.00 Build 0)  -->
<svg version="1.1" id="레이어_1" xmlns="http://www.w3.org/2000/svg" xmlns:xlink="http://www.w3.org/1999/xlink" x="0px"
	 y="0px" viewBox="0 0 345.4 76.1" style="enable-background:new 0 0 345.4 76.1;" xml:space="preserve">
<style type="text/css">
	.st0{fill:#333333;}
</style>
<path class="st0" d="M176.8,53.7l12.2,4c-1.6,2.5-3.6,4.8-5.9,6.8c-2.2,2-4.6,3.7-7.2,5.2c-2.6,1.5-5.3,2.6-8.3,3.3
	c-2.9,0.8-5.9,1.2-9.1,1.2c-10.1,0-18.6-3.7-25.8-10.8s-10.8-15.6-10.8-25.8c0-10.1,3.6-18.6,10.8-25.8c7-7.2,15.6-10.8,25.8-10.8
	c5,0,9.8,0.9,14.3,2.8c4.4,1.9,8.3,4.6,11.7,8l-8.8,8.6c-4.8-4.8-10.4-7.1-17.2-7.1c-6.7,0-12.4,2.3-17.3,7.1
	c-4.8,4.8-7,10.5-7,17.2s2.3,12.5,7,17.3c4.8,4.8,10.6,7,17.3,7c3.7,0,7-0.7,10.1-2.1C171.6,58.3,174.4,56.3,176.8,53.7z
	 M158.4,31.5h30.5l-12.2,12.2h-18.4L158.4,31.5L158.4,31.5z M238.1,4v12.2h-36.6L189.4,4H238.1L238.1,4z M211.3,31.5h26.8v12.2
	h-28.4l-7.3-12.2H211.3L211.3,31.5z M201.5,58.9h36.6v12.2h-48.7L201.5,58.9L201.5,58.9z M43.6,49h-29L6.9,70.2H0l25.8-69h6.5
	l25.8,69h-6.9L43.6,49z M16.6,43.4h25.1L29.4,9.7h-0.6C28.8,9.7,16.6,43.4,16.6,43.4z M69.7,70.2h-6.6v-69h24.7
	C101.4,1.1,110,9,110,21.3c0,9.8-5.6,17.1-14.8,19.5l16.7,29.3h-7.7L88.4,41.9H69.7V70.2z M69.7,36h17.7c10,0,15.9-5.3,15.9-14.5
	c0-9-6.1-14.5-16.2-14.5H69.7V36z"/>
<path class="st0" d="M276.8,53.6H252l-5.8,17.3H234l24-67.6h13.6l24,67.6h-13L276.8,53.6L276.8,53.6z M254.8,44H274l-9.2-27.9H264
	L254.8,44L254.8,44z"/>
<path class="st0" d="M304.9,70.9h-12.1V3.3h27.5c14.2,0,23.1,8.2,23.1,21.1c0,8.9-4.7,16.4-12.8,19.3l14.8,27.2h-13.8l-13.3-25.4
	h-13.4L304.9,70.9L304.9,70.9z M304.9,35.9h14c7.7,0,12.1-4.1,12.1-11.3c0-7-4.7-11.3-12.4-11.3h-13.7V35.9z"/>
</svg>
