<?xml version="1.0" encoding="utf-8"?>
<!-- Generator: Adobe Illustrator 20.0.0, SVG Export Plug-In . SVG Version: 6.00 Build 0)  -->
<svg version="1.1" id="레이어_1" xmlns="http://www.w3.org/2000/svg" xmlns:xlink="http://www.w3.org/1999/xlink" x="0px"
	 y="0px" viewBox="0 0 212.2 34.3" style="enable-background:new 0 0 212.2 34.3;" xml:space="preserve">
<style type="text/css">
	.st0{enable-background:new    ;}
	.st1{fill:#333333;}
</style>
<g class="st0">
	<path class="st1" d="M24,3.1v5.1h-8.6v23.7H9.3V8.2H0.6V3.1H24z"/>
	<path class="st1" d="M41.8,29.3c-1.8,2.2-4.5,3.3-8.2,3.3c-3.7,0-6.4-1.1-8.2-3.3s-2.7-4.9-2.7-8c0-3.1,0.9-5.7,2.7-8
		s4.5-3.4,8.2-3.4c3.7,0,6.4,1.1,8.2,3.4s2.7,4.9,2.7,8C44.5,24.4,43.6,27.1,41.8,29.3z M37.4,26.2c0.9-1.2,1.3-2.8,1.3-4.9
		c0-2.1-0.4-3.8-1.3-4.9c-0.9-1.2-2.1-1.7-3.8-1.7c-1.6,0-2.9,0.6-3.8,1.7c-0.9,1.2-1.3,2.8-1.3,4.9c0,2.1,0.4,3.8,1.3,4.9
		s2.1,1.7,3.8,1.7C35.3,27.9,36.5,27.4,37.4,26.2z"/>
	<path class="st1" d="M48.5,3.2h5.5v15.5l7-8h6.9l-7.6,7.9l7.9,13.3h-6.8l-5.2-9.1l-2.3,2.4v6.7h-5.5V3.2z"/>
	<path class="st1" d="M84.6,11c1.5,0.7,2.7,1.7,3.7,3.1c0.9,1.3,1.4,2.7,1.7,4.4c0.1,1,0.2,2.4,0.2,4.2H74.7
		c0.1,2.1,0.8,3.6,2.2,4.5c0.9,0.5,1.9,0.8,3.1,0.8c1.3,0,2.3-0.3,3.1-1c0.4-0.4,0.8-0.8,1.1-1.5h5.7c-0.1,1.3-0.8,2.5-2.1,3.8
		c-1.9,2.1-4.6,3.1-8,3.1c-2.8,0-5.3-0.9-7.5-2.6c-2.2-1.7-3.2-4.6-3.2-8.5c0-3.7,1-6.5,2.9-8.5s4.5-3,7.6-3
		C81.5,10,83.1,10.4,84.6,11z M76.3,15.8c-0.8,0.8-1.3,1.9-1.5,3.3h9.6c-0.1-1.5-0.6-2.6-1.5-3.4c-0.9-0.8-2-1.1-3.3-1.1
		C78.2,14.6,77.1,15,76.3,15.8z"/>
	<path class="st1" d="M110.2,11.8c1.4,1.2,2.1,3.1,2.1,5.7v14.3h-5.7V18.9c0-1.1-0.1-2-0.4-2.6c-0.5-1.1-1.6-1.6-3.1-1.6
		c-1.9,0-3.2,0.8-3.9,2.4c-0.4,0.8-0.5,1.9-0.5,3.2v11.5H93V10.6h5.4v3.1c0.7-1.1,1.4-1.9,2-2.4c1.1-0.9,2.6-1.3,4.3-1.3
		C107,10.1,108.8,10.7,110.2,11.8z"/>
	<path class="st1" d="M133.3,23c0.2,1.3,0.6,2.3,1.1,2.9c1,1.2,2.7,1.8,5.1,1.8c1.4,0,2.6-0.2,3.5-0.5c1.7-0.6,2.6-1.7,2.6-3.3
		c0-1-0.4-1.7-1.3-2.2c-0.8-0.5-2.2-1-4-1.3l-3.1-0.7c-3.1-0.7-5.2-1.4-6.3-2.2c-1.9-1.3-2.9-3.4-2.9-6.2c0-2.6,0.9-4.7,2.8-6.4
		c1.9-1.7,4.7-2.6,8.4-2.6c3.1,0,5.7,0.8,7.9,2.4c2.2,1.6,3.3,3.9,3.4,7h-5.8c-0.1-1.7-0.9-3-2.3-3.7c-1-0.5-2.2-0.7-3.6-0.7
		c-1.6,0-2.9,0.3-3.8,0.9c-0.9,0.6-1.4,1.5-1.4,2.6c0,1,0.5,1.8,1.4,2.3c0.6,0.3,1.9,0.7,3.8,1.2l5.1,1.2c2.2,0.5,3.9,1.2,5,2.1
		c1.7,1.4,2.6,3.3,2.6,5.9c0,2.6-1,4.8-3.1,6.6c-2,1.7-4.9,2.6-8.6,2.6c-3.8,0-6.8-0.9-8.9-2.6c-2.2-1.7-3.3-4.1-3.3-7.1H133.3z"/>
	<path class="st1" d="M163.7,18.9c1-0.1,1.8-0.3,2.2-0.5c0.8-0.3,1.2-0.9,1.2-1.6c0-0.9-0.3-1.5-0.9-1.8c-0.6-0.3-1.5-0.5-2.7-0.5
		c-1.3,0-2.3,0.3-2.8,1c-0.4,0.5-0.7,1.1-0.8,2h-5.4c0.1-1.9,0.6-3.4,1.6-4.6c1.5-1.9,4-2.8,7.6-2.8c2.3,0,4.4,0.5,6.2,1.4
		s2.7,2.7,2.7,5.2v9.8c0,0.7,0,1.5,0,2.5c0,0.7,0.1,1.2,0.3,1.5c0.2,0.3,0.5,0.5,0.8,0.6v0.8h-6.1c-0.2-0.4-0.3-0.8-0.4-1.2
		c-0.1-0.4-0.1-0.8-0.2-1.3c-0.8,0.8-1.7,1.5-2.7,2.1c-1.2,0.7-2.6,1-4.1,1c-1.9,0-3.5-0.5-4.8-1.7c-1.3-1.1-1.9-2.7-1.9-4.7
		c0-2.6,1-4.5,3-5.7c1.1-0.6,2.8-1.1,4.9-1.4L163.7,18.9z M167.1,21.5c-0.4,0.2-0.7,0.4-1.1,0.5c-0.4,0.1-0.9,0.3-1.5,0.4l-1.3,0.2
		c-1.2,0.2-2,0.5-2.6,0.8c-0.9,0.5-1.3,1.3-1.3,2.4c0,1,0.3,1.6,0.8,2.1s1.2,0.6,2,0.6c1.2,0,2.3-0.4,3.4-1.1s1.6-2,1.6-3.8V21.5z"
		/>
	<path class="st1" d="M183.2,31.9h-5.6V3.1h5.6V31.9z"/>
	<path class="st1" d="M202.5,11c1.5,0.7,2.7,1.7,3.7,3.1c0.9,1.3,1.4,2.7,1.7,4.4c0.1,1,0.2,2.4,0.2,4.2h-15.5
		c0.1,2.1,0.8,3.6,2.2,4.5c0.8,0.5,1.9,0.8,3.1,0.8c1.3,0,2.3-0.3,3.1-1c0.4-0.4,0.8-0.8,1.1-1.5h5.7c-0.2,1.3-0.8,2.5-2.1,3.8
		c-1.9,2.1-4.6,3.1-8,3.1c-2.8,0-5.3-0.9-7.5-2.6c-2.2-1.7-3.2-4.6-3.2-8.5c0-3.7,1-6.5,2.9-8.5s4.5-3,7.6-3
		C199.3,10,201,10.4,202.5,11z M194.1,15.8c-0.8,0.8-1.3,1.9-1.5,3.3h9.6c-0.1-1.5-0.6-2.6-1.5-3.4c-0.9-0.8-2-1.1-3.3-1.1
		C196,14.6,194.9,15,194.1,15.8z"/>
</g>
</svg>
