<?xml version="1.0" encoding="utf-8"?>
<!-- Generator: Adobe Illustrator 20.0.0, SVG Export Plug-In . SVG Version: 6.00 Build 0)  -->
<svg version="1.1" id="레이어_1" xmlns="http://www.w3.org/2000/svg" xmlns:xlink="http://www.w3.org/1999/xlink" x="0px"
	 y="0px" viewBox="0 0 183.8 43" style="enable-background:new 0 0 183.8 43;" xml:space="preserve">
<style type="text/css">
	.st0{fill:#333333;}
</style>
<g>
	<path class="st0" d="M21.5,3.8c1.1,0.5,2,1.1,2.7,2c0.6,0.7,1.1,1.5,1.4,2.4c0.4,0.9,0.5,1.9,0.5,3c0,1.4-0.3,2.7-1,4
		c-0.7,1.3-1.8,2.3-3.4,2.8c1.3,0.5,2.3,1.3,2.8,2.3c0.6,1,0.8,2.5,0.8,4.5v1.9c0,1.3,0.1,2.2,0.2,2.7c0.2,0.7,0.5,1.3,1.1,1.6v0.7
		H20c-0.2-0.6-0.3-1.2-0.4-1.5c-0.2-0.8-0.2-1.6-0.3-2.5l0-2.7c0-1.8-0.3-3.1-1-3.7c-0.6-0.6-1.8-0.9-3.4-0.9H9.1v11.3H3.2V3.1H17
		C18.9,3.1,20.4,3.4,21.5,3.8z M9.1,8.1v7.7h6.5c1.3,0,2.3-0.2,2.9-0.5c1.1-0.5,1.7-1.6,1.7-3.2c0-1.7-0.6-2.9-1.7-3.5
		c-0.6-0.3-1.5-0.5-2.8-0.5H9.1z"/>
	<path class="st0" d="M49.2,29.3c-1.8,2.2-4.5,3.3-8.2,3.3c-3.7,0-6.4-1.1-8.2-3.3c-1.8-2.2-2.7-4.9-2.7-8c0-3.1,0.9-5.7,2.7-8
		c1.8-2.3,4.5-3.4,8.2-3.4c3.7,0,6.4,1.1,8.2,3.4c1.8,2.3,2.7,4.9,2.7,8C51.9,24.4,51,27.1,49.2,29.3z M44.8,26.2
		c0.9-1.2,1.3-2.8,1.3-4.9c0-2.1-0.4-3.8-1.3-4.9c-0.9-1.2-2.1-1.7-3.8-1.7c-1.6,0-2.9,0.6-3.8,1.7S36,19.1,36,21.3
		c0,2.1,0.4,3.8,1.3,4.9s2.1,1.7,3.8,1.7C42.7,27.9,43.9,27.4,44.8,26.2z"/>
	<path class="st0" d="M64.4,18.9c1-0.1,1.8-0.3,2.2-0.5c0.8-0.3,1.2-0.9,1.2-1.6c0-0.9-0.3-1.5-0.9-1.8c-0.6-0.3-1.5-0.5-2.7-0.5
		c-1.3,0-2.3,0.3-2.8,1c-0.4,0.5-0.7,1.1-0.8,2h-5.4c0.1-1.9,0.6-3.4,1.6-4.6c1.5-1.9,4-2.8,7.6-2.8c2.3,0,4.4,0.5,6.2,1.4
		c1.8,0.9,2.7,2.7,2.7,5.2v9.8c0,0.7,0,1.5,0,2.5c0,0.7,0.1,1.2,0.3,1.5c0.2,0.3,0.5,0.5,0.8,0.6v0.8h-6.1c-0.2-0.4-0.3-0.8-0.4-1.2
		c-0.1-0.4-0.1-0.8-0.2-1.3c-0.8,0.8-1.7,1.5-2.7,2.1c-1.2,0.7-2.6,1-4.1,1c-1.9,0-3.5-0.6-4.8-1.7c-1.3-1.1-1.9-2.7-1.9-4.7
		c0-2.6,1-4.5,3-5.7c1.1-0.6,2.8-1.1,4.9-1.4L64.4,18.9z M67.8,21.5c-0.4,0.2-0.7,0.4-1.1,0.5s-0.9,0.3-1.5,0.4l-1.3,0.2
		c-1.2,0.2-2,0.5-2.6,0.8c-0.9,0.5-1.3,1.3-1.3,2.4c0,1,0.3,1.6,0.8,2.1c0.5,0.4,1.2,0.6,2,0.6c1.2,0,2.3-0.4,3.4-1.1s1.6-2,1.6-3.8
		V21.5z"/>
	<path class="st0" d="M89.5,10.9c1,0.6,1.8,1.4,2.4,2.4V3.1h5.6v28.8h-5.4v-2.9c-0.8,1.3-1.7,2.2-2.7,2.8s-2.3,0.9-3.8,0.9
		c-2.5,0-4.6-1-6.3-3s-2.5-4.6-2.5-7.7c0-3.6,0.8-6.5,2.5-8.6c1.7-2.1,3.9-3.1,6.7-3.1C87.3,10.1,88.5,10.4,89.5,10.9z M90.8,26.1
		c0.8-1.2,1.2-2.7,1.2-4.6c0-2.6-0.7-4.5-2-5.6c-0.8-0.7-1.7-1-2.8-1c-1.6,0-2.8,0.6-3.6,1.8s-1.1,2.8-1.1,4.6c0,2,0.4,3.5,1.2,4.7
		c0.8,1.2,1.9,1.8,3.5,1.8C88.8,27.9,90,27.3,90.8,26.1z"/>
	<path class="st0" d="M129.2,10.7c0.9,0.4,1.7,1,2.5,1.9c0.6,0.7,1,1.7,1.2,2.7c0.1,0.7,0.2,1.8,0.2,3.1l0,13.4h-5.7V18.3
		c0-0.8-0.1-1.5-0.4-2c-0.5-1-1.4-1.5-2.7-1.5c-1.5,0-2.6,0.6-3.2,1.9c-0.3,0.7-0.4,1.5-0.4,2.4v12.7h-5.6V19.2
		c0-1.3-0.1-2.2-0.4-2.8c-0.5-1-1.4-1.5-2.8-1.5c-1.6,0-2.7,0.5-3.2,1.5c-0.3,0.6-0.4,1.5-0.4,2.6v12.8h-5.6V10.6h5.4v3.1
		c0.7-1.1,1.3-1.9,2-2.4c1.1-0.8,2.5-1.2,4.2-1.2c1.6,0,2.9,0.4,3.9,1.1c0.8,0.7,1.4,1.5,1.8,2.6c0.7-1.2,1.6-2.2,2.7-2.8
		c1.1-0.6,2.4-0.9,3.8-0.9C127.3,10.1,128.2,10.3,129.2,10.7z"/>
	<path class="st0" d="M146.6,18.9c1-0.1,1.8-0.3,2.2-0.5c0.8-0.3,1.2-0.9,1.2-1.6c0-0.9-0.3-1.5-0.9-1.8c-0.6-0.3-1.5-0.5-2.7-0.5
		c-1.3,0-2.3,0.3-2.8,1c-0.4,0.5-0.7,1.1-0.8,2h-5.4c0.1-1.9,0.6-3.4,1.6-4.6c1.5-1.9,4-2.8,7.6-2.8c2.3,0,4.4,0.5,6.2,1.4
		c1.8,0.9,2.7,2.7,2.7,5.2v9.8c0,0.7,0,1.5,0,2.5c0,0.7,0.1,1.2,0.3,1.5c0.2,0.3,0.5,0.5,0.8,0.6v0.8h-6.1c-0.2-0.4-0.3-0.8-0.4-1.2
		c-0.1-0.4-0.1-0.8-0.2-1.3c-0.8,0.8-1.7,1.5-2.7,2.1c-1.2,0.7-2.6,1-4.1,1c-1.9,0-3.5-0.6-4.8-1.7s-1.9-2.7-1.9-4.7
		c0-2.6,1-4.5,3-5.7c1.1-0.6,2.8-1.1,4.9-1.4L146.6,18.9z M150,21.5c-0.4,0.2-0.7,0.4-1.1,0.5c-0.4,0.1-0.9,0.3-1.5,0.4l-1.3,0.2
		c-1.2,0.2-2,0.5-2.6,0.8c-0.9,0.5-1.3,1.3-1.3,2.4c0,1,0.3,1.6,0.8,2.1c0.5,0.4,1.2,0.6,2,0.6c1.2,0,2.3-0.4,3.4-1.1s1.6-2,1.6-3.8
		V21.5z"/>
	<path class="st0" d="M178.3,12.9c1.7,1.8,2.6,4.5,2.6,8.1c0,3.8-0.8,6.6-2.5,8.6c-1.7,2-3.9,2.9-6.6,2.9c-1.7,0-3.1-0.4-4.2-1.3
		c-0.6-0.5-1.2-1.2-1.8-2.1v11.1h-5.5V10.6h5.3v3.1c0.6-0.9,1.2-1.7,1.9-2.2c1.2-1,2.7-1.4,4.4-1.4C174.5,10.1,176.6,11,178.3,12.9z
		 M174,16.9c-0.8-1.3-2-1.9-3.7-1.9c-2,0-3.4,1-4.2,2.9c-0.4,1-0.6,2.3-0.6,3.9c0,2.5,0.7,4.2,2,5.2c0.8,0.6,1.7,0.9,2.8,0.9
		c1.6,0,2.8-0.6,3.6-1.8c0.8-1.2,1.2-2.8,1.2-4.8C175.2,19.6,174.8,18.1,174,16.9z"/>
</g>
</svg>
