<?xml version="1.0" encoding="utf-8"?>
<!-- Generator: Adobe Illustrator 20.0.0, SVG Export Plug-In . SVG Version: 6.00 Build 0)  -->
<svg version="1.1" id="레이어_1" xmlns="http://www.w3.org/2000/svg" xmlns:xlink="http://www.w3.org/1999/xlink" x="0px"
	 y="0px" viewBox="0 0 82.2 25.2" style="enable-background:new 0 0 82.2 25.2;" xml:space="preserve">
<style type="text/css">
	.st0{fill:#2A2E2F;}
	.st1{fill:none;stroke:#979C9D;stroke-miterlimit:10;}
</style>
<g>
	<path class="st0" d="M17.5,11.4h5.8c1.1,0,2.1,0.3,2.8,1c0.7,0.6,1.1,1.6,1.1,2.7c0,1-0.3,1.9-0.9,2.6c-0.6,0.7-1.6,1.1-2.9,1.1h-4
		v5.5h-1.7V11.4z M24.2,13.2c-0.4-0.2-0.9-0.3-1.6-0.3h-3.5v4.5h3.5c0.8,0,1.4-0.2,1.9-0.5c0.5-0.3,0.7-0.9,0.7-1.8
		C25.3,14.2,24.9,13.5,24.2,13.2z"/>
	<path class="st0" d="M29.1,11.4h1.6v12.9h-1.6V11.4z"/>
	<path class="st0" d="M38.1,18.6c0.4,0,0.6-0.2,0.7-0.5c0.1-0.1,0.1-0.3,0.1-0.6c0-0.5-0.2-0.9-0.6-1.2C38,16.1,37.5,16,36.7,16
		c-0.8,0-1.4,0.2-1.8,0.7c-0.2,0.2-0.3,0.6-0.4,1.1h-1.5c0-1.2,0.4-2,1.1-2.4c0.7-0.5,1.6-0.7,2.5-0.7c1.1,0,2,0.2,2.7,0.6
		c0.7,0.4,1,1.1,1,2v5.4c0,0.2,0,0.3,0.1,0.4s0.2,0.1,0.4,0.1c0.1,0,0.1,0,0.2,0c0.1,0,0.2,0,0.3,0v1.2c-0.2,0.1-0.4,0.1-0.6,0.1
		s-0.3,0-0.5,0c-0.5,0-0.9-0.2-1.2-0.6c-0.1-0.2-0.2-0.5-0.3-0.9c-0.3,0.4-0.8,0.8-1.4,1.1s-1.3,0.5-2,0.5c-0.9,0-1.6-0.3-2.1-0.8
		c-0.6-0.5-0.8-1.2-0.8-2c0-0.9,0.3-1.5,0.8-2c0.5-0.5,1.3-0.8,2.1-0.9L38.1,18.6z M34.8,22.9c0.3,0.3,0.7,0.4,1.2,0.4
		c0.6,0,1.1-0.1,1.6-0.4c0.9-0.4,1.3-1.1,1.3-2.1v-1.3c-0.2,0.1-0.4,0.2-0.7,0.3c-0.3,0.1-0.6,0.1-0.9,0.2l-1,0.1
		c-0.6,0.1-1,0.2-1.3,0.4c-0.5,0.3-0.7,0.7-0.7,1.3C34.3,22.3,34.5,22.6,34.8,22.9z"/>
	<path class="st0" d="M43.4,12.3H45v2.6h1.5v1.3H45v6.1c0,0.3,0.1,0.5,0.3,0.7c0.1,0.1,0.3,0.1,0.6,0.1c0.1,0,0.2,0,0.2,0
		s0.2,0,0.3,0v1.3c-0.2,0.1-0.4,0.1-0.6,0.1s-0.4,0-0.6,0c-0.7,0-1.2-0.2-1.5-0.6c-0.3-0.4-0.4-0.9-0.4-1.5v-6.2h-1.3v-1.3h1.3V12.3
		z"/>
	<path class="st0" d="M48.8,12c0.4-0.5,1.1-0.8,2.1-0.8c0.1,0,0.2,0,0.3,0s0.2,0,0.4,0v1.4c-0.2,0-0.3,0-0.4,0s-0.1,0-0.2,0
		c-0.5,0-0.8,0.1-0.9,0.4s-0.1,0.9-0.1,1.9h1.6v1.2h-1.6v8.1h-1.6v-8.1h-1.3V15h1.3v-1.5C48.5,12.8,48.6,12.3,48.8,12z"/>
	<path class="st0" d="M59.9,15.8c0.8,0.8,1.2,2,1.2,3.6c0,1.5-0.4,2.8-1.1,3.8s-1.9,1.5-3.4,1.5c-1.3,0-2.3-0.4-3.1-1.3
		c-0.8-0.9-1.1-2.1-1.1-3.5c0-1.6,0.4-2.8,1.2-3.8s1.9-1.4,3.2-1.4C58.1,14.6,59.1,15,59.9,15.8z M58.9,22.1
		c0.4-0.8,0.6-1.7,0.6-2.6c0-0.9-0.1-1.6-0.4-2.1c-0.4-0.9-1.2-1.3-2.3-1.3c-1,0-1.7,0.4-2.1,1.1s-0.7,1.6-0.7,2.7
		c0,1,0.2,1.8,0.7,2.5s1.1,1,2.1,1C57.8,23.3,58.5,22.9,58.9,22.1z"/>
	<path class="st0" d="M63.1,14.9h1.5v1.6c0.1-0.3,0.4-0.7,0.9-1.2c0.5-0.5,1-0.7,1.7-0.7c0,0,0.1,0,0.1,0s0.2,0,0.4,0v1.7
		c-0.1,0-0.2,0-0.3,0c-0.1,0-0.2,0-0.3,0c-0.8,0-1.4,0.3-1.8,0.8c-0.4,0.5-0.6,1.1-0.6,1.8v5.4h-1.6V14.9z"/>
	<path class="st0" d="M69.1,14.9h1.6v1.3c0.4-0.5,0.7-0.8,1-1c0.5-0.4,1.1-0.5,1.8-0.5c0.8,0,1.4,0.2,1.8,0.6
		c0.3,0.2,0.5,0.5,0.7,0.9c0.4-0.5,0.8-0.9,1.2-1.1c0.5-0.2,1-0.4,1.6-0.4c1.3,0,2.1,0.5,2.6,1.4c0.2,0.5,0.4,1.2,0.4,2v6.3h-1.6
		v-6.5c0-0.6-0.2-1.1-0.5-1.3s-0.7-0.4-1.1-0.4c-0.6,0-1.2,0.2-1.6,0.6c-0.4,0.4-0.7,1.1-0.7,2.1v5.5h-1.6v-6.1
		c0-0.6-0.1-1.1-0.2-1.4c-0.2-0.4-0.7-0.7-1.3-0.7c-0.6,0-1.1,0.2-1.6,0.7c-0.5,0.5-0.7,1.3-0.7,2.5v5h-1.6V14.9z"/>
</g>
<line class="st1" x1="13.7" y1="1.5" x2="1.8" y2="22.9"/>
</svg>
