<?xml version="1.0" encoding="utf-8"?>
<!-- Generator: Adobe Illustrator 20.0.0, SVG Export Plug-In . SVG Version: 6.00 Build 0)  -->
<svg version="1.1" id="레이어_1" xmlns="http://www.w3.org/2000/svg" xmlns:xlink="http://www.w3.org/1999/xlink" x="0px"
	 y="0px" viewBox="0 0 301.2 37.9" style="enable-background:new 0 0 301.2 37.9;" xml:space="preserve">
<style type="text/css">
	.st0{fill:url(#SVGID_1_);}
	.st1{fill:url(#SVGID_2_);}
	.st2{fill:url(#SVGID_3_);}
	.st3{fill:url(#SVGID_4_);}
	.st4{fill:url(#SVGID_5_);}
	.st5{fill:url(#SVGID_6_);}
	.st6{fill:url(#SVGID_7_);}
	.st7{fill:url(#SVGID_8_);}
</style>
<g>
	<linearGradient id="SVGID_1_" gradientUnits="userSpaceOnUse" x1="-45.8154" y1="19.3616" x2="341.3138" y2="19.3616">
		<stop  offset="0" style="stop-color:#00D1FF"/>
		<stop  offset="6.264919e-02" style="stop-color:#00DDFD"/>
		<stop  offset="0.1922" style="stop-color:#00F0F9"/>
		<stop  offset="0.3255" style="stop-color:#00FBF7"/>
		<stop  offset="0.4677" style="stop-color:#00FFF6"/>
		<stop  offset="1" style="stop-color:#67FFDD"/>
	</linearGradient>
	<path class="st0" d="M1.4,26.2c2-1.2,3.7-2.2,5.1-3.2c1.4-0.9,2.6-1.8,3.5-2.5c0.9-0.8,1.7-1.5,2.2-2.1c0.5-0.7,0.9-1.3,1.2-2
		c0.3-0.7,0.4-1.4,0.5-2.1c0.1-0.7,0.1-1.5,0.1-2.5V8.3H2.1V5.1h15.6v6.7c0,1.2,0,2.2-0.1,3.1c-0.1,0.9-0.2,1.8-0.5,2.6
		c-0.3,0.8-0.7,1.6-1.3,2.4c-0.6,0.8-1.4,1.6-2.5,2.5c-1.1,0.9-2.4,1.9-4,3c-1.6,1.1-3.6,2.3-5.9,3.7L1.4,26.2z M33.5,18.1h-5.4
		v18.8h-3.8v-35h3.8v13h5.4V18.1z"/>
	<linearGradient id="SVGID_2_" gradientUnits="userSpaceOnUse" x1="-45.8154" y1="19.8557" x2="341.3138" y2="19.8557">
		<stop  offset="0" style="stop-color:#00D1FF"/>
		<stop  offset="6.264919e-02" style="stop-color:#00DDFD"/>
		<stop  offset="0.1922" style="stop-color:#00F0F9"/>
		<stop  offset="0.3255" style="stop-color:#00FBF7"/>
		<stop  offset="0.4677" style="stop-color:#00FFF6"/>
		<stop  offset="1" style="stop-color:#67FFDD"/>
	</linearGradient>
	<path class="st1" d="M45.1,13.9c-0.1,0.3-0.4,0.8-0.9,1.4c-0.5,0.6-1.1,1.1-1.6,1.7c-0.8,0.7-1.7,1.5-2.7,2.4
		c-1,0.9-2.1,1.7-3.1,2.5l-2.2-2.7c1.2-0.9,2.4-1.9,3.5-2.8c1.1-0.9,2-1.7,2.6-2.4c0.5-0.5,0.9-0.9,1.2-1.4s0.6-0.9,0.8-1.4
		c0.2-0.5,0.3-1,0.4-1.5C43,9.3,43,8.7,43,8V3.4h3.8v4.4c0,0.6,0,1.1,0.1,1.6c0,0.5,0.1,0.9,0.2,1.3c0.1,0.4,0.3,0.8,0.6,1.2
		c0.3,0.4,0.6,0.8,1.1,1.2c0.9,0.8,1.9,1.6,2.9,2.5c1.1,0.9,2.1,1.7,3.3,2.5l-2.2,2.6c-1-0.7-1.9-1.5-2.8-2.2
		c-0.9-0.7-1.8-1.5-2.7-2.3c-0.6-0.5-1.1-0.9-1.4-1.3C45.5,14.5,45.2,14.2,45.1,13.9L45.1,13.9z M41.5,29.7c0-0.9,0.2-1.8,0.7-2.6
		c0.5-0.8,1.2-1.5,2.1-2.1c0.9-0.6,2-1.1,3.3-1.4c1.3-0.4,2.8-0.5,4.4-0.5c1.6,0,3.1,0.2,4.4,0.5c1.3,0.4,2.4,0.8,3.3,1.4
		c0.9,0.6,1.6,1.3,2.1,2.1c0.5,0.8,0.7,1.7,0.7,2.6v1.5c0,0.9-0.2,1.8-0.7,2.6c-0.5,0.8-1.2,1.5-2.1,2.1s-2,1.1-3.3,1.4
		c-1.3,0.4-2.8,0.5-4.4,0.5c-1.6,0-3.1-0.2-4.4-0.5c-1.3-0.4-2.4-0.8-3.3-1.4s-1.6-1.3-2.1-2.1c-0.5-0.8-0.7-1.7-0.7-2.6V29.7z
		 M58.9,29.9c0-0.5-0.2-0.9-0.5-1.4c-0.3-0.5-0.8-0.9-1.4-1.2c-0.6-0.4-1.3-0.6-2.2-0.9C54,26.2,53.1,26,52,26s-2,0.1-2.9,0.3
		c-0.8,0.2-1.6,0.5-2.2,0.9c-0.6,0.4-1.1,0.8-1.4,1.2c-0.3,0.5-0.5,0.9-0.5,1.4V31c0,0.5,0.2,0.9,0.5,1.4c0.3,0.5,0.8,0.9,1.4,1.2
		c0.6,0.4,1.3,0.6,2.2,0.9c0.8,0.2,1.8,0.3,2.9,0.3s2-0.1,2.9-0.3c0.8-0.2,1.6-0.5,2.2-0.9c0.6-0.4,1.1-0.8,1.4-1.2
		c0.3-0.5,0.5-0.9,0.5-1.4V29.9z M67.4,13.6h-5v8.9h-3.7V1.8h3.7v8.5h5V13.6z"/>
	<linearGradient id="SVGID_3_" gradientUnits="userSpaceOnUse" x1="-45.8154" y1="19.0005" x2="341.3138" y2="19.0005">
		<stop  offset="0" style="stop-color:#00D1FF"/>
		<stop  offset="6.264919e-02" style="stop-color:#00DDFD"/>
		<stop  offset="0.1922" style="stop-color:#00F0F9"/>
		<stop  offset="0.3255" style="stop-color:#00FBF7"/>
		<stop  offset="0.4677" style="stop-color:#00FFF6"/>
		<stop  offset="1" style="stop-color:#67FFDD"/>
	</linearGradient>
	<path class="st2" d="M98.8,8.9H78.5V5.7h8.1V1.5h3.7v4.2h8.4V8.9z M88.5,24.3c-1.4,0-2.6-0.2-3.6-0.6c-1-0.4-1.9-0.9-2.5-1.5
		c-0.7-0.6-1.2-1.3-1.5-2.1c-0.3-0.8-0.5-1.6-0.5-2.4v-1.1c0-0.8,0.2-1.6,0.5-2.4c0.3-0.8,0.8-1.5,1.5-2.1c0.7-0.6,1.5-1.1,2.5-1.4
		c1-0.4,2.2-0.6,3.6-0.6c1.4,0,2.6,0.2,3.6,0.6c1,0.4,1.9,0.9,2.5,1.5c0.7,0.6,1.2,1.3,1.5,2.1c0.3,0.8,0.5,1.6,0.5,2.4v1.1
		c0,0.8-0.2,1.6-0.5,2.4c-0.3,0.8-0.8,1.5-1.5,2.1c-0.7,0.6-1.5,1.1-2.5,1.5C91.1,24.1,89.9,24.3,88.5,24.3z M88.5,21.3
		c0.8,0,1.4-0.1,2-0.3c0.6-0.2,1-0.5,1.4-0.8c0.4-0.3,0.7-0.7,0.9-1.2c0.2-0.4,0.3-0.9,0.3-1.3v-0.8c0-0.5-0.1-0.9-0.3-1.3
		c-0.2-0.4-0.5-0.8-0.8-1.2c-0.4-0.3-0.9-0.6-1.4-0.8c-0.6-0.2-1.2-0.3-2-0.3s-1.5,0.1-2,0.3c-0.6,0.2-1,0.5-1.4,0.8
		c-0.4,0.3-0.7,0.7-0.8,1.2C84.1,16,84,16.4,84,16.9v0.8c0,0.5,0.1,0.9,0.3,1.3c0.2,0.4,0.5,0.8,0.9,1.2c0.4,0.3,0.9,0.6,1.4,0.8
		C87.1,21.2,87.8,21.3,88.5,21.3z M89.3,33.2h18.8v3.3H85.6v-9.7h3.8V33.2z M103.8,27.3v-5.9h-5.1v-3.2h5.1v-4.2h-5.1v-3.2h5.1V1.8
		h3.7v25.4H103.8z"/>
	<linearGradient id="SVGID_4_" gradientUnits="userSpaceOnUse" x1="-45.8154" y1="19.4756" x2="341.3138" y2="19.4756">
		<stop  offset="0" style="stop-color:#00D1FF"/>
		<stop  offset="6.264919e-02" style="stop-color:#00DDFD"/>
		<stop  offset="0.1922" style="stop-color:#00F0F9"/>
		<stop  offset="0.3255" style="stop-color:#00FBF7"/>
		<stop  offset="0.4677" style="stop-color:#00FFF6"/>
		<stop  offset="1" style="stop-color:#67FFDD"/>
	</linearGradient>
	<path class="st3" d="M123.3,12.3c-0.1,0.3-0.3,0.7-0.8,1.2c-0.5,0.5-1,1.1-1.7,1.7c-0.8,0.7-1.8,1.5-2.8,2.4
		c-1.1,0.9-2.1,1.7-3.2,2.4l-2.2-2.7c1.2-0.9,2.4-1.8,3.5-2.7c1.1-0.9,2.1-1.7,2.7-2.3c0.9-0.9,1.6-1.7,1.9-2.6
		c0.4-0.8,0.5-1.9,0.5-3.3V2.7h3.8v3.7c0,0.6,0,1.1,0.1,1.6c0,0.5,0.1,0.9,0.3,1.3c0.1,0.4,0.3,0.8,0.6,1.1c0.3,0.4,0.6,0.7,1,1.1
		c0.9,0.8,1.9,1.6,2.9,2.4c1.1,0.8,2.2,1.5,3.2,2.3l-2.2,2.7c-1-0.7-1.9-1.4-2.9-2.1s-1.8-1.4-2.7-2.2c-0.5-0.4-1-0.9-1.4-1.3
		S123.5,12.6,123.3,12.3L123.3,12.3z M119.6,37.1v-9.6h18v-3.4h-18.2V21h21.9v9.5h-18V34h19v3.1H119.6z M137.6,19.3V1.8h3.7v17.4
		H137.6z"/>
	<linearGradient id="SVGID_5_" gradientUnits="userSpaceOnUse" x1="-45.8154" y1="19.8557" x2="341.3138" y2="19.8557">
		<stop  offset="0" style="stop-color:#00D1FF"/>
		<stop  offset="6.264919e-02" style="stop-color:#00DDFD"/>
		<stop  offset="0.1922" style="stop-color:#00F0F9"/>
		<stop  offset="0.3255" style="stop-color:#00FBF7"/>
		<stop  offset="0.4677" style="stop-color:#00FFF6"/>
		<stop  offset="1" style="stop-color:#67FFDD"/>
	</linearGradient>
	<path class="st4" d="M169.5,7.2h-11.2V4h14.9v5.5c0,1.4-0.2,2.7-0.6,3.8s-1.2,2.1-2.3,3c-1.1,0.9-2.6,1.9-4.5,2.9
		c-1.9,1-4.4,2.1-7.4,3.4l-1.5-3c2.6-1.1,4.8-2.1,6.4-2.9c1.6-0.8,2.9-1.6,3.8-2.4c0.9-0.8,1.5-1.5,1.9-2.3c0.3-0.8,0.5-1.7,0.5-2.7
		V7.2z M163.6,29.7c0-0.9,0.2-1.8,0.7-2.6c0.5-0.8,1.2-1.5,2.1-2.1c0.9-0.6,2.1-1.1,3.4-1.4c1.3-0.4,2.8-0.5,4.5-0.5
		s3.2,0.2,4.5,0.5c1.3,0.4,2.5,0.8,3.4,1.4c0.9,0.6,1.6,1.3,2.1,2.1c0.5,0.8,0.7,1.7,0.7,2.6v1.5c0,0.9-0.2,1.8-0.7,2.6
		c-0.5,0.8-1.2,1.5-2.1,2.1s-2.1,1.1-3.4,1.4c-1.3,0.4-2.8,0.5-4.5,0.5s-3.2-0.2-4.5-0.5c-1.3-0.4-2.5-0.8-3.4-1.4
		c-0.9-0.6-1.6-1.3-2.1-2.1c-0.5-0.8-0.7-1.7-0.7-2.6V29.7z M181.4,29.9c0-0.5-0.2-0.9-0.5-1.4c-0.3-0.5-0.8-0.9-1.4-1.2
		c-0.6-0.4-1.3-0.6-2.2-0.9s-1.9-0.3-2.9-0.3c-1.1,0-2.1,0.1-2.9,0.3s-1.6,0.5-2.2,0.9c-0.6,0.4-1.1,0.8-1.4,1.2
		c-0.3,0.5-0.5,0.9-0.5,1.4V31c0,0.5,0.2,0.9,0.5,1.4s0.8,0.9,1.4,1.2c0.6,0.4,1.3,0.6,2.2,0.9s1.9,0.3,2.9,0.3
		c1.1,0,2.1-0.1,2.9-0.3s1.6-0.5,2.2-0.9c0.6-0.4,1.1-0.8,1.4-1.2c0.3-0.5,0.5-0.9,0.5-1.4V29.9z M181.3,22.5v-5.1h-6.8v-3.2h6.8
		v-4.1h-6.2V6.9h6.2V1.8h3.7v20.7H181.3z"/>
	<linearGradient id="SVGID_6_" gradientUnits="userSpaceOnUse" x1="-45.8154" y1="19.3616" x2="341.3138" y2="19.3616">
		<stop  offset="0" style="stop-color:#00D1FF"/>
		<stop  offset="6.264919e-02" style="stop-color:#00DDFD"/>
		<stop  offset="0.1922" style="stop-color:#00F0F9"/>
		<stop  offset="0.3255" style="stop-color:#00FBF7"/>
		<stop  offset="0.4677" style="stop-color:#00FFF6"/>
		<stop  offset="1" style="stop-color:#67FFDD"/>
	</linearGradient>
	<path class="st5" d="M198.8,19.8c-0.1,0.4-0.3,0.8-0.6,1.2c-0.3,0.4-0.6,0.9-1,1.3c-0.8,0.9-1.6,1.9-2.5,2.9c-0.9,1-1.9,2-2.9,3.1
		l-2.5-2.5c1.1-1.1,2.2-2.2,3.2-3.2c1-1,1.9-2.1,2.7-3.2c0.8-1,1.3-2,1.5-2.9c0.3-1,0.4-2,0.4-3.1v-5h-6V5.2h15.3v3.2h-5.6v5
		c0,1.1,0.1,2.1,0.4,3c0.3,0.9,0.8,1.9,1.6,2.9c0.8,1,1.6,2,2.5,3c0.9,0.9,1.9,2,3,3l-2.5,2.5c-1-1-1.9-2-2.8-2.8
		c-0.8-0.9-1.6-1.8-2.4-2.7c-0.4-0.5-0.7-0.9-1-1.3C199.2,20.6,199,20.2,198.8,19.8L198.8,19.8z M209.8,2.6h3.7v32.6h-3.7V16.6h-5.3
		v-3.3h5.3V2.6z M220.4,36.9h-3.7v-35h3.7V36.9z"/>
	<linearGradient id="SVGID_7_" gradientUnits="userSpaceOnUse" x1="-45.8154" y1="19.1904" x2="341.3138" y2="19.1904">
		<stop  offset="0" style="stop-color:#00D1FF"/>
		<stop  offset="6.264919e-02" style="stop-color:#00DDFD"/>
		<stop  offset="0.1922" style="stop-color:#00F0F9"/>
		<stop  offset="0.3255" style="stop-color:#00FBF7"/>
		<stop  offset="0.4677" style="stop-color:#00FFF6"/>
		<stop  offset="1" style="stop-color:#67FFDD"/>
	</linearGradient>
	<path class="st6" d="M255.6,21.9c-1.5,0.2-3,0.3-4.4,0.4c-1.4,0.1-3,0.2-4.6,0.3c-1.7,0.1-3.6,0.1-5.7,0.2c-2.1,0-4.6,0.1-7.6,0.1
		v-3.1c1.8,0,3.5,0,4.9,0s2.8,0,4.1,0V18c-2-0.2-3.5-0.7-4.5-1.5c-1-0.8-1.5-1.7-1.5-2.9v-0.8c0-1.3,0.7-2.4,2-3.2s3.3-1.3,6-1.3
		c2.6,0,4.6,0.4,6,1.3s2,1.9,2,3.2v0.8c0,1.1-0.5,2.1-1.6,2.9s-2.6,1.3-4.7,1.5v1.5c1.6-0.1,3.2-0.1,4.6-0.2c1.4-0.1,3-0.2,4.7-0.4
		L255.6,21.9z M253.7,4.2v3.1h-19.1V4.2h7.8v-3h3.7v3H253.7z M238.4,37.1v-7.9h19.1v-1.9h-19.3v-3h23v7.8h-19.2v2h20.3v3H238.4z
		 M244.2,11.3c-1.5,0-2.6,0.2-3.3,0.5c-0.7,0.3-1,0.8-1,1.3v0.3c0,0.5,0.3,1,1,1.3c0.7,0.3,1.8,0.5,3.3,0.5c1.5,0,2.6-0.2,3.3-0.5
		c0.7-0.3,1-0.8,1-1.3v-0.3c0-0.5-0.3-1-1-1.3C246.8,11.4,245.7,11.3,244.2,11.3z M257.4,23V1.8h3.7v9h4.9v3.3h-4.9V23H257.4z"/>
	<linearGradient id="SVGID_8_" gradientUnits="userSpaceOnUse" x1="-45.8154" y1="20.5017" x2="341.3138" y2="20.5017">
		<stop  offset="0" style="stop-color:#00D1FF"/>
		<stop  offset="6.264919e-02" style="stop-color:#00DDFD"/>
		<stop  offset="0.1922" style="stop-color:#00F0F9"/>
		<stop  offset="0.3255" style="stop-color:#00FBF7"/>
		<stop  offset="0.4677" style="stop-color:#00FFF6"/>
		<stop  offset="1" style="stop-color:#67FFDD"/>
	</linearGradient>
	<path class="st7" d="M294.6,3.1v3.2h-18.7v5.6h19v3.2h-9.5v3.6h14.2v3.2h-32.1v-3.2h14.2v-3.6h-9.4v-12H294.6z M283.5,37.9
		c-1.7,0-3.2-0.2-4.5-0.5c-1.4-0.3-2.5-0.8-3.5-1.3c-0.9-0.6-1.7-1.2-2.2-2c-0.5-0.8-0.8-1.6-0.8-2.5v-1.3c0-0.9,0.3-1.8,0.8-2.5
		c0.5-0.8,1.2-1.4,2.2-2c1-0.6,2.1-1,3.5-1.3c1.4-0.3,2.9-0.5,4.5-0.5s3.2,0.2,4.5,0.5c1.3,0.3,2.5,0.8,3.4,1.3
		c0.9,0.6,1.7,1.2,2.2,2c0.5,0.8,0.8,1.6,0.8,2.5v1.3c0,0.9-0.3,1.7-0.8,2.5c-0.5,0.8-1.2,1.4-2.2,2c-0.9,0.6-2.1,1-3.5,1.3
		C286.7,37.7,285.2,37.9,283.5,37.9z M283.5,27c-1.1,0-2,0.1-2.9,0.3c-0.9,0.2-1.6,0.4-2.3,0.8c-0.6,0.3-1.1,0.7-1.5,1.1
		c-0.4,0.4-0.5,0.9-0.5,1.3v0.8c0,0.5,0.2,0.9,0.5,1.3c0.4,0.4,0.8,0.8,1.5,1.1c0.6,0.3,1.4,0.6,2.3,0.8c0.9,0.2,1.9,0.3,2.9,0.3
		c1.1,0,2-0.1,2.9-0.3s1.6-0.4,2.3-0.8c0.6-0.3,1.1-0.7,1.5-1.1c0.4-0.4,0.5-0.9,0.5-1.3v-0.8c0-0.5-0.2-0.9-0.5-1.3
		c-0.4-0.4-0.8-0.8-1.5-1.1c-0.6-0.3-1.4-0.6-2.3-0.8S284.6,27,283.5,27z"/>
</g>
</svg>
