<?xml version="1.0" encoding="utf-8"?>
<!-- Generator: Adobe Illustrator 20.0.0, SVG Export Plug-In . SVG Version: 6.00 Build 0)  -->
<svg version="1.1" id="Application_xA0_이미지_1_"
	 xmlns="http://www.w3.org/2000/svg" xmlns:xlink="http://www.w3.org/1999/xlink" x="0px" y="0px" viewBox="0 0 113 31.6"
	 style="enable-background:new 0 0 113 31.6;" xml:space="preserve">
<style type="text/css">
	.st0{fill:#2A2E2F;}
</style>
<g>
	<path class="st0" d="M5.8,4.8c2.3-2.4,5.3-3.6,8.8-3.6c4.8,0,8.3,1.6,10.5,4.8c1.2,1.8,1.9,3.6,2,5.4h-6C20.7,10,20.2,9,19.6,8.2
		C18.6,7,17,6.4,14.9,6.4C12.7,6.4,11,7.3,9.8,9c-1.2,1.8-1.9,4.3-1.9,7.5c0,3.2,0.7,5.6,2,7.3c1.3,1.6,3,2.4,5,2.4
		c2.1,0,3.6-0.7,4.7-2.1c0.6-0.7,1.1-1.9,1.5-3.3h6c-0.5,3.1-1.8,5.7-4,7.7c-2.1,2-4.8,2.9-8.1,2.9c-4.1,0-7.3-1.3-9.7-4
		c-2.3-2.7-3.5-6.3-3.5-11C1.8,11.4,3.1,7.5,5.8,4.8z"/>
	<path class="st0" d="M37.2,30.6h-5.6V1.8h5.6V30.6z"/>
	<path class="st0" d="M60.4,28c-1.8,2.2-4.5,3.3-8.2,3.3S45.8,30.2,44,28s-2.7-4.9-2.7-8c0-3.1,0.9-5.7,2.7-8s4.5-3.4,8.2-3.4
		s6.4,1.1,8.2,3.4s2.7,4.9,2.7,8C63,23.1,62.1,25.8,60.4,28z M55.9,24.9c0.9-1.2,1.3-2.8,1.3-4.9c0-2.1-0.4-3.8-1.3-4.9
		c-0.9-1.2-2.1-1.7-3.8-1.7s-2.9,0.6-3.8,1.7c-0.9,1.2-1.3,2.8-1.3,4.9c0,2.1,0.4,3.8,1.3,4.9s2.1,1.7,3.8,1.7S55,26,55.9,24.9z"/>
	<path class="st0" d="M72.6,9.3v12.8c0,1.2,0.1,2.1,0.4,2.7c0.5,1.1,1.5,1.6,3,1.6c1.9,0,3.2-0.8,3.9-2.3c0.4-0.8,0.5-1.9,0.5-3.3
		V9.3h5.6v21.3h-5.4v-3c-0.1,0.1-0.2,0.3-0.4,0.6s-0.5,0.6-0.7,0.9c-0.9,0.8-1.7,1.3-2.5,1.6c-0.8,0.3-1.8,0.4-2.9,0.4
		c-3.1,0-5.3-1.1-6.3-3.4c-0.6-1.2-0.9-3.1-0.9-5.5V9.3H72.6z"/>
	<path class="st0" d="M102.8,9.6c1,0.6,1.8,1.4,2.4,2.4V1.8h5.6v28.8h-5.4v-2.9c-0.8,1.3-1.7,2.2-2.7,2.8s-2.3,0.9-3.8,0.9
		c-2.5,0-4.6-1-6.3-3s-2.5-4.6-2.5-7.7c0-3.6,0.8-6.5,2.5-8.6s3.9-3.1,6.7-3.1C100.6,8.8,101.8,9.1,102.8,9.6z M104.1,24.8
		c0.8-1.2,1.2-2.7,1.2-4.6c0-2.6-0.7-4.5-2-5.6c-0.8-0.7-1.7-1-2.8-1c-1.6,0-2.8,0.6-3.6,1.8s-1.1,2.8-1.1,4.6c0,2,0.4,3.5,1.2,4.7
		s2,1.8,3.5,1.8S103.3,26,104.1,24.8z"/>
</g>
</svg>
