<?xml version="1.0" encoding="utf-8"?>
<!-- Generator: Adobe Illustrator 20.0.0, SVG Export Plug-In . SVG Version: 6.00 Build 0)  -->
<svg version="1.1" id="title_1_" xmlns="http://www.w3.org/2000/svg" xmlns:xlink="http://www.w3.org/1999/xlink" x="0px" y="0px"
	 viewBox="0 0 133.5 68" style="enable-background:new 0 0 133.5 68;" xml:space="preserve">
<style type="text/css">
	.st0{fill:#FFFFFF;}
</style>
<g id="Application_xA0_이미지_1_">
</g>
<g id="ARGear_Application_Type_xA0_이미지_1_">
	<g>
		<path class="st0" d="M23.9,6H8.6v6.1h14v5h-14v7.4h15.9v5.2H2.8V1h21.1V6z"/>
		<path class="st0" d="M46,9.7c1.4,1.2,2.1,3.1,2.1,5.7v14.3h-5.7V16.8c0-1.1-0.1-2-0.4-2.6c-0.5-1.1-1.6-1.6-3.1-1.6
			c-1.9,0-3.2,0.8-3.9,2.4c-0.4,0.8-0.5,1.9-0.5,3.2v11.5h-5.6V8.5h5.4v3.1c0.7-1.1,1.4-1.9,2-2.4c1.1-0.9,2.6-1.3,4.3-1.3
			C42.8,7.9,44.6,8.5,46,9.7z"/>
		<path class="st0" d="M63.8,8.4c1.4,0.6,2.4,1.6,3.3,3.1V8.5h5.4v20.2c0,2.7-0.5,4.8-1.4,6.2c-1.6,2.4-4.6,3.6-9.1,3.6
			c-2.7,0-4.9-0.5-6.7-1.6s-2.7-2.7-2.9-4.8h6.1c0.2,0.7,0.4,1.1,0.8,1.4c0.6,0.5,1.6,0.8,3,0.8c2,0,3.3-0.7,4-2
			c0.4-0.9,0.7-2.3,0.7-4.3v-1.4c-0.5,0.9-1.1,1.6-1.7,2.1c-1.1,0.8-2.5,1.3-4.3,1.3c-2.7,0-4.9-1-6.6-2.9s-2.5-4.5-2.5-7.8
			c0-3.2,0.8-5.8,2.4-8s3.8-3.2,6.7-3.2C62.1,7.9,63,8.1,63.8,8.4z M65.7,23.7c0.9-1,1.3-2.5,1.3-4.7c0-2-0.4-3.6-1.3-4.6
			c-0.8-1.1-2-1.6-3.4-1.6c-1.9,0-3.3,0.9-4,2.8c-0.4,1-0.6,2.2-0.6,3.6c0,1.2,0.2,2.3,0.6,3.3c0.8,1.8,2.1,2.7,4,2.7
			C63.7,25.2,64.8,24.7,65.7,23.7z"/>
		<path class="st0" d="M83.4,5.9h-5.6V0.8h5.6V5.9z M77.8,8.5h5.6v21.3h-5.6V8.5z"/>
		<path class="st0" d="M106,9.7c1.4,1.2,2.1,3.1,2.1,5.7v14.3h-5.7V16.8c0-1.1-0.1-2-0.4-2.6c-0.5-1.1-1.6-1.6-3.1-1.6
			c-1.9,0-3.2,0.8-3.9,2.4c-0.4,0.8-0.5,1.9-0.5,3.2v11.5h-5.6V8.5h5.4v3.1c0.7-1.1,1.4-1.9,2-2.4c1.1-0.9,2.6-1.3,4.3-1.3
			C102.8,7.9,104.6,8.5,106,9.7z"/>
		<path class="st0" d="M127.1,8.9c1.5,0.7,2.7,1.7,3.7,3.1c0.9,1.3,1.4,2.7,1.7,4.4c0.1,1,0.2,2.4,0.2,4.2h-15.5
			c0.1,2.1,0.8,3.6,2.2,4.5c0.8,0.5,1.9,0.8,3.1,0.8c1.3,0,2.3-0.3,3.1-1c0.4-0.4,0.8-0.8,1.1-1.5h5.7c-0.1,1.3-0.8,2.5-2.1,3.8
			c-1.9,2.1-4.6,3.1-8,3.1c-2.8,0-5.3-0.9-7.5-2.6c-2.2-1.7-3.2-4.6-3.2-8.5c0-3.7,1-6.5,2.9-8.5s4.5-3,7.6-3
			C124,7.9,125.6,8.2,127.1,8.9z M118.8,13.7c-0.8,0.8-1.3,1.9-1.5,3.3h9.6c-0.1-1.5-0.6-2.6-1.5-3.4c-0.9-0.8-2-1.1-3.3-1.1
			C120.7,12.5,119.6,12.9,118.8,13.7z"/>
	</g>
	<g>
		<path class="st0" d="M8.6,54.8c-0.6-0.4-1.3-0.6-2.1-0.6c-0.7,0-1.3,0.1-1.8,0.4c-0.5,0.3-0.9,0.6-1.2,1S3,56.5,2.9,57.1
			c-0.1,0.6-0.2,1.1-0.2,1.7c0,0.7,0.1,1.3,0.2,1.8c0.1,0.6,0.4,1.1,0.7,1.5c0.3,0.4,0.7,0.8,1.2,1c0.5,0.3,1.1,0.4,1.8,0.4
			c0.5,0,0.9-0.1,1.3-0.2c0.4-0.2,0.7-0.4,1-0.7c0.3-0.3,0.5-0.6,0.7-1s0.3-0.8,0.3-1.3h1.5c-0.1,1.4-0.6,2.6-1.5,3.4
			c-0.8,0.8-2,1.2-3.5,1.2c-0.9,0-1.7-0.2-2.3-0.5c-0.7-0.3-1.2-0.7-1.6-1.3c-0.4-0.5-0.8-1.2-1-1.9c-0.2-0.7-0.3-1.5-0.3-2.3
			s0.1-1.6,0.4-2.3c0.2-0.7,0.6-1.4,1-1.9c0.5-0.5,1-1,1.7-1.3c0.7-0.3,1.5-0.5,2.3-0.5c0.6,0,1.2,0.1,1.7,0.2
			c0.5,0.2,1,0.4,1.4,0.7s0.8,0.7,1,1.2s0.5,1,0.5,1.6H9.7C9.6,55.8,9.2,55.2,8.6,54.8z"/>
		<path class="st0" d="M12.8,58.7c0.2-0.5,0.4-1,0.8-1.4c0.3-0.4,0.8-0.7,1.3-0.9s1.1-0.3,1.7-0.3c0.7,0,1.2,0.1,1.7,0.3
			s0.9,0.5,1.3,0.9s0.6,0.8,0.8,1.4c0.2,0.5,0.3,1.1,0.3,1.7s-0.1,1.2-0.3,1.7c-0.2,0.5-0.4,1-0.8,1.4c-0.3,0.4-0.8,0.7-1.3,0.9
			c-0.5,0.2-1.1,0.3-1.7,0.3c-0.7,0-1.2-0.1-1.7-0.3c-0.5-0.2-0.9-0.5-1.3-0.9c-0.3-0.4-0.6-0.8-0.8-1.4c-0.2-0.5-0.3-1.1-0.3-1.7
			S12.7,59.3,12.8,58.7z M14.2,61.8c0.1,0.4,0.3,0.7,0.6,1c0.2,0.3,0.5,0.5,0.8,0.6c0.3,0.1,0.6,0.2,1,0.2c0.4,0,0.7-0.1,1-0.2
			c0.3-0.1,0.6-0.3,0.8-0.6c0.2-0.3,0.4-0.6,0.6-1s0.2-0.8,0.2-1.3s-0.1-0.9-0.2-1.3s-0.3-0.7-0.6-1c-0.2-0.3-0.5-0.5-0.8-0.6
			c-0.3-0.1-0.6-0.2-1-0.2c-0.4,0-0.7,0.1-1,0.2c-0.3,0.1-0.6,0.3-0.8,0.6c-0.2,0.3-0.4,0.6-0.6,1S14,59.9,14,60.4
			S14.1,61.4,14.2,61.8z"/>
		<path class="st0" d="M23.4,56.3V58h0c0.3-0.7,0.7-1.2,1.2-1.5c0.5-0.3,1.1-0.5,1.8-0.4v1.4c-0.5,0-1,0.1-1.4,0.2
			c-0.4,0.1-0.7,0.4-0.9,0.7c-0.2,0.3-0.4,0.6-0.5,1c-0.1,0.4-0.2,0.9-0.2,1.4v3.7h-1.4v-8.3H23.4z"/>
		<path class="st0" d="M33.1,64c-0.6,0.5-1.4,0.7-2.3,0.7c-0.7,0-1.2-0.1-1.7-0.3c-0.5-0.2-0.9-0.5-1.2-0.9
			c-0.3-0.4-0.6-0.8-0.7-1.4s-0.3-1.1-0.3-1.7c0-0.6,0.1-1.2,0.3-1.7c0.2-0.5,0.5-1,0.8-1.4s0.8-0.7,1.2-0.9c0.5-0.2,1-0.3,1.6-0.3
			c0.7,0,1.3,0.2,1.8,0.5s0.9,0.7,1.2,1.2c0.3,0.5,0.5,1,0.6,1.5c0.1,0.6,0.2,1.1,0.1,1.6h-6.2c0,0.4,0,0.7,0.1,1
			c0.1,0.3,0.3,0.6,0.5,0.9c0.2,0.3,0.5,0.5,0.8,0.6c0.3,0.2,0.7,0.2,1.2,0.2c0.6,0,1-0.1,1.4-0.4s0.6-0.7,0.7-1.2h1.3
			C34.1,62.9,33.7,63.6,33.1,64z M32.8,58.7c-0.1-0.3-0.3-0.5-0.5-0.7s-0.5-0.4-0.7-0.5c-0.3-0.1-0.6-0.2-0.9-0.2
			c-0.4,0-0.7,0.1-1,0.2c-0.3,0.1-0.5,0.3-0.7,0.5c-0.2,0.2-0.4,0.5-0.5,0.7c-0.1,0.3-0.2,0.6-0.2,0.9H33C33,59.3,32.9,59,32.8,58.7
			z"/>
		<path class="st0" d="M45.3,53.1l4.5,11.4h-1.7l-1.2-3.4H42l-1.3,3.4h-1.6l4.4-11.4H45.3z M46.4,59.9l-1.9-5.3h0l-1.9,5.3H46.4z"/>
		<path class="st0" d="M56.3,53.1c1.1,0,1.9,0.3,2.6,0.8s0.9,1.3,0.9,2.2c0,0.7-0.2,1.3-0.5,1.8c-0.3,0.5-0.8,0.9-1.5,1.1v0
			c0.3,0.1,0.6,0.2,0.8,0.3s0.4,0.3,0.5,0.5c0.1,0.2,0.2,0.4,0.3,0.7c0.1,0.3,0.1,0.5,0.1,0.8c0,0.3,0,0.6,0,0.8s0,0.6,0.1,0.8
			c0,0.3,0.1,0.5,0.2,0.8c0.1,0.3,0.2,0.5,0.4,0.7h-1.7c-0.1-0.1-0.2-0.3-0.2-0.5c0-0.2-0.1-0.4-0.1-0.7c0-0.2,0-0.5,0-0.8
			c0-0.3,0-0.6-0.1-0.8c0-0.3-0.1-0.5-0.2-0.8c-0.1-0.2-0.2-0.5-0.3-0.7S57.2,60,57,59.9s-0.5-0.2-0.9-0.2h-3.7v4.9h-1.5V53.1H56.3z
			 M56.6,58.3c0.3-0.1,0.6-0.2,0.8-0.3s0.4-0.4,0.6-0.6c0.1-0.3,0.2-0.6,0.2-1c0-0.6-0.2-1-0.5-1.4c-0.3-0.4-0.8-0.5-1.6-0.5h-3.8v4
			h3.2C55.9,58.4,56.3,58.4,56.6,58.3z"/>
		<path class="st0" d="M74.2,53.1v1.3h-6.4v3.6h5.9v1.3h-5.9v4h6.4v1.3h-7.9V53.1H74.2z"/>
		<path class="st0" d="M77.1,56.3v1.3h0c0.6-1,1.5-1.5,2.7-1.5c0.5,0,1,0.1,1.4,0.2s0.7,0.4,0.9,0.6c0.2,0.3,0.4,0.6,0.5,1
			c0.1,0.4,0.1,0.8,0.1,1.2v5.4h-1.4V59c0-0.5-0.1-0.9-0.4-1.2c-0.3-0.3-0.7-0.4-1.2-0.4c-0.4,0-0.8,0.1-1.1,0.2S78,57.8,77.8,58
			c-0.2,0.2-0.4,0.5-0.5,0.8s-0.2,0.7-0.2,1v4.7h-1.4v-8.3H77.1z"/>
		<path class="st0" d="M91,66.9c-0.6,0.7-1.6,1-2.9,1c-0.4,0-0.8,0-1.2-0.1c-0.4-0.1-0.8-0.2-1.1-0.4c-0.3-0.2-0.6-0.4-0.8-0.8
			c-0.2-0.3-0.3-0.7-0.4-1.1H86c0,0.2,0.1,0.5,0.2,0.6c0.1,0.2,0.3,0.3,0.5,0.4s0.4,0.2,0.7,0.2c0.2,0,0.5,0.1,0.7,0.1
			c0.4,0,0.8-0.1,1.1-0.2c0.3-0.2,0.6-0.4,0.8-0.6c0.2-0.3,0.3-0.6,0.4-1c0.1-0.4,0.1-0.8,0.1-1.3v-0.5h0c-0.2,0.5-0.6,0.9-1.1,1.1
			c-0.5,0.2-1,0.4-1.5,0.4c-0.6,0-1.2-0.1-1.6-0.3c-0.5-0.2-0.8-0.5-1.2-0.9c-0.3-0.4-0.5-0.8-0.7-1.3c-0.2-0.5-0.2-1-0.2-1.6
			c0-0.5,0.1-1,0.2-1.5c0.1-0.5,0.3-1,0.6-1.4c0.3-0.4,0.7-0.8,1.2-1c0.5-0.3,1.1-0.4,1.8-0.4c0.5,0,1,0.1,1.4,0.3s0.8,0.6,1,1h0
			v-1.2h1.3v7.6C91.9,65.2,91.6,66.2,91,66.9z M89.2,63.2c0.3-0.2,0.6-0.4,0.8-0.7c0.2-0.3,0.3-0.6,0.4-1c0.1-0.4,0.1-0.8,0.1-1.2
			c0-0.4,0-0.7-0.1-1.1c-0.1-0.4-0.2-0.7-0.4-1c-0.2-0.3-0.4-0.5-0.7-0.7s-0.7-0.3-1.1-0.3c-0.4,0-0.8,0.1-1.1,0.2
			c-0.3,0.2-0.6,0.4-0.8,0.7s-0.3,0.6-0.4,1c-0.1,0.4-0.1,0.7-0.1,1.1c0,0.4,0,0.7,0.1,1.1s0.2,0.7,0.4,1s0.4,0.5,0.7,0.7
			c0.3,0.2,0.7,0.3,1.1,0.3C88.5,63.5,88.9,63.4,89.2,63.2z"/>
		<path class="st0" d="M94,54.8v-1.7h1.4v1.7H94z M95.4,56.3v8.3H94v-8.3H95.4z"/>
		<path class="st0" d="M98.8,56.3v1.3h0c0.6-1,1.5-1.5,2.7-1.5c0.5,0,1,0.1,1.4,0.2s0.7,0.4,0.9,0.6c0.2,0.3,0.4,0.6,0.5,1
			c0.1,0.4,0.1,0.8,0.1,1.2v5.4H103V59c0-0.5-0.1-0.9-0.4-1.2c-0.3-0.3-0.7-0.4-1.2-0.4c-0.4,0-0.8,0.1-1.1,0.2s-0.6,0.3-0.8,0.5
			c-0.2,0.2-0.4,0.5-0.5,0.8s-0.2,0.7-0.2,1v4.7h-1.4v-8.3H98.8z"/>
		<path class="st0" d="M112.2,64c-0.6,0.5-1.4,0.7-2.3,0.7c-0.7,0-1.2-0.1-1.7-0.3c-0.5-0.2-0.9-0.5-1.2-0.9
			c-0.3-0.4-0.6-0.8-0.7-1.4c-0.2-0.5-0.3-1.1-0.3-1.7c0-0.6,0.1-1.2,0.3-1.7c0.2-0.5,0.5-1,0.8-1.4s0.8-0.7,1.2-0.9
			c0.5-0.2,1-0.3,1.6-0.3c0.7,0,1.3,0.2,1.8,0.5s0.9,0.7,1.2,1.2c0.3,0.5,0.5,1,0.6,1.5c0.1,0.6,0.2,1.1,0.1,1.6h-6.2
			c0,0.4,0,0.7,0.1,1c0.1,0.3,0.3,0.6,0.5,0.9c0.2,0.3,0.5,0.5,0.8,0.6c0.3,0.2,0.7,0.2,1.2,0.2c0.6,0,1-0.1,1.4-0.4
			s0.6-0.7,0.7-1.2h1.3C113.3,62.9,112.9,63.6,112.2,64z M111.9,58.7c-0.1-0.3-0.3-0.5-0.5-0.7s-0.5-0.4-0.7-0.5
			c-0.3-0.1-0.6-0.2-0.9-0.2c-0.4,0-0.7,0.1-1,0.2c-0.3,0.1-0.5,0.3-0.7,0.5c-0.2,0.2-0.4,0.5-0.5,0.7c-0.1,0.3-0.2,0.6-0.2,0.9h4.8
			C112.1,59.3,112,59,111.9,58.7z"/>
	</g>
</g>
</svg>
