<?xml version="1.0" encoding="utf-8"?>
<!-- Generator: Adobe Illustrator 20.0.0, SVG Export Plug-In . SVG Version: 6.00 Build 0)  -->
<svg version="1.1" id="레이어_1" xmlns="http://www.w3.org/2000/svg" xmlns:xlink="http://www.w3.org/1999/xlink" x="0px"
	 y="0px" viewBox="0 0 509 41" style="enable-background:new 0 0 509 41;" xml:space="preserve">
<style type="text/css">
	.st0{fill:#FFFFFF;}
</style>
<g>
	<path class="st0" d="M5.8,21.2c0.1,1.6,0.5,2.9,1.1,4C8.1,27,10.4,28,13.5,28c1.4,0,2.7-0.2,3.9-0.6c2.3-0.8,3.4-2.3,3.4-4.3
		c0-1.6-0.5-2.7-1.4-3.3c-1-0.7-2.5-1.2-4.5-1.7L11,17.1c-2.5-0.6-4.2-1.2-5.3-1.9C3.9,14,3,12.2,3,9.8c0-2.6,0.9-4.7,2.6-6.3
		S9.9,1,13.1,1c3,0,5.5,0.7,7.5,2.2s3.1,3.8,3.1,7h-3.7c-0.2-1.5-0.6-2.7-1.2-3.5c-1.1-1.5-3.1-2.2-5.8-2.2c-2.2,0-3.8,0.5-4.8,1.4
		c-1,1-1.5,2.1-1.5,3.4c0,1.4,0.6,2.4,1.7,3.1c0.8,0.4,2.5,0.9,5.1,1.6l3.9,0.9c1.9,0.4,3.4,1,4.4,1.8c1.8,1.3,2.7,3.3,2.7,5.8
		c0,3.2-1.1,5.4-3.4,6.8c-2.3,1.4-4.9,2.1-7.9,2.1c-3.5,0-6.3-0.9-8.3-2.7c-2-1.8-3-4.3-2.9-7.4H5.8z"/>
	<path class="st0" d="M33.2,9.5v13.9c0,1.1,0.2,1.9,0.5,2.6c0.6,1.2,1.8,1.9,3.4,1.9c2.4,0,4-1.1,4.9-3.3c0.5-1.2,0.7-2.8,0.7-4.8
		V9.5h3.6v20.9H43l0-3.1c-0.5,0.8-1,1.5-1.7,2C40,30.4,38.4,31,36.5,31c-3,0-5-1-6-3c-0.6-1.1-0.9-2.5-0.9-4.3V9.5H33.2z"/>
	<path class="st0" d="M51.9,9.6h3.5v2.8c0.7-1,1.5-1.7,2.3-2.2C58.9,9.4,60.3,9,61.9,9c2.4,0,4.4,0.9,6.1,2.7
		c1.7,1.8,2.5,4.4,2.5,7.8c0,4.6-1.2,7.8-3.6,9.8c-1.5,1.2-3.3,1.9-5.3,1.9c-1.6,0-2.9-0.3-4-1c-0.6-0.4-1.3-1.1-2.1-2v10.7h-3.6
		V9.6z M65.2,26c1.1-1.4,1.7-3.4,1.7-6.2c0-1.7-0.2-3.1-0.7-4.3c-0.9-2.3-2.6-3.5-5.1-3.5c-2.5,0-4.2,1.2-5.1,3.7
		c-0.5,1.3-0.7,3-0.7,5c0,1.6,0.2,3,0.7,4.1c0.9,2.2,2.6,3.2,5.1,3.2C62.7,28.1,64.1,27.4,65.2,26z"/>
	<path class="st0" d="M74.3,9.6h3.5v2.8c0.7-1,1.5-1.7,2.3-2.2C81.3,9.4,82.7,9,84.4,9c2.4,0,4.4,0.9,6.1,2.7
		c1.7,1.8,2.5,4.4,2.5,7.8c0,4.6-1.2,7.8-3.6,9.8c-1.5,1.2-3.3,1.9-5.3,1.9c-1.6,0-2.9-0.3-4-1c-0.6-0.4-1.3-1.1-2.1-2v10.7h-3.6
		V9.6z M87.7,26c1.1-1.4,1.7-3.4,1.7-6.2c0-1.7-0.2-3.1-0.7-4.3c-0.9-2.3-2.6-3.5-5.1-3.5c-2.5,0-4.2,1.2-5.1,3.7
		c-0.5,1.3-0.7,3-0.7,5c0,1.6,0.2,3,0.7,4.1c0.9,2.2,2.6,3.2,5.1,3.2C85.2,28.1,86.6,27.4,87.7,26z"/>
	<path class="st0" d="M112.4,11.6c1.9,1.8,2.8,4.4,2.8,7.9c0,3.4-0.8,6.2-2.5,8.4c-1.6,2.2-4.2,3.3-7.7,3.3c-2.9,0-5.2-1-6.9-2.9
		c-1.7-1.9-2.5-4.6-2.5-7.8c0-3.5,0.9-6.3,2.7-8.4c1.8-2.1,4.2-3.1,7.2-3.1C108.2,8.9,110.5,9.8,112.4,11.6z M110.2,25.5
		c0.9-1.8,1.3-3.7,1.3-5.9c0-2-0.3-3.5-0.9-4.8c-1-1.9-2.7-2.9-5.1-2.9c-2.1,0-3.7,0.8-4.7,2.5c-1,1.6-1.5,3.6-1.5,5.9
		c0,2.2,0.5,4.1,1.5,5.6c1,1.5,2.5,2.2,4.6,2.2C107.7,28.1,109.3,27.2,110.2,25.5z"/>
	<path class="st0" d="M119.7,9.5h3.4v3.6c0.3-0.7,1-1.6,2-2.6s2.3-1.5,3.7-1.5c0.1,0,0.2,0,0.3,0c0.2,0,0.4,0,0.8,0.1v3.7
		c-0.2,0-0.4-0.1-0.6-0.1s-0.4,0-0.6,0c-1.8,0-3.2,0.6-4.1,1.7s-1.4,2.5-1.4,3.9v12h-3.6V9.5z"/>
	<path class="st0" d="M133.7,3.7h3.6v5.8h3.4v2.9h-3.4V26c0,0.7,0.2,1.2,0.8,1.5c0.3,0.1,0.7,0.2,1.4,0.2c0.2,0,0.4,0,0.6,0
		s0.4,0,0.7-0.1v2.8c-0.4,0.1-0.8,0.2-1.3,0.3s-0.9,0.1-1.4,0.1c-1.7,0-2.8-0.4-3.4-1.3s-0.9-1.9-0.9-3.3V12.4h-2.9V9.5h2.9V3.7z"/>
	<path class="st0" d="M156.1,1.7h11.6c3.9,0,7,1.4,9.1,4.2c1.9,2.5,2.9,5.8,2.9,9.7c0,3-0.6,5.8-1.7,8.3c-2,4.3-5.5,6.5-10.4,6.5
		h-11.5V1.7z M166.9,27.1c1.3,0,2.4-0.1,3.2-0.4c1.5-0.5,2.7-1.5,3.7-2.9c0.8-1.2,1.3-2.6,1.6-4.5c0.2-1.1,0.3-2.1,0.3-3
		c0-3.6-0.7-6.3-2.1-8.3c-1.4-2-3.6-2.9-6.7-2.9h-6.8v22H166.9z"/>
	<path class="st0" d="M197.7,10.1c1.4,0.7,2.5,1.6,3.2,2.7c0.7,1.1,1.2,2.3,1.4,3.7c0.2,1,0.3,2.5,0.3,4.6h-15.4
		c0.1,2.1,0.6,3.8,1.5,5.1s2.4,1.9,4.4,1.9c1.8,0,3.3-0.6,4.4-1.8c0.6-0.7,1-1.5,1.3-2.5h3.5c-0.1,0.8-0.4,1.6-0.9,2.6
		s-1.1,1.7-1.7,2.3c-1.1,1-2.4,1.7-4,2.1c-0.8,0.2-1.8,0.3-2.9,0.3c-2.6,0-4.8-0.9-6.6-2.8c-1.8-1.9-2.7-4.5-2.7-8
		c0-3.4,0.9-6.1,2.7-8.2c1.8-2.1,4.2-3.1,7.2-3.1C194.8,9,196.3,9.4,197.7,10.1z M199,18.3c-0.1-1.5-0.5-2.7-1-3.7
		c-1-1.7-2.6-2.5-4.8-2.5c-1.6,0-3,0.6-4.1,1.7c-1.1,1.2-1.7,2.6-1.7,4.4H199z"/>
	<path class="st0" d="M221.1,10.6c1.5,1.1,2.4,3.1,2.7,5.9h-3.5c-0.2-1.3-0.7-2.4-1.4-3.2c-0.8-0.9-2-1.3-3.6-1.3
		c-2.3,0-3.9,1.1-4.9,3.3c-0.6,1.4-0.9,3.2-0.9,5.2c0,2.1,0.4,3.9,1.3,5.3c0.9,1.4,2.3,2.1,4.2,2.1c1.5,0,2.6-0.4,3.5-1.3
		c0.9-0.9,1.5-2.1,1.8-3.6h3.5c-0.4,2.8-1.4,4.8-3,6.1s-3.6,1.9-6.1,1.9c-2.8,0-5-1-6.6-3c-1.6-2-2.5-4.5-2.5-7.5
		c0-3.7,0.9-6.5,2.7-8.6s4.1-3.1,6.9-3.1C217.6,8.9,219.6,9.5,221.1,10.6z"/>
	<path class="st0" d="M240.4,10.1c1.4,0.7,2.5,1.6,3.2,2.7c0.7,1.1,1.2,2.3,1.4,3.7c0.2,1,0.3,2.5,0.3,4.6h-15.4
		c0.1,2.1,0.6,3.8,1.5,5.1s2.4,1.9,4.4,1.9c1.8,0,3.3-0.6,4.4-1.8c0.6-0.7,1-1.5,1.3-2.5h3.5c-0.1,0.8-0.4,1.6-0.9,2.6
		s-1.1,1.7-1.7,2.3c-1.1,1-2.4,1.7-4,2.1c-0.8,0.2-1.8,0.3-2.9,0.3c-2.6,0-4.8-0.9-6.6-2.8c-1.8-1.9-2.7-4.5-2.7-8
		c0-3.4,0.9-6.1,2.7-8.2c1.8-2.1,4.2-3.1,7.2-3.1C237.5,9,239,9.4,240.4,10.1z M241.6,18.3c-0.1-1.5-0.5-2.7-1-3.7
		c-1-1.7-2.6-2.5-4.8-2.5c-1.6,0-3,0.6-4.1,1.7c-1.1,1.2-1.7,2.6-1.7,4.4H241.6z"/>
	<path class="st0" d="M249.8,9.5h3.4v3c1-1.2,2.1-2.1,3.2-2.6c1.1-0.5,2.4-0.8,3.7-0.8c3,0,5,1,6.1,3.1c0.6,1.1,0.9,2.8,0.9,4.9
		v13.4h-3.6V17.2c0-1.3-0.2-2.3-0.6-3.1c-0.6-1.3-1.8-2-3.4-2c-0.8,0-1.5,0.1-2.1,0.3c-1,0.3-1.8,0.9-2.6,1.7
		c-0.6,0.7-1,1.4-1.2,2.1s-0.3,1.8-0.3,3.2v11h-3.6V9.5z"/>
	<path class="st0" d="M272.9,3.7h3.6v5.8h3.4v2.9h-3.4V26c0,0.7,0.2,1.2,0.8,1.5c0.3,0.1,0.7,0.2,1.4,0.2c0.2,0,0.4,0,0.6,0
		s0.4,0,0.7-0.1v2.8c-0.4,0.1-0.8,0.2-1.3,0.3s-0.9,0.1-1.4,0.1c-1.7,0-2.8-0.4-3.4-1.3s-0.9-1.9-0.9-3.3V12.4h-2.9V9.5h2.9V3.7z"/>
	<path class="st0" d="M283.6,9.5h3.4v3.6c0.3-0.7,1-1.6,2-2.6s2.3-1.5,3.7-1.5c0.1,0,0.2,0,0.3,0c0.2,0,0.4,0,0.8,0.1v3.7
		c-0.2,0-0.4-0.1-0.6-0.1s-0.4,0-0.6,0c-1.8,0-3.2,0.6-4.1,1.7s-1.4,2.5-1.4,3.9v12h-3.6V9.5z"/>
	<path class="st0" d="M308.2,17.8c0.8-0.1,1.4-0.4,1.6-1c0.2-0.3,0.2-0.8,0.2-1.4c0-1.2-0.4-2.1-1.3-2.6c-0.9-0.5-2.1-0.8-3.7-0.8
		c-1.9,0-3.2,0.5-3.9,1.5c-0.4,0.5-0.7,1.4-0.8,2.5H297c0.1-2.6,0.9-4.4,2.5-5.4c1.6-1,3.5-1.5,5.6-1.5c2.5,0,4.5,0.5,6,1.4
		c1.5,0.9,2.3,2.4,2.3,4.4v12.1c0,0.4,0.1,0.7,0.2,0.9c0.2,0.2,0.5,0.3,1,0.3c0.2,0,0.3,0,0.5,0s0.4,0,0.6-0.1v2.6
		c-0.6,0.2-1,0.3-1.3,0.3s-0.7,0.1-1.2,0.1c-1.2,0-2.1-0.4-2.7-1.3c-0.3-0.5-0.5-1.1-0.6-1.9c-0.7,0.9-1.8,1.8-3.1,2.4
		c-1.4,0.7-2.8,1-4.5,1c-2,0-3.6-0.6-4.8-1.8c-1.2-1.2-1.9-2.6-1.9-4.4c0-1.9,0.6-3.4,1.8-4.5s2.8-1.7,4.8-2L308.2,17.8z
		 M300.8,27.3c0.8,0.6,1.6,0.9,2.7,0.9c1.2,0,2.5-0.3,3.6-0.9c2-0.9,3-2.5,3-4.7v-2.8c-0.4,0.3-1,0.5-1.7,0.7
		c-0.7,0.2-1.4,0.3-2,0.4l-2.1,0.3c-1.3,0.2-2.3,0.4-2.9,0.8c-1.1,0.6-1.6,1.6-1.6,2.9C299.6,25.9,300,26.7,300.8,27.3z"/>
	<path class="st0" d="M319.5,1.7h3.6v28.7h-3.6V1.7z"/>
	<path class="st0" d="M346.3,1.7h4.4l10.5,28.7H357l-3-8.6h-11.4l-3.1,8.6h-4L346.3,1.7z M352.8,18.7L348.4,6l-4.6,12.7H352.8z"/>
	<path class="st0" d="M365.3,1.7h13.2c2.2,0,4,0.3,5.4,1c2.7,1.2,4,3.5,4,6.8c0,1.7-0.4,3.1-1.1,4.2s-1.7,2-3,2.6
		c1.1,0.5,2,1.1,2.6,1.8s0.9,1.9,1,3.6l0.1,3.8c0,1.1,0.1,1.9,0.3,2.4c0.2,0.9,0.7,1.5,1.3,1.8v0.6h-4.8c-0.1-0.2-0.2-0.6-0.3-1
		s-0.1-1.1-0.2-2.3l-0.2-4.8c-0.1-1.9-0.8-3.1-2-3.8c-0.7-0.4-1.9-0.5-3.4-0.5h-8.7v12.3h-3.9V1.7z M378,14.9c1.8,0,3.2-0.4,4.2-1.1
		s1.6-2,1.6-3.9c0-2-0.7-3.4-2.2-4.2c-0.8-0.4-1.8-0.6-3.1-0.6h-9.3v9.8H378z"/>
	<path class="st0" d="M407.1,1.7l5.5,23.3l6.5-23.3h4.2l6.6,23.4l5.5-23.4h4.3l-7.6,28.7H428l-6.7-23.8l-6.7,23.8h-4.1l-7.6-28.7
		H407.1z"/>
	<path class="st0" d="M457.5,11.6c1.9,1.8,2.8,4.4,2.8,7.9c0,3.4-0.8,6.2-2.5,8.4c-1.6,2.2-4.2,3.3-7.7,3.3c-2.9,0-5.2-1-6.9-2.9
		c-1.7-1.9-2.5-4.6-2.5-7.8c0-3.5,0.9-6.3,2.7-8.4c1.8-2.1,4.2-3.1,7.2-3.1C453.3,8.9,455.6,9.8,457.5,11.6z M455.2,25.5
		c0.9-1.8,1.3-3.7,1.3-5.9c0-2-0.3-3.5-0.9-4.8c-1-1.9-2.7-2.9-5.1-2.9c-2.1,0-3.7,0.8-4.7,2.5c-1,1.6-1.5,3.6-1.5,5.9
		c0,2.2,0.5,4.1,1.5,5.6c1,1.5,2.5,2.2,4.6,2.2C452.8,28.1,454.4,27.2,455.2,25.5z"/>
	<path class="st0" d="M464.7,9.5h3.4v3.6c0.3-0.7,1-1.6,2-2.6s2.3-1.5,3.7-1.5c0.1,0,0.2,0,0.3,0c0.2,0,0.4,0,0.8,0.1v3.7
		c-0.2,0-0.4-0.1-0.6-0.1s-0.4,0-0.6,0c-1.8,0-3.2,0.6-4.1,1.7s-1.4,2.5-1.4,3.9v12h-3.6V9.5z"/>
	<path class="st0" d="M478.2,1.7h3.6v28.7h-3.6V1.7z"/>
	<path class="st0" d="M498.6,10.1c0.6,0.4,1.3,1.1,2.1,2.1V1.6h3.4v28.8H501v-2.9c-0.8,1.3-1.8,2.2-2.9,2.8
		c-1.1,0.6-2.4,0.9-3.9,0.9c-2.3,0-4.4-1-6.1-2.9c-1.7-2-2.6-4.6-2.6-7.8c0-3,0.8-5.7,2.3-7.9s3.8-3.3,6.7-3.3
		C496.2,9.1,497.6,9.5,498.6,10.1z M490.7,25.8c1,1.5,2.5,2.3,4.6,2.3c1.6,0,3-0.7,4-2.1c1.1-1.4,1.6-3.4,1.6-6
		c0-2.6-0.5-4.6-1.6-5.9s-2.4-1.9-4-1.9c-1.8,0-3.2,0.7-4.3,2s-1.7,3.3-1.7,6C489.3,22.4,489.8,24.3,490.7,25.8z"/>
</g>
</svg>
