<?xml version="1.0" encoding="utf-8"?>
<!-- Generator: Adobe Illustrator 20.0.0, SVG Export Plug-In . SVG Version: 6.00 Build 0)  -->
<svg version="1.1" id="레이어_1" xmlns="http://www.w3.org/2000/svg" xmlns:xlink="http://www.w3.org/1999/xlink" x="0px"
	 y="0px" viewBox="0 0 219.7 37.9" style="enable-background:new 0 0 219.7 37.9;" xml:space="preserve">
<style type="text/css">
	.st0{fill:url(#SVGID_1_);}
	.st1{fill:url(#SVGID_2_);}
	.st2{fill:url(#SVGID_3_);}
	.st3{fill:url(#SVGID_4_);}
	.st4{fill:url(#SVGID_5_);}
	.st5{fill:url(#SVGID_6_);}
</style>
<g>
	<linearGradient id="SVGID_1_" gradientUnits="userSpaceOnUse" x1="-37.0076" y1="18.6111" x2="243.1214" y2="18.6111">
		<stop  offset="0" style="stop-color:#00D1FF"/>
		<stop  offset="6.264919e-02" style="stop-color:#00DDFD"/>
		<stop  offset="0.1922" style="stop-color:#00F0F9"/>
		<stop  offset="0.3255" style="stop-color:#00FBF7"/>
		<stop  offset="0.4677" style="stop-color:#00FFF6"/>
		<stop  offset="1" style="stop-color:#67FFDD"/>
	</linearGradient>
	<path class="st0" d="M1,25.4c2-1.2,3.7-2.2,5.1-3.2c1.4-0.9,2.6-1.8,3.5-2.5c0.9-0.8,1.7-1.5,2.2-2.1c0.5-0.7,0.9-1.3,1.2-2
		c0.3-0.7,0.4-1.4,0.5-2.1c0.1-0.7,0.1-1.5,0.1-2.5V7.6H1.7V4.4h15.6V11c0,1.2,0,2.2-0.1,3.1c-0.1,0.9-0.2,1.8-0.5,2.6
		c-0.3,0.8-0.7,1.6-1.3,2.4c-0.6,0.8-1.4,1.6-2.5,2.5c-1.1,0.9-2.4,1.9-4,3C7.2,25.8,5.3,27,3,28.4L1,25.4z M33.1,17.3h-5.4v18.8H24
		v-35h3.8v13h5.4V17.3z"/>
	<linearGradient id="SVGID_2_" gradientUnits="userSpaceOnUse" x1="-37.0076" y1="19.1052" x2="243.1214" y2="19.1052">
		<stop  offset="0" style="stop-color:#00D1FF"/>
		<stop  offset="6.264919e-02" style="stop-color:#00DDFD"/>
		<stop  offset="0.1922" style="stop-color:#00F0F9"/>
		<stop  offset="0.3255" style="stop-color:#00FBF7"/>
		<stop  offset="0.4677" style="stop-color:#00FFF6"/>
		<stop  offset="1" style="stop-color:#67FFDD"/>
	</linearGradient>
	<path class="st1" d="M44.7,13.2c-0.1,0.3-0.4,0.8-0.9,1.4c-0.5,0.6-1.1,1.1-1.6,1.7c-0.8,0.7-1.7,1.5-2.7,2.4
		c-1,0.9-2.1,1.7-3.1,2.5l-2.2-2.7c1.2-0.9,2.4-1.9,3.5-2.8c1.1-0.9,2-1.7,2.6-2.4c0.5-0.5,0.9-0.9,1.2-1.4s0.6-0.9,0.8-1.4
		c0.2-0.5,0.3-1,0.4-1.5c0.1-0.5,0.1-1.1,0.1-1.8V2.7h3.8v4.4c0,0.6,0,1.1,0.1,1.6c0,0.5,0.1,0.9,0.2,1.3c0.1,0.4,0.3,0.8,0.6,1.2
		s0.6,0.8,1.1,1.2c0.9,0.8,1.9,1.6,2.9,2.5s2.1,1.7,3.3,2.5L52.4,20c-1-0.7-1.9-1.5-2.8-2.2c-0.9-0.7-1.8-1.5-2.7-2.3
		c-0.6-0.5-1.1-0.9-1.4-1.3C45.1,13.8,44.8,13.5,44.7,13.2L44.7,13.2z M41.1,28.9c0-0.9,0.2-1.8,0.7-2.6c0.5-0.8,1.2-1.5,2.1-2.1
		c0.9-0.6,2-1.1,3.3-1.4c1.3-0.4,2.8-0.5,4.4-0.5c1.6,0,3.1,0.2,4.4,0.5c1.3,0.4,2.4,0.8,3.3,1.4c0.9,0.6,1.6,1.3,2.1,2.1
		c0.5,0.8,0.7,1.7,0.7,2.6v1.5c0,0.9-0.2,1.8-0.7,2.6c-0.5,0.8-1.2,1.5-2.1,2.1s-2,1.1-3.3,1.4c-1.3,0.4-2.8,0.5-4.4,0.5
		c-1.6,0-3.1-0.2-4.4-0.5c-1.3-0.4-2.4-0.8-3.3-1.4s-1.6-1.3-2.1-2.1c-0.5-0.8-0.7-1.7-0.7-2.6V28.9z M58.5,29.1
		c0-0.5-0.2-0.9-0.5-1.4c-0.3-0.5-0.8-0.9-1.4-1.2c-0.6-0.4-1.3-0.6-2.2-0.9c-0.8-0.2-1.8-0.3-2.9-0.3s-2,0.1-2.9,0.3
		c-0.8,0.2-1.6,0.5-2.2,0.9s-1.1,0.8-1.4,1.2c-0.3,0.5-0.5,0.9-0.5,1.4v1.1c0,0.5,0.2,0.9,0.5,1.4c0.3,0.5,0.8,0.9,1.4,1.2
		c0.6,0.4,1.3,0.6,2.2,0.9c0.8,0.2,1.8,0.3,2.9,0.3s2-0.1,2.9-0.3c0.8-0.2,1.6-0.5,2.2-0.9c0.6-0.4,1.1-0.8,1.4-1.2
		c0.3-0.5,0.5-0.9,0.5-1.4V29.1z M67,12.8h-5v8.9h-3.7V1.1H62v8.5h5V12.8z"/>
	<linearGradient id="SVGID_3_" gradientUnits="userSpaceOnUse" x1="-37.0076" y1="18.2493" x2="243.1214" y2="18.2493">
		<stop  offset="0" style="stop-color:#00D1FF"/>
		<stop  offset="6.264919e-02" style="stop-color:#00DDFD"/>
		<stop  offset="0.1922" style="stop-color:#00F0F9"/>
		<stop  offset="0.3255" style="stop-color:#00FBF7"/>
		<stop  offset="0.4677" style="stop-color:#00FFF6"/>
		<stop  offset="1" style="stop-color:#67FFDD"/>
	</linearGradient>
	<path class="st2" d="M98.4,8.2H78.1V5h8.1V0.8H90V5h8.4V8.2z M88.1,23.6c-1.4,0-2.6-0.2-3.6-0.6c-1-0.4-1.9-0.9-2.5-1.5
		c-0.7-0.6-1.2-1.3-1.5-2.1c-0.3-0.8-0.5-1.6-0.5-2.4V16c0-0.8,0.2-1.6,0.5-2.4c0.3-0.8,0.8-1.5,1.5-2.1c0.7-0.6,1.5-1.1,2.5-1.4
		c1-0.4,2.2-0.6,3.6-0.6c1.4,0,2.6,0.2,3.6,0.6c1,0.4,1.9,0.9,2.5,1.5c0.7,0.6,1.2,1.3,1.5,2.1c0.3,0.8,0.5,1.6,0.5,2.4v1.1
		c0,0.8-0.2,1.6-0.5,2.4c-0.3,0.8-0.8,1.5-1.5,2.1c-0.7,0.6-1.5,1.1-2.5,1.5C90.7,23.4,89.5,23.6,88.1,23.6z M88.1,20.5
		c0.8,0,1.4-0.1,2-0.3c0.6-0.2,1-0.5,1.4-0.8c0.4-0.3,0.7-0.7,0.9-1.2s0.3-0.9,0.3-1.3v-0.8c0-0.5-0.1-0.9-0.3-1.3
		c-0.2-0.4-0.5-0.8-0.8-1.2c-0.4-0.3-0.9-0.6-1.4-0.8s-1.2-0.3-2-0.3s-1.5,0.1-2,0.3s-1,0.5-1.4,0.8c-0.4,0.3-0.7,0.7-0.8,1.2
		c-0.2,0.4-0.3,0.9-0.3,1.3v0.8c0,0.5,0.1,0.9,0.3,1.3s0.5,0.8,0.9,1.2c0.4,0.3,0.9,0.6,1.4,0.8C86.7,20.4,87.4,20.5,88.1,20.5z
		 M88.9,32.5h18.8v3.3H85.2v-9.7h3.8V32.5z M103.4,26.5v-5.9h-5.1v-3.2h5.1v-4.2h-5.1V9.9h5.1V1.1h3.7v25.4H103.4z"/>
	<linearGradient id="SVGID_4_" gradientUnits="userSpaceOnUse" x1="-37.0076" y1="18.7249" x2="243.1214" y2="18.7249">
		<stop  offset="0" style="stop-color:#00D1FF"/>
		<stop  offset="6.264919e-02" style="stop-color:#00DDFD"/>
		<stop  offset="0.1922" style="stop-color:#00F0F9"/>
		<stop  offset="0.3255" style="stop-color:#00FBF7"/>
		<stop  offset="0.4677" style="stop-color:#00FFF6"/>
		<stop  offset="1" style="stop-color:#67FFDD"/>
	</linearGradient>
	<path class="st3" d="M122.9,11.6c-0.1,0.3-0.3,0.7-0.8,1.2c-0.5,0.5-1,1.1-1.7,1.7c-0.8,0.7-1.8,1.5-2.8,2.4
		c-1.1,0.9-2.1,1.7-3.2,2.4l-2.2-2.7c1.2-0.9,2.4-1.8,3.5-2.7c1.1-0.9,2.1-1.7,2.7-2.3c0.9-0.9,1.6-1.7,1.9-2.6
		c0.4-0.8,0.5-1.9,0.5-3.3V2h3.8v3.7c0,0.6,0,1.1,0.1,1.6c0,0.5,0.1,0.9,0.3,1.3s0.3,0.8,0.6,1.1c0.3,0.4,0.6,0.7,1,1.1
		c0.9,0.8,1.9,1.6,2.9,2.4c1.1,0.8,2.2,1.5,3.2,2.3l-2.2,2.7c-1-0.7-1.9-1.4-2.9-2.1s-1.8-1.4-2.7-2.2c-0.5-0.4-1-0.9-1.4-1.3
		S123.1,11.9,122.9,11.6L122.9,11.6z M119.2,36.4v-9.6h18v-3.4H119v-3.1h21.9v9.5h-18v3.4h19v3.1H119.2z M137.2,18.5V1.1h3.7v17.4
		H137.2z"/>
	<linearGradient id="SVGID_5_" gradientUnits="userSpaceOnUse" x1="-37.0076" y1="17.7561" x2="243.1214" y2="17.7561">
		<stop  offset="0" style="stop-color:#00D1FF"/>
		<stop  offset="6.264919e-02" style="stop-color:#00DDFD"/>
		<stop  offset="0.1922" style="stop-color:#00F0F9"/>
		<stop  offset="0.3255" style="stop-color:#00FBF7"/>
		<stop  offset="0.4677" style="stop-color:#00FFF6"/>
		<stop  offset="1" style="stop-color:#67FFDD"/>
	</linearGradient>
	<path class="st4" d="M187.5,28.3v3.2h-32.1v-3.2h11.6v-8.1h3.8v8.1H187.5z M182.9,4.1v5c0,1.8,0,3.4-0.1,4.8
		c-0.1,1.4-0.1,2.7-0.2,3.9c-0.1,1.2-0.2,2.3-0.4,3.4s-0.3,2.1-0.6,3.2l-3.8-0.5c0.3-1.4,0.5-2.7,0.7-4c0.2-1.3,0.3-2.6,0.4-3.9
		l-20,0.3l-0.1-3.2l20.3-0.2c0-0.4,0-0.9,0-1.3s0-0.9,0-1.4V7.3h-19.7V4.1H182.9z"/>
	<linearGradient id="SVGID_6_" gradientUnits="userSpaceOnUse" x1="-37.0076" y1="18.4207" x2="243.1214" y2="18.4207">
		<stop  offset="0" style="stop-color:#00D1FF"/>
		<stop  offset="6.264919e-02" style="stop-color:#00DDFD"/>
		<stop  offset="0.1922" style="stop-color:#00F0F9"/>
		<stop  offset="0.3255" style="stop-color:#00FBF7"/>
		<stop  offset="0.4677" style="stop-color:#00FFF6"/>
		<stop  offset="1" style="stop-color:#67FFDD"/>
	</linearGradient>
	<path class="st5" d="M191,10.5c0-0.9,0.2-1.8,0.5-2.7c0.4-1,0.9-1.8,1.6-2.6c0.7-0.8,1.6-1.4,2.7-1.9s2.4-0.8,3.9-0.8
		c1.5,0,2.8,0.3,3.9,0.8s2,1.2,2.8,1.9c0.7,0.8,1.3,1.7,1.6,2.6s0.5,1.9,0.5,2.7v2c0,0.9-0.2,1.8-0.5,2.7c-0.4,1-0.9,1.8-1.6,2.6
		c-0.7,0.8-1.7,1.4-2.8,1.9c-1.1,0.5-2.4,0.8-3.9,0.8c-1.5,0-2.8-0.3-3.9-0.8c-1.1-0.5-2-1.2-2.7-1.9c-0.7-0.8-1.3-1.7-1.6-2.6
		c-0.4-0.9-0.5-1.9-0.5-2.7V10.5z M204.9,10.7c0-0.6-0.1-1.2-0.3-1.7c-0.2-0.6-0.5-1.1-0.9-1.6s-1-0.8-1.6-1.1
		c-0.6-0.3-1.4-0.4-2.3-0.4c-0.9,0-1.7,0.1-2.4,0.4c-0.7,0.3-1.2,0.7-1.6,1.1s-0.7,1-0.9,1.6c-0.2,0.6-0.3,1.2-0.3,1.7v1.7
		c0,0.6,0.1,1.2,0.3,1.7c0.2,0.6,0.5,1.1,0.9,1.6s1,0.8,1.6,1.1c0.6,0.3,1.4,0.4,2.3,0.4c0.9,0,1.7-0.1,2.3-0.4
		c0.6-0.3,1.2-0.7,1.6-1.1s0.7-1,0.9-1.6c0.2-0.6,0.3-1.2,0.3-1.7V10.7z M200.4,32.5h18.8v3.3h-22.6V24.1h3.8V32.5z M214.8,26.1v-25
		h3.7v25H214.8z"/>
</g>
</svg>
