<?xml version="1.0" encoding="utf-8"?>
<!-- Generator: Adobe Illustrator 20.0.0, SVG Export Plug-In . SVG Version: 6.00 Build 0)  -->
<svg version="1.1" id="Application_xA0_이미지_1_"
	 xmlns="http://www.w3.org/2000/svg" xmlns:xlink="http://www.w3.org/1999/xlink" x="0px" y="0px" viewBox="0 0 133.4 39.7"
	 style="enable-background:new 0 0 133.4 39.7;" xml:space="preserve">
<style type="text/css">
	.st0{fill:#FFFFFF;}
</style>
<g>
	<path class="st0" d="M22.5,6.9H7.2V13h14v5h-14v7.4h15.9v5.2H1.4V1.8h21.1V6.9z"/>
	<path class="st0" d="M44.6,10.5c1.4,1.2,2.1,3.1,2.1,5.7v14.3H41V17.6c0-1.1-0.1-2-0.4-2.6c-0.5-1.1-1.6-1.6-3.1-1.6
		c-1.9,0-3.2,0.8-3.9,2.4C33.2,16.7,33,17.7,33,19v11.5h-5.6V9.3h5.4v3.1c0.7-1.1,1.4-1.9,2-2.4c1.1-0.9,2.6-1.3,4.3-1.3
		C41.4,8.8,43.2,9.4,44.6,10.5z"/>
	<path class="st0" d="M62.4,9.3c1.4,0.6,2.4,1.6,3.3,3.1V9.3h5.4v20.2c0,2.7-0.5,4.8-1.4,6.2c-1.6,2.4-4.6,3.6-9.1,3.6
		c-2.7,0-4.9-0.5-6.7-1.6s-2.7-2.7-2.9-4.8h6.1c0.2,0.7,0.4,1.1,0.8,1.4c0.6,0.5,1.6,0.8,3,0.8c2,0,3.3-0.7,4-2
		c0.4-0.9,0.7-2.3,0.7-4.3v-1.4c-0.5,0.9-1.1,1.6-1.7,2.1c-1.1,0.8-2.5,1.3-4.3,1.3c-2.7,0-4.9-1-6.6-2.9s-2.5-4.5-2.5-7.8
		c0-3.2,0.8-5.8,2.4-8s3.8-3.2,6.7-3.2C60.7,8.8,61.6,8.9,62.4,9.3z M64.3,24.5c0.9-1,1.3-2.5,1.3-4.7c0-2-0.4-3.6-1.3-4.6
		c-0.8-1.1-2-1.6-3.4-1.6c-1.9,0-3.3,0.9-4,2.8c-0.4,1-0.6,2.2-0.6,3.6c0,1.2,0.2,2.3,0.6,3.3c0.8,1.8,2.1,2.7,4,2.7
		C62.3,26,63.4,25.5,64.3,24.5z"/>
	<path class="st0" d="M82,6.7h-5.6V1.6H82V6.7z M76.4,9.3H82v21.3h-5.6V9.3z"/>
	<path class="st0" d="M104.6,10.5c1.4,1.2,2.1,3.1,2.1,5.7v14.3H101V17.6c0-1.1-0.1-2-0.4-2.6c-0.5-1.1-1.6-1.6-3.1-1.6
		c-1.9,0-3.2,0.8-3.9,2.4C93.2,16.7,93,17.7,93,19v11.5h-5.6V9.3h5.4v3.1c0.7-1.1,1.4-1.9,2-2.4c1.1-0.9,2.6-1.3,4.3-1.3
		C101.4,8.8,103.2,9.4,104.6,10.5z"/>
	<path class="st0" d="M125.7,9.7c1.5,0.7,2.7,1.7,3.7,3.1c0.9,1.3,1.4,2.7,1.7,4.4c0.1,1,0.2,2.4,0.2,4.2h-15.5
		c0.1,2.1,0.8,3.6,2.2,4.5c0.8,0.5,1.9,0.8,3.1,0.8c1.3,0,2.3-0.3,3.1-1c0.4-0.4,0.8-0.8,1.1-1.5h5.7c-0.1,1.3-0.8,2.5-2.1,3.8
		c-1.9,2.1-4.6,3.1-8,3.1c-2.8,0-5.3-0.9-7.5-2.6c-2.2-1.7-3.2-4.6-3.2-8.5c0-3.7,1-6.5,2.9-8.5s4.5-3,7.6-3
		C122.6,8.7,124.2,9.1,125.7,9.7z M117.4,14.5c-0.8,0.8-1.3,1.9-1.5,3.3h9.6c-0.1-1.5-0.6-2.6-1.5-3.4c-0.9-0.8-2-1.1-3.3-1.1
		C119.3,13.3,118.2,13.7,117.4,14.5z"/>
</g>
</svg>
