<?xml version="1.0" encoding="utf-8"?>
<!-- Generator: Adobe Illustrator 20.0.0, SVG Export Plug-In . SVG Version: 6.00 Build 0)  -->
<svg version="1.1" id="레이어_1" xmlns="http://www.w3.org/2000/svg" xmlns:xlink="http://www.w3.org/1999/xlink" x="0px"
	 y="0px" viewBox="0 0 169 120.7" style="enable-background:new 0 0 169 120.7;" xml:space="preserve">
<style type="text/css">
	.st0{fill:#2A2E2F;}
</style>
<g>
	<path class="st0" d="M18,1.1c2,0.7,3.7,1.9,4.9,3.7c1,1.4,1.7,3,2.1,4.6c0.4,1.7,0.5,3.3,0.5,4.8c0,3.8-0.8,7.1-2.3,9.7
		c-2.1,3.6-5.3,5.4-9.7,5.4H1.2V0.4h12.4C15.4,0.5,16.8,0.7,18,1.1z M7,5.4v18.8h5.6c2.8,0,4.8-1.4,5.9-4.2c0.6-1.5,0.9-3.4,0.9-5.5
		c0-2.9-0.5-5.2-1.4-6.7c-0.9-1.6-2.7-2.4-5.5-2.4H7z"/>
	<path class="st0" d="M49.4,16.8c-1.7,1.4-4.1,2.1-7.2,2.1h-6v10.4h-6V0.4h12.4c2.8,0,5.1,0.7,6.8,2.2c1.7,1.5,2.5,3.8,2.5,6.9
		C51.9,12.9,51.1,15.3,49.4,16.8z M44.8,6.4c-0.8-0.6-1.8-1-3.2-1h-5.4v8.5h5.4c1.4,0,2.4-0.3,3.2-1s1.1-1.8,1.1-3.3
		S45.5,7,44.8,6.4z"/>
	<path class="st0" d="M78.9,26.7c-2.2,2.2-5.3,3.4-9.4,3.4s-7.3-1.1-9.4-3.4c-2.9-2.7-4.4-6.7-4.4-11.9c0-5.3,1.5-9.2,4.4-11.9
		c2.2-2.2,5.3-3.4,9.4-3.4s7.3,1.1,9.4,3.4c2.9,2.6,4.4,6.6,4.4,11.9C83.3,20,81.8,23.9,78.9,26.7z M75.1,22.3
		c1.4-1.8,2.1-4.3,2.1-7.5c0-3.2-0.7-5.7-2.1-7.5s-3.3-2.6-5.7-2.6s-4.3,0.9-5.7,2.6s-2.1,4.3-2.1,7.5s0.7,5.7,2.1,7.5
		s3.3,2.6,5.7,2.6S73.7,24,75.1,22.3z"/>
	<path class="st0" d="M96.1,0.4h6.8l10.2,28.8h-6.5l-1.9-5.9H94l-2,5.9h-6.3L96.1,0.4z M95.7,18.3h7.4L99.4,7L95.7,18.3z"/>
	<path class="st0" d="M135.2,1.2c1.1,0.5,2,1.1,2.7,2c0.6,0.7,1.1,1.5,1.4,2.4s0.5,1.9,0.5,3c0,1.4-0.3,2.7-1,4s-1.8,2.3-3.4,2.8
		c1.3,0.5,2.3,1.3,2.8,2.3s0.8,2.5,0.8,4.5v1.9c0,1.3,0.1,2.2,0.2,2.7c0.2,0.7,0.5,1.3,1.1,1.6v0.7h-6.6c-0.2-0.6-0.3-1.2-0.4-1.5
		c-0.2-0.8-0.2-1.6-0.3-2.5l0-2.7c0-1.8-0.3-3.1-1-3.7c-0.6-0.6-1.8-0.9-3.4-0.9h-5.9v11.3h-5.9V0.4h13.8
		C132.6,0.5,134.1,0.7,135.2,1.2z M122.7,5.4v7.7h6.5c1.3,0,2.3-0.2,2.9-0.5c1.1-0.5,1.7-1.6,1.7-3.2c0-1.7-0.6-2.9-1.7-3.5
		c-0.6-0.3-1.5-0.5-2.8-0.5H122.7z"/>
	<path class="st0" d="M166.9,5.5h-15.2v6.1h14v5h-14V24h15.9v5.2h-21.8V0.4h21.1V5.5z"/>
</g>
<g>
	<g>
		<path class="st0" d="M5.9,53.3c1.6,0,2.9,0.4,3.8,1.3s1.3,2.1,1.3,3.8c0,0.9-0.1,1.7-0.3,2.4c-0.2,0.7-0.5,1.3-0.9,1.8
			c-0.4,0.5-1,0.8-1.6,1.1s-1.4,0.4-2.3,0.4H2.2V53.3H5.9z M6,62.9c0.2,0,0.4,0,0.6,0c0.2,0,0.5-0.1,0.8-0.2
			c0.3-0.1,0.5-0.2,0.8-0.4s0.5-0.4,0.7-0.7c0.2-0.3,0.4-0.7,0.5-1.2c0.1-0.5,0.2-1,0.2-1.7c0-0.6-0.1-1.2-0.2-1.7
			c-0.1-0.5-0.3-0.9-0.6-1.3c-0.3-0.4-0.7-0.6-1.1-0.8c-0.5-0.2-1-0.3-1.7-0.3H3.6v8.3H6z"/>
		<path class="st0" d="M18,63.6c-0.6,0.4-1.3,0.7-2.2,0.7c-0.6,0-1.2-0.1-1.6-0.3c-0.5-0.2-0.8-0.5-1.1-0.8
			c-0.3-0.4-0.5-0.8-0.7-1.3c-0.2-0.5-0.2-1-0.3-1.6c0-0.6,0.1-1.1,0.3-1.6c0.2-0.5,0.4-0.9,0.8-1.3s0.7-0.6,1.2-0.8
			c0.4-0.2,0.9-0.3,1.5-0.3c0.7,0,1.3,0.1,1.7,0.4s0.8,0.6,1.1,1.1c0.3,0.4,0.5,0.9,0.6,1.4c0.1,0.5,0.1,1,0.1,1.5h-5.8
			c0,0.3,0,0.7,0.1,1c0.1,0.3,0.2,0.6,0.4,0.8c0.2,0.2,0.5,0.4,0.8,0.6c0.3,0.1,0.7,0.2,1.1,0.2c0.5,0,1-0.1,1.3-0.4
			c0.3-0.2,0.6-0.6,0.7-1.1h1.3C19,62.5,18.6,63.1,18,63.6z M17.7,58.6c-0.1-0.3-0.3-0.5-0.5-0.7c-0.2-0.2-0.4-0.3-0.7-0.5
			c-0.3-0.1-0.6-0.2-0.9-0.2c-0.3,0-0.6,0.1-0.9,0.2c-0.3,0.1-0.5,0.3-0.7,0.5c-0.2,0.2-0.3,0.4-0.5,0.7c-0.1,0.3-0.2,0.5-0.2,0.8
			h4.5C17.9,59.1,17.9,58.8,17.7,58.6z"/>
		<path class="st0" d="M22,53.3v10.7h-1.3V53.3H22z"/>
		<path class="st0" d="M29.4,63.6c-0.6,0.4-1.3,0.7-2.2,0.7c-0.6,0-1.2-0.1-1.6-0.3c-0.5-0.2-0.8-0.5-1.1-0.8
			c-0.3-0.4-0.5-0.8-0.7-1.3c-0.2-0.5-0.2-1-0.3-1.6c0-0.6,0.1-1.1,0.3-1.6c0.2-0.5,0.4-0.9,0.8-1.3s0.7-0.6,1.2-0.8
			c0.4-0.2,0.9-0.3,1.5-0.3c0.7,0,1.3,0.1,1.7,0.4s0.8,0.6,1.1,1.1c0.3,0.4,0.5,0.9,0.6,1.4c0.1,0.5,0.1,1,0.1,1.5h-5.8
			c0,0.3,0,0.7,0.1,1c0.1,0.3,0.2,0.6,0.4,0.8c0.2,0.2,0.5,0.4,0.8,0.6c0.3,0.1,0.7,0.2,1.1,0.2c0.5,0,1-0.1,1.3-0.4
			c0.3-0.2,0.6-0.6,0.7-1.1h1.3C30.4,62.5,30,63.1,29.4,63.6z M29.1,58.6c-0.1-0.3-0.3-0.5-0.5-0.7c-0.2-0.2-0.4-0.3-0.7-0.5
			c-0.3-0.1-0.6-0.2-0.9-0.2c-0.3,0-0.6,0.1-0.9,0.2c-0.3,0.1-0.5,0.3-0.7,0.5c-0.2,0.2-0.3,0.4-0.5,0.7c-0.1,0.3-0.2,0.5-0.2,0.8
			h4.5C29.3,59.1,29.2,58.8,29.1,58.6z"/>
		<path class="st0" d="M37.8,66.2c-0.6,0.6-1.5,0.9-2.7,0.9c-0.4,0-0.7,0-1.1-0.1s-0.7-0.2-1-0.4c-0.3-0.2-0.6-0.4-0.8-0.7
			s-0.3-0.6-0.3-1.1h1.3c0,0.2,0.1,0.4,0.2,0.6c0.1,0.2,0.3,0.3,0.5,0.4c0.2,0.1,0.4,0.2,0.6,0.2s0.5,0.1,0.7,0.1
			c0.4,0,0.8-0.1,1.1-0.2c0.3-0.1,0.5-0.3,0.7-0.6c0.2-0.3,0.3-0.6,0.4-0.9s0.1-0.8,0.1-1.2v-0.5h0c-0.2,0.5-0.6,0.8-1,1.1
			C36,64,35.5,64.1,35,64.1c-0.6,0-1.1-0.1-1.5-0.3c-0.4-0.2-0.8-0.5-1.1-0.8c-0.3-0.4-0.5-0.8-0.7-1.2c-0.1-0.5-0.2-1-0.2-1.5
			c0-0.5,0.1-0.9,0.2-1.4c0.1-0.5,0.3-0.9,0.6-1.3c0.3-0.4,0.6-0.7,1.1-1s1-0.4,1.7-0.4c0.5,0,0.9,0.1,1.3,0.3s0.7,0.5,1,1h0v-1.1
			h1.2v7.1C38.7,64.7,38.4,65.6,37.8,66.2z M36.2,62.8c0.3-0.2,0.5-0.4,0.7-0.7c0.2-0.3,0.3-0.6,0.4-1s0.1-0.7,0.1-1.1
			c0-0.3,0-0.7-0.1-1s-0.2-0.6-0.4-0.9c-0.2-0.3-0.4-0.5-0.7-0.6c-0.3-0.2-0.6-0.2-1-0.2c-0.4,0-0.8,0.1-1,0.2s-0.5,0.4-0.7,0.6
			c-0.2,0.3-0.3,0.6-0.4,0.9s-0.1,0.7-0.1,1.1c0,0.4,0,0.7,0.1,1c0.1,0.4,0.2,0.7,0.4,1c0.2,0.3,0.4,0.5,0.7,0.7
			c0.3,0.2,0.6,0.3,1,0.3S35.9,62.9,36.2,62.8z"/>
		<path class="st0" d="M47.5,64c-0.2,0.1-0.5,0.2-0.9,0.2c-0.3,0-0.6-0.1-0.8-0.3c-0.2-0.2-0.3-0.5-0.3-0.9
			c-0.4,0.4-0.8,0.7-1.2,0.9c-0.5,0.2-1,0.3-1.5,0.3c-0.4,0-0.7,0-1-0.1c-0.3-0.1-0.6-0.2-0.8-0.4c-0.2-0.2-0.4-0.4-0.5-0.7
			c-0.1-0.3-0.2-0.6-0.2-1c0-0.4,0.1-0.8,0.2-1.1c0.2-0.3,0.3-0.5,0.6-0.7c0.2-0.2,0.5-0.3,0.8-0.4c0.3-0.1,0.6-0.2,1-0.2
			c0.3-0.1,0.7-0.1,1-0.2c0.3,0,0.6-0.1,0.8-0.2c0.2-0.1,0.4-0.2,0.6-0.3c0.1-0.1,0.2-0.3,0.2-0.5c0-0.3-0.1-0.5-0.2-0.7
			c-0.1-0.2-0.2-0.3-0.4-0.4s-0.4-0.2-0.6-0.2c-0.2,0-0.4,0-0.6,0c-0.5,0-1,0.1-1.3,0.3c-0.4,0.2-0.6,0.6-0.6,1.2h-1.3
			c0-0.5,0.1-0.9,0.3-1.2c0.2-0.3,0.4-0.6,0.7-0.8c0.3-0.2,0.6-0.4,1-0.4c0.4-0.1,0.8-0.1,1.2-0.1c0.3,0,0.7,0,1,0.1
			c0.3,0,0.7,0.2,0.9,0.3c0.3,0.2,0.5,0.4,0.7,0.7c0.2,0.3,0.3,0.6,0.3,1.1v4c0,0.3,0,0.5,0.1,0.7c0,0.1,0.2,0.2,0.4,0.2
			c0.1,0,0.2,0,0.4-0.1V64z M45.4,60c-0.2,0.1-0.4,0.2-0.6,0.3c-0.3,0.1-0.5,0.1-0.8,0.1s-0.6,0.1-0.9,0.1c-0.3,0-0.5,0.1-0.8,0.2
			s-0.4,0.2-0.6,0.4c-0.1,0.2-0.2,0.4-0.2,0.8c0,0.2,0,0.4,0.1,0.5s0.2,0.3,0.3,0.4c0.1,0.1,0.3,0.2,0.5,0.2c0.2,0,0.4,0.1,0.6,0.1
			c0.4,0,0.8-0.1,1.1-0.2s0.5-0.3,0.7-0.4c0.2-0.2,0.3-0.4,0.4-0.6s0.1-0.4,0.1-0.6V60z"/>
		<path class="st0" d="M52,56.3v1.1h-1.5v4.8c0,0.2,0,0.3,0,0.4c0,0.1,0.1,0.2,0.1,0.2c0.1,0,0.2,0.1,0.3,0.1s0.3,0,0.5,0H52v1.1h-1
			c-0.3,0-0.6,0-0.8-0.1c-0.2,0-0.4-0.1-0.6-0.2c-0.1-0.1-0.3-0.3-0.3-0.5c-0.1-0.2-0.1-0.5-0.1-0.9v-4.9h-1.3v-1.1h1.3V54h1.3v2.3
			H52z"/>
		<path class="st0" d="M58.9,63.6c-0.6,0.4-1.3,0.7-2.2,0.7c-0.6,0-1.2-0.1-1.6-0.3c-0.5-0.2-0.8-0.5-1.1-0.8
			c-0.3-0.4-0.5-0.8-0.7-1.3c-0.2-0.5-0.2-1-0.3-1.6c0-0.6,0.1-1.1,0.3-1.6c0.2-0.5,0.4-0.9,0.8-1.3s0.7-0.6,1.2-0.8
			c0.4-0.2,0.9-0.3,1.5-0.3c0.7,0,1.3,0.1,1.7,0.4s0.8,0.6,1.1,1.1c0.3,0.4,0.5,0.9,0.6,1.4c0.1,0.5,0.1,1,0.1,1.5h-5.8
			c0,0.3,0,0.7,0.1,1s0.2,0.6,0.4,0.8c0.2,0.2,0.5,0.4,0.8,0.6c0.3,0.1,0.7,0.2,1.1,0.2c0.5,0,1-0.1,1.3-0.4
			c0.3-0.2,0.6-0.6,0.7-1.1H60C59.8,62.5,59.5,63.1,58.9,63.6z M58.6,58.6c-0.1-0.3-0.3-0.5-0.5-0.7c-0.2-0.2-0.4-0.3-0.7-0.5
			c-0.3-0.1-0.6-0.2-0.9-0.2c-0.3,0-0.6,0.1-0.9,0.2c-0.3,0.1-0.5,0.3-0.7,0.5c-0.2,0.2-0.3,0.4-0.5,0.7c-0.1,0.3-0.2,0.5-0.2,0.8
			h4.5C58.7,59.1,58.7,58.8,58.6,58.6z"/>
		<path class="st0" d="M67.1,64.1v-1h0c-0.2,0.4-0.5,0.7-1,0.9c-0.5,0.2-0.9,0.3-1.5,0.3c-0.6,0-1.1-0.1-1.6-0.3
			c-0.4-0.2-0.8-0.5-1.1-0.9s-0.5-0.8-0.7-1.3c-0.1-0.5-0.2-1-0.2-1.6c0-0.5,0.1-1.1,0.2-1.6c0.1-0.5,0.4-0.9,0.7-1.3
			c0.3-0.4,0.7-0.7,1.1-0.9s1-0.3,1.6-0.3c0.2,0,0.4,0,0.6,0.1c0.2,0,0.5,0.1,0.7,0.2c0.2,0.1,0.4,0.2,0.7,0.4
			c0.2,0.2,0.4,0.3,0.5,0.6h0v-4h1.3v10.7H67.1z M62.5,61.3c0.1,0.3,0.2,0.7,0.4,0.9c0.2,0.3,0.4,0.5,0.8,0.6
			c0.3,0.2,0.7,0.2,1.1,0.2c0.4,0,0.8-0.1,1.1-0.3s0.5-0.4,0.7-0.7c0.2-0.3,0.3-0.6,0.4-0.9c0.1-0.4,0.1-0.7,0.1-1.1
			c0-0.4,0-0.7-0.1-1.1c-0.1-0.4-0.2-0.7-0.4-0.9c-0.2-0.3-0.4-0.5-0.8-0.7s-0.7-0.2-1.1-0.2c-0.4,0-0.8,0.1-1.1,0.3
			s-0.5,0.4-0.7,0.7c-0.2,0.3-0.3,0.6-0.4,1s-0.1,0.7-0.1,1.1C62.4,60.6,62.4,61,62.5,61.3z"/>
		<path class="st0" d="M79.4,53.3c1.1,0,1.9,0.3,2.5,0.8c0.6,0.6,0.8,1.3,0.8,2.3s-0.3,1.8-0.8,2.3c-0.6,0.6-1.4,0.8-2.5,0.8h-3.3
			v4.4h-1.4V53.3H79.4z M78.9,58.5c0.8,0,1.4-0.2,1.8-0.5s0.6-0.8,0.6-1.5s-0.2-1.1-0.6-1.5c-0.4-0.3-1-0.5-1.8-0.5h-2.8v3.9H78.9z"
			/>
		<path class="st0" d="M84,58.6c0.2-0.5,0.4-0.9,0.7-1.3c0.3-0.4,0.7-0.7,1.2-0.9c0.5-0.2,1-0.3,1.6-0.3c0.6,0,1.2,0.1,1.6,0.3
			s0.9,0.5,1.2,0.9c0.3,0.4,0.6,0.8,0.7,1.3s0.2,1,0.2,1.6s-0.1,1.1-0.2,1.6c-0.2,0.5-0.4,0.9-0.7,1.3c-0.3,0.4-0.7,0.6-1.2,0.9
			s-1,0.3-1.6,0.3c-0.6,0-1.1-0.1-1.6-0.3c-0.5-0.2-0.9-0.5-1.2-0.9c-0.3-0.4-0.6-0.8-0.7-1.3c-0.2-0.5-0.2-1-0.2-1.6
			S83.9,59.1,84,58.6z M85.3,61.4c0.1,0.4,0.3,0.7,0.5,0.9s0.5,0.4,0.8,0.6s0.6,0.2,0.9,0.2s0.6-0.1,0.9-0.2s0.6-0.3,0.8-0.6
			s0.4-0.5,0.5-0.9s0.2-0.8,0.2-1.3c0-0.5-0.1-0.9-0.2-1.3c-0.1-0.4-0.3-0.7-0.5-0.9s-0.5-0.4-0.8-0.6s-0.6-0.2-0.9-0.2
			s-0.6,0.1-0.9,0.2s-0.6,0.3-0.8,0.6s-0.4,0.6-0.5,0.9c-0.1,0.4-0.2,0.8-0.2,1.3C85.2,60.7,85.2,61.1,85.3,61.4z"/>
		<path class="st0" d="M99.2,64.1l-1.6-6.2h0L96,64.1h-1.4l-2.5-7.8h1.4l1.8,6.3h0l1.6-6.3h1.4l1.6,6.3h0l1.7-6.3h1.3l-2.5,7.8H99.2
			z"/>
		<path class="st0" d="M109.7,63.6c-0.6,0.4-1.3,0.7-2.2,0.7c-0.6,0-1.2-0.1-1.6-0.3c-0.5-0.2-0.8-0.5-1.1-0.8
			c-0.3-0.4-0.5-0.8-0.7-1.3c-0.2-0.5-0.2-1-0.3-1.6c0-0.6,0.1-1.1,0.3-1.6c0.2-0.5,0.4-0.9,0.8-1.3s0.7-0.6,1.2-0.8
			c0.4-0.2,0.9-0.3,1.5-0.3c0.7,0,1.3,0.1,1.7,0.4s0.8,0.6,1.1,1.1c0.3,0.4,0.5,0.9,0.6,1.4c0.1,0.5,0.1,1,0.1,1.5h-5.8
			c0,0.3,0,0.7,0.1,1s0.2,0.6,0.4,0.8c0.2,0.2,0.5,0.4,0.8,0.6c0.3,0.1,0.7,0.2,1.1,0.2c0.5,0,1-0.1,1.3-0.4
			c0.3-0.2,0.6-0.6,0.7-1.1h1.3C110.6,62.5,110.3,63.1,109.7,63.6z M109.4,58.6c-0.1-0.3-0.3-0.5-0.5-0.7c-0.2-0.2-0.4-0.3-0.7-0.5
			c-0.3-0.1-0.6-0.2-0.9-0.2c-0.3,0-0.6,0.1-0.9,0.2c-0.3,0.1-0.5,0.3-0.7,0.5c-0.2,0.2-0.3,0.4-0.5,0.7c-0.1,0.3-0.2,0.5-0.2,0.8
			h4.5C109.6,59.1,109.5,58.8,109.4,58.6z"/>
		<path class="st0" d="M113.4,56.3v1.6h0c0.3-0.6,0.7-1.1,1.1-1.4c0.5-0.3,1-0.4,1.7-0.4v1.3c-0.5,0-0.9,0.1-1.3,0.2
			c-0.4,0.1-0.7,0.3-0.9,0.6c-0.2,0.3-0.4,0.6-0.5,1s-0.1,0.8-0.1,1.3v3.5h-1.3v-7.8H113.4z"/>
		<path class="st0" d="M121.2,58.6c0.2-0.5,0.4-0.9,0.7-1.3c0.3-0.4,0.7-0.7,1.2-0.9c0.5-0.2,1-0.3,1.6-0.3c0.6,0,1.2,0.1,1.6,0.3
			s0.9,0.5,1.2,0.9c0.3,0.4,0.6,0.8,0.7,1.3s0.2,1,0.2,1.6s-0.1,1.1-0.2,1.6c-0.2,0.5-0.4,0.9-0.7,1.3c-0.3,0.4-0.7,0.6-1.2,0.9
			s-1,0.3-1.6,0.3c-0.6,0-1.1-0.1-1.6-0.3c-0.5-0.2-0.9-0.5-1.2-0.9c-0.3-0.4-0.6-0.8-0.7-1.3c-0.2-0.5-0.2-1-0.2-1.6
			S121.1,59.1,121.2,58.6z M122.5,61.4c0.1,0.4,0.3,0.7,0.5,0.9s0.5,0.4,0.8,0.6s0.6,0.2,0.9,0.2s0.6-0.1,0.9-0.2s0.6-0.3,0.8-0.6
			s0.4-0.5,0.5-0.9s0.2-0.8,0.2-1.3c0-0.5-0.1-0.9-0.2-1.3c-0.1-0.4-0.3-0.7-0.5-0.9s-0.5-0.4-0.8-0.6s-0.6-0.2-0.9-0.2
			s-0.6,0.1-0.9,0.2s-0.6,0.3-0.8,0.6s-0.4,0.6-0.5,0.9c-0.1,0.4-0.2,0.8-0.2,1.3C122.4,60.7,122.4,61.1,122.5,61.4z"/>
		<path class="st0" d="M129.3,57.4v-1.1h1.3v-1.2c0-0.6,0.2-1.1,0.5-1.4c0.4-0.3,0.9-0.5,1.6-0.5c0.1,0,0.3,0,0.4,0
			c0.2,0,0.3,0,0.4,0.1v1.1c-0.1,0-0.2-0.1-0.4-0.1s-0.2,0-0.4,0c-0.3,0-0.6,0.1-0.7,0.2c-0.2,0.1-0.3,0.4-0.3,0.7v1.1h1.5v1.1h-1.5
			v6.6h-1.3v-6.6H129.3z"/>
		<path class="st0" d="M6.7,81.3l4.2,10.7H9.3l-1.2-3.2H3.6l-1.2,3.2H0.9l4.2-10.7H6.7z M7.7,87.6l-1.8-5h0l-1.8,5H7.7z"/>
		<path class="st0" d="M16.9,92.1v-1.2h0c-0.3,0.5-0.6,0.8-1,1.1c-0.4,0.2-0.9,0.3-1.5,0.3c-0.5,0-0.9-0.1-1.3-0.2
			c-0.3-0.1-0.6-0.3-0.8-0.6c-0.2-0.2-0.4-0.5-0.4-0.9c-0.1-0.3-0.1-0.7-0.1-1.1v-5.1H13v5.2c0,0.5,0.1,0.9,0.4,1.1
			c0.3,0.3,0.7,0.4,1.2,0.4c0.4,0,0.7-0.1,1-0.2c0.3-0.1,0.5-0.3,0.7-0.5c0.2-0.2,0.3-0.5,0.4-0.8s0.1-0.6,0.1-1v-4.4h1.3v7.8H16.9z
			"/>
		<path class="st0" d="M25.9,94.2c-0.6,0.6-1.5,0.9-2.7,0.9c-0.4,0-0.7,0-1.1-0.1s-0.7-0.2-1-0.4c-0.3-0.2-0.6-0.4-0.8-0.7
			s-0.3-0.6-0.3-1.1h1.3c0,0.2,0.1,0.4,0.2,0.6c0.1,0.2,0.3,0.3,0.5,0.4c0.2,0.1,0.4,0.2,0.6,0.2s0.5,0.1,0.7,0.1
			c0.4,0,0.8-0.1,1.1-0.2c0.3-0.1,0.5-0.3,0.7-0.6c0.2-0.3,0.3-0.6,0.4-0.9s0.1-0.8,0.1-1.2v-0.5h0c-0.2,0.5-0.6,0.8-1,1.1
			c-0.4,0.2-0.9,0.3-1.4,0.3c-0.6,0-1.1-0.1-1.5-0.3c-0.4-0.2-0.8-0.5-1.1-0.8c-0.3-0.4-0.5-0.8-0.7-1.2c-0.1-0.5-0.2-1-0.2-1.5
			c0-0.5,0.1-0.9,0.2-1.4c0.1-0.5,0.3-0.9,0.6-1.3c0.3-0.4,0.6-0.7,1.1-1c0.5-0.3,1-0.4,1.7-0.4c0.5,0,0.9,0.1,1.4,0.3
			c0.4,0.2,0.7,0.5,1,1h0v-1.1h1.2v7.1C26.7,92.7,26.5,93.6,25.9,94.2z M24.2,90.8c0.3-0.2,0.5-0.4,0.7-0.7c0.2-0.3,0.3-0.6,0.4-1
			c0.1-0.4,0.1-0.7,0.1-1.1c0-0.3,0-0.7-0.1-1s-0.2-0.6-0.4-0.9c-0.2-0.3-0.4-0.5-0.7-0.6c-0.3-0.2-0.6-0.2-1-0.2
			c-0.4,0-0.8,0.1-1.1,0.2s-0.5,0.4-0.7,0.6s-0.3,0.6-0.4,0.9S21,87.7,21,88.1c0,0.4,0,0.7,0.1,1c0.1,0.4,0.2,0.7,0.4,1
			s0.4,0.5,0.7,0.7c0.3,0.2,0.6,0.3,1.1,0.3S24,90.9,24.2,90.8z"/>
		<path class="st0" d="M29.9,84.3v1.1h0c0.6-0.9,1.4-1.3,2.5-1.3c0.5,0,0.9,0.1,1.3,0.3s0.7,0.5,0.8,1c0.3-0.4,0.6-0.7,1-1
			s0.9-0.3,1.4-0.3c0.4,0,0.7,0,1.1,0.1s0.6,0.2,0.8,0.4c0.2,0.2,0.4,0.4,0.5,0.7c0.1,0.3,0.2,0.6,0.2,1v5.7h-1.3V87
			c0-0.2,0-0.5-0.1-0.7s-0.1-0.4-0.2-0.5c-0.1-0.2-0.3-0.3-0.5-0.4s-0.4-0.1-0.8-0.1c-0.6,0-1.1,0.2-1.5,0.5
			c-0.4,0.4-0.5,0.8-0.5,1.4v4.8h-1.3V87c0-0.2,0-0.5-0.1-0.7s-0.1-0.4-0.2-0.5s-0.3-0.3-0.4-0.4c-0.2-0.1-0.4-0.1-0.7-0.1
			c-0.4,0-0.7,0.1-1,0.2s-0.5,0.3-0.6,0.5c-0.2,0.2-0.3,0.4-0.4,0.7c-0.1,0.2-0.1,0.4-0.1,0.6v4.8h-1.3v-7.8H29.9z"/>
		<path class="st0" d="M46.9,91.6c-0.6,0.4-1.3,0.7-2.2,0.7c-0.6,0-1.2-0.1-1.6-0.3c-0.5-0.2-0.8-0.5-1.1-0.8
			c-0.3-0.4-0.5-0.8-0.7-1.3c-0.2-0.5-0.2-1-0.3-1.6c0-0.6,0.1-1.1,0.3-1.6c0.2-0.5,0.4-0.9,0.8-1.3s0.7-0.6,1.2-0.8
			c0.4-0.2,0.9-0.3,1.5-0.3c0.7,0,1.3,0.1,1.7,0.4s0.8,0.6,1.1,1.1c0.3,0.4,0.5,0.9,0.6,1.4c0.1,0.5,0.1,1,0.1,1.5h-5.8
			c0,0.3,0,0.7,0.1,1s0.2,0.6,0.4,0.8c0.2,0.2,0.5,0.4,0.8,0.6c0.3,0.1,0.7,0.2,1.1,0.2c0.5,0,1-0.1,1.3-0.4
			c0.3-0.2,0.6-0.6,0.7-1.1h1.3C47.9,90.5,47.5,91.1,46.9,91.6z M46.6,86.6c-0.1-0.3-0.3-0.5-0.5-0.7c-0.2-0.2-0.4-0.3-0.7-0.5
			c-0.3-0.1-0.6-0.2-0.9-0.2c-0.3,0-0.6,0.1-0.9,0.2c-0.3,0.1-0.5,0.3-0.7,0.5c-0.2,0.2-0.3,0.4-0.5,0.7c-0.1,0.3-0.2,0.5-0.2,0.8
			h4.5C46.8,87.1,46.8,86.8,46.6,86.6z"/>
		<path class="st0" d="M50.7,84.3v1.2h0c0.5-0.9,1.4-1.4,2.5-1.4c0.5,0,0.9,0.1,1.3,0.2c0.3,0.1,0.6,0.3,0.8,0.6s0.4,0.5,0.4,0.9
			c0.1,0.3,0.1,0.7,0.1,1.1v5.1h-1.3v-5.2c0-0.5-0.1-0.9-0.4-1.1c-0.3-0.3-0.7-0.4-1.2-0.4c-0.4,0-0.7,0.1-1,0.2s-0.5,0.3-0.7,0.5
			c-0.2,0.2-0.3,0.5-0.4,0.8c-0.1,0.3-0.1,0.6-0.1,1v4.4h-1.3v-7.8H50.7z"/>
		<path class="st0" d="M61.2,84.3v1.1h-1.5v4.8c0,0.2,0,0.3,0,0.4c0,0.1,0.1,0.2,0.1,0.2c0.1,0,0.2,0.1,0.3,0.1s0.3,0,0.5,0h0.6v1.1
			h-1c-0.3,0-0.6,0-0.8-0.1c-0.2,0-0.4-0.1-0.6-0.2c-0.1-0.1-0.3-0.3-0.3-0.5c-0.1-0.2-0.1-0.5-0.1-0.9v-4.9H57v-1.1h1.3V82h1.3v2.3
			H61.2z"/>
		<path class="st0" d="M68.1,91.6c-0.6,0.4-1.3,0.7-2.2,0.7c-0.6,0-1.2-0.1-1.6-0.3c-0.5-0.2-0.8-0.5-1.1-0.8
			c-0.3-0.4-0.5-0.8-0.7-1.3c-0.2-0.5-0.2-1-0.3-1.6c0-0.6,0.1-1.1,0.3-1.6c0.2-0.5,0.4-0.9,0.8-1.3s0.7-0.6,1.2-0.8
			c0.4-0.2,0.9-0.3,1.5-0.3c0.7,0,1.3,0.1,1.7,0.4s0.8,0.6,1.1,1.1c0.3,0.4,0.5,0.9,0.6,1.4c0.1,0.5,0.1,1,0.1,1.5h-5.8
			c0,0.3,0,0.7,0.1,1s0.2,0.6,0.4,0.8c0.2,0.2,0.5,0.4,0.8,0.6c0.3,0.1,0.7,0.2,1.1,0.2c0.5,0,1-0.1,1.3-0.4
			c0.3-0.2,0.6-0.6,0.7-1.1h1.3C69,90.5,68.6,91.1,68.1,91.6z M67.8,86.6c-0.1-0.3-0.3-0.5-0.5-0.7c-0.2-0.2-0.4-0.3-0.7-0.5
			c-0.3-0.1-0.6-0.2-0.9-0.2c-0.3,0-0.6,0.1-0.9,0.2c-0.3,0.1-0.5,0.3-0.7,0.5c-0.2,0.2-0.3,0.4-0.5,0.7c-0.1,0.3-0.2,0.5-0.2,0.8
			H68C67.9,87.1,67.9,86.8,67.8,86.6z"/>
		<path class="st0" d="M76.3,92.1v-1h0c-0.2,0.4-0.5,0.7-1,0.9c-0.5,0.2-0.9,0.3-1.5,0.3c-0.6,0-1.1-0.1-1.6-0.3
			c-0.4-0.2-0.8-0.5-1.1-0.9s-0.5-0.8-0.7-1.3c-0.1-0.5-0.2-1-0.2-1.6c0-0.5,0.1-1.1,0.2-1.6c0.1-0.5,0.4-0.9,0.7-1.3
			c0.3-0.4,0.7-0.7,1.1-0.9s1-0.3,1.6-0.3c0.2,0,0.4,0,0.6,0.1c0.2,0,0.5,0.1,0.7,0.2c0.2,0.1,0.4,0.2,0.7,0.4
			c0.2,0.2,0.4,0.3,0.5,0.6h0v-4h1.3v10.7H76.3z M71.7,89.3c0.1,0.3,0.2,0.7,0.4,0.9c0.2,0.3,0.4,0.5,0.8,0.6
			c0.3,0.2,0.7,0.2,1.1,0.2c0.4,0,0.8-0.1,1.1-0.3s0.5-0.4,0.7-0.7c0.2-0.3,0.3-0.6,0.4-0.9c0.1-0.4,0.1-0.7,0.1-1.1
			c0-0.4,0-0.7-0.1-1.1c-0.1-0.4-0.2-0.7-0.4-0.9c-0.2-0.3-0.4-0.5-0.8-0.7s-0.7-0.2-1.1-0.2c-0.4,0-0.8,0.1-1.1,0.3
			s-0.5,0.4-0.7,0.7c-0.2,0.3-0.3,0.6-0.4,1s-0.1,0.7-0.1,1.1C71.6,88.6,71.6,89,71.7,89.3z"/>
		<path class="st0" d="M88.9,81.3c1,0,1.8,0.2,2.4,0.8s0.9,1.2,0.9,2.1c0,0.7-0.1,1.2-0.4,1.7c-0.3,0.5-0.8,0.8-1.4,1v0
			c0.3,0.1,0.6,0.2,0.8,0.3c0.2,0.1,0.4,0.3,0.5,0.5c0.1,0.2,0.2,0.4,0.3,0.7c0.1,0.2,0.1,0.5,0.1,0.8c0,0.3,0,0.5,0,0.8
			c0,0.3,0,0.5,0.1,0.8c0,0.3,0.1,0.5,0.2,0.7c0.1,0.2,0.2,0.4,0.3,0.6H91c-0.1-0.1-0.2-0.3-0.2-0.5c0-0.2-0.1-0.4-0.1-0.6
			c0-0.2,0-0.5,0-0.8c0-0.3,0-0.5-0.1-0.8c0-0.3-0.1-0.5-0.2-0.7c-0.1-0.2-0.2-0.4-0.3-0.6s-0.3-0.3-0.5-0.4
			c-0.2-0.1-0.5-0.2-0.8-0.2h-3.5v4.6h-1.4V81.3H88.9z M89.2,86.2c0.3-0.1,0.6-0.1,0.8-0.3c0.2-0.1,0.4-0.3,0.5-0.6
			c0.1-0.2,0.2-0.6,0.2-1c0-0.5-0.2-1-0.5-1.3s-0.8-0.5-1.5-0.5h-3.5v3.7h3C88.6,86.3,88.9,86.3,89.2,86.2z"/>
		<path class="st0" d="M99.5,91.6c-0.6,0.4-1.3,0.7-2.2,0.7c-0.6,0-1.2-0.1-1.6-0.3c-0.5-0.2-0.8-0.5-1.1-0.8
			c-0.3-0.4-0.5-0.8-0.7-1.3c-0.2-0.5-0.2-1-0.3-1.6c0-0.6,0.1-1.1,0.3-1.6c0.2-0.5,0.4-0.9,0.8-1.3s0.7-0.6,1.2-0.8
			c0.4-0.2,0.9-0.3,1.5-0.3c0.7,0,1.3,0.1,1.7,0.4s0.8,0.6,1.1,1.1c0.3,0.4,0.5,0.9,0.6,1.4c0.1,0.5,0.1,1,0.1,1.5h-5.8
			c0,0.3,0,0.7,0.1,1s0.2,0.6,0.4,0.8c0.2,0.2,0.5,0.4,0.8,0.6c0.3,0.1,0.7,0.2,1.1,0.2c0.5,0,1-0.1,1.3-0.4
			c0.3-0.2,0.6-0.6,0.7-1.1h1.3C100.4,90.5,100,91.1,99.5,91.6z M99.2,86.6c-0.1-0.3-0.3-0.5-0.5-0.7c-0.2-0.2-0.4-0.3-0.7-0.5
			c-0.3-0.1-0.6-0.2-0.9-0.2c-0.3,0-0.6,0.1-0.9,0.2c-0.3,0.1-0.5,0.3-0.7,0.5c-0.2,0.2-0.3,0.4-0.5,0.7c-0.1,0.3-0.2,0.5-0.2,0.8
			h4.5C99.3,87.1,99.3,86.8,99.2,86.6z"/>
		<path class="st0" d="M108.9,92c-0.2,0.1-0.5,0.2-0.9,0.2c-0.3,0-0.6-0.1-0.8-0.3c-0.2-0.2-0.3-0.5-0.3-0.9
			c-0.4,0.4-0.8,0.7-1.2,0.9c-0.5,0.2-1,0.3-1.5,0.3c-0.4,0-0.7,0-1-0.1c-0.3-0.1-0.6-0.2-0.8-0.4c-0.2-0.2-0.4-0.4-0.5-0.7
			c-0.1-0.3-0.2-0.6-0.2-1c0-0.4,0.1-0.8,0.2-1.1c0.2-0.3,0.3-0.5,0.6-0.7c0.2-0.2,0.5-0.3,0.8-0.4c0.3-0.1,0.6-0.2,1-0.2
			c0.3-0.1,0.7-0.1,1-0.2c0.3,0,0.6-0.1,0.8-0.2c0.2-0.1,0.4-0.2,0.6-0.3c0.1-0.1,0.2-0.3,0.2-0.5c0-0.3-0.1-0.5-0.2-0.7
			c-0.1-0.2-0.2-0.3-0.4-0.4s-0.4-0.2-0.6-0.2c-0.2,0-0.4,0-0.6,0c-0.5,0-1,0.1-1.3,0.3c-0.4,0.2-0.6,0.6-0.6,1.2h-1.3
			c0-0.5,0.1-0.9,0.3-1.2c0.2-0.3,0.4-0.6,0.7-0.8c0.3-0.2,0.6-0.4,1-0.4c0.4-0.1,0.8-0.1,1.2-0.1c0.3,0,0.7,0,1,0.1
			c0.3,0,0.7,0.2,0.9,0.3c0.3,0.2,0.5,0.4,0.7,0.7c0.2,0.3,0.3,0.6,0.3,1.1v4c0,0.3,0,0.5,0.1,0.7c0,0.1,0.2,0.2,0.4,0.2
			c0.1,0,0.2,0,0.4-0.1V92z M106.8,88c-0.2,0.1-0.4,0.2-0.6,0.3c-0.3,0.1-0.5,0.1-0.8,0.1s-0.6,0.1-0.9,0.1c-0.3,0-0.5,0.1-0.8,0.2
			s-0.4,0.2-0.6,0.4c-0.1,0.2-0.2,0.4-0.2,0.8c0,0.2,0,0.4,0.1,0.5s0.2,0.3,0.3,0.4c0.1,0.1,0.3,0.2,0.5,0.2c0.2,0,0.4,0.1,0.6,0.1
			c0.4,0,0.8-0.1,1.1-0.2s0.5-0.3,0.7-0.4c0.2-0.2,0.3-0.4,0.4-0.6s0.1-0.4,0.1-0.6V88z"/>
		<path class="st0" d="M111.4,81.3v10.7h-1.3V81.3H111.4z"/>
		<path class="st0" d="M113.5,82.9v-1.6h1.3v1.6H113.5z M114.8,84.3v7.8h-1.3v-7.8H114.8z"/>
		<path class="st0" d="M120.1,84.3v1.1h-1.5v4.8c0,0.2,0,0.3,0,0.4c0,0.1,0.1,0.2,0.1,0.2c0.1,0,0.2,0.1,0.3,0.1s0.3,0,0.5,0h0.6
			v1.1h-1c-0.3,0-0.6,0-0.8-0.1c-0.2,0-0.4-0.1-0.6-0.2c-0.1-0.1-0.3-0.3-0.3-0.5c-0.1-0.2-0.1-0.5-0.1-0.9v-4.9h-1.3v-1.1h1.3V82
			h1.3v2.3H120.1z"/>
		<path class="st0" d="M124.5,93.1c-0.1,0.4-0.3,0.7-0.4,1c-0.1,0.3-0.3,0.5-0.5,0.6c-0.2,0.2-0.4,0.3-0.6,0.4
			c-0.2,0.1-0.5,0.1-0.7,0.1c-0.1,0-0.3,0-0.5,0c-0.1,0-0.3-0.1-0.4-0.1v-1.2c0.1,0,0.2,0.1,0.4,0.1c0.1,0,0.3,0.1,0.4,0.1
			c0.3,0,0.5-0.1,0.7-0.2c0.2-0.1,0.3-0.3,0.4-0.5l0.5-1.3l-3.1-7.7h1.4l2.3,6.3h0l2.2-6.3h1.3L124.5,93.1z"/>
		<path class="st0" d="M9.6,109.3v1.2h-6v3.4h5.6v1.2H3.6v3.7h6v1.2H2.2v-10.7H9.6z"/>
		<path class="st0" d="M12.4,112.3v1.2h0c0.5-0.9,1.4-1.4,2.5-1.4c0.5,0,0.9,0.1,1.3,0.2c0.3,0.1,0.6,0.3,0.8,0.6s0.4,0.5,0.4,0.9
			c0.1,0.3,0.1,0.7,0.1,1.1v5.1h-1.3v-5.2c0-0.5-0.1-0.9-0.4-1.1c-0.3-0.3-0.7-0.4-1.2-0.4c-0.4,0-0.7,0.1-1,0.2s-0.5,0.3-0.7,0.5
			c-0.2,0.2-0.3,0.5-0.4,0.8s-0.1,0.6-0.1,1v4.4h-1.3v-7.8H12.4z"/>
		<path class="st0" d="M21.6,120.1l-2.9-7.8h1.4l2.2,6.5h0l2.1-6.5h1.3l-2.8,7.8H21.6z"/>
		<path class="st0" d="M27.1,110.9v-1.6h1.3v1.6H27.1z M28.3,112.3v7.8h-1.3v-7.8H28.3z"/>
		<path class="st0" d="M31.5,112.3v1.6h0c0.3-0.6,0.7-1.1,1.1-1.4c0.4-0.3,1-0.4,1.7-0.4v1.3c-0.5,0-0.9,0.1-1.3,0.2
			c-0.4,0.1-0.7,0.3-0.9,0.6c-0.2,0.3-0.4,0.6-0.5,1s-0.2,0.8-0.2,1.3v3.5h-1.3v-7.8H31.5z"/>
		<path class="st0" d="M34.9,114.6c0.2-0.5,0.4-0.9,0.7-1.3c0.3-0.4,0.7-0.7,1.2-0.9c0.5-0.2,1-0.3,1.6-0.3c0.6,0,1.2,0.1,1.6,0.3
			s0.9,0.5,1.2,0.9c0.3,0.4,0.6,0.8,0.7,1.3s0.2,1,0.2,1.6s-0.1,1.1-0.2,1.6c-0.2,0.5-0.4,0.9-0.7,1.3c-0.3,0.4-0.7,0.6-1.2,0.9
			s-1,0.3-1.6,0.3c-0.6,0-1.1-0.1-1.6-0.3c-0.5-0.2-0.9-0.5-1.2-0.9c-0.3-0.4-0.6-0.8-0.7-1.3c-0.2-0.5-0.2-1-0.2-1.6
			S34.7,115.1,34.9,114.6z M36.2,117.4c0.1,0.4,0.3,0.7,0.5,0.9s0.5,0.4,0.8,0.6s0.6,0.2,0.9,0.2s0.6-0.1,0.9-0.2s0.6-0.3,0.8-0.6
			s0.4-0.5,0.5-0.9s0.2-0.8,0.2-1.3c0-0.5-0.1-0.9-0.2-1.3c-0.1-0.4-0.3-0.7-0.5-0.9s-0.5-0.4-0.8-0.6s-0.6-0.2-0.9-0.2
			s-0.6,0.1-0.9,0.2s-0.6,0.3-0.8,0.6s-0.4,0.6-0.5,0.9c-0.1,0.4-0.2,0.8-0.2,1.3C36,116.7,36,117.1,36.2,117.4z"/>
		<path class="st0" d="M44.9,112.3v1.2h0c0.5-0.9,1.4-1.4,2.5-1.4c0.5,0,0.9,0.1,1.3,0.2c0.3,0.1,0.6,0.3,0.8,0.6s0.4,0.5,0.4,0.9
			c0.1,0.3,0.1,0.7,0.1,1.1v5.1h-1.3v-5.2c0-0.5-0.1-0.9-0.4-1.1c-0.3-0.3-0.7-0.4-1.2-0.4c-0.4,0-0.7,0.1-1,0.2s-0.5,0.3-0.7,0.5
			c-0.2,0.2-0.3,0.5-0.4,0.8c-0.1,0.3-0.1,0.6-0.1,1v4.4h-1.3v-7.8H44.9z"/>
		<path class="st0" d="M53.2,112.3v1.1h0c0.6-0.9,1.4-1.3,2.5-1.3c0.5,0,0.9,0.1,1.3,0.3s0.7,0.5,0.8,1c0.3-0.4,0.6-0.7,1-1
			s0.9-0.3,1.4-0.3c0.4,0,0.7,0,1.1,0.1s0.6,0.2,0.8,0.4c0.2,0.2,0.4,0.4,0.5,0.7c0.1,0.3,0.2,0.6,0.2,1v5.7h-1.3V115
			c0-0.2,0-0.5-0.1-0.7s-0.1-0.4-0.2-0.5c-0.1-0.2-0.3-0.3-0.5-0.4s-0.4-0.1-0.8-0.1c-0.6,0-1.1,0.2-1.5,0.5
			c-0.4,0.4-0.5,0.8-0.5,1.4v4.8h-1.3V115c0-0.2,0-0.5-0.1-0.7s-0.1-0.4-0.2-0.5s-0.3-0.3-0.4-0.4c-0.2-0.1-0.4-0.1-0.7-0.1
			c-0.4,0-0.7,0.1-1,0.2s-0.5,0.3-0.6,0.5c-0.2,0.2-0.3,0.4-0.4,0.7s-0.1,0.4-0.1,0.6v4.8H52v-7.8H53.2z"/>
		<path class="st0" d="M70.3,119.6c-0.6,0.4-1.3,0.7-2.2,0.7c-0.6,0-1.2-0.1-1.6-0.3c-0.5-0.2-0.8-0.5-1.1-0.8
			c-0.3-0.4-0.5-0.8-0.7-1.3c-0.2-0.5-0.2-1-0.3-1.6c0-0.6,0.1-1.1,0.3-1.6c0.2-0.5,0.4-0.9,0.8-1.3s0.7-0.6,1.2-0.8
			c0.4-0.2,0.9-0.3,1.5-0.3c0.7,0,1.3,0.1,1.7,0.4s0.8,0.6,1.1,1.1c0.3,0.4,0.5,0.9,0.6,1.4c0.1,0.5,0.1,1,0.1,1.5h-5.8
			c0,0.3,0,0.7,0.1,1s0.2,0.6,0.4,0.8c0.2,0.2,0.5,0.4,0.8,0.6c0.3,0.1,0.7,0.2,1.1,0.2c0.5,0,1-0.1,1.3-0.4
			c0.3-0.2,0.6-0.6,0.7-1.1h1.3C71.2,118.5,70.9,119.1,70.3,119.6z M70,114.6c-0.1-0.3-0.3-0.5-0.5-0.7c-0.2-0.2-0.4-0.3-0.7-0.5
			c-0.3-0.1-0.6-0.2-0.9-0.2c-0.3,0-0.6,0.1-0.9,0.2c-0.3,0.1-0.5,0.3-0.7,0.5c-0.2,0.2-0.3,0.4-0.5,0.7c-0.1,0.3-0.2,0.5-0.2,0.8
			h4.5C70.2,115.1,70.1,114.8,70,114.6z"/>
		<path class="st0" d="M74.1,112.3v1.2h0c0.5-0.9,1.4-1.4,2.5-1.4c0.5,0,0.9,0.1,1.3,0.2c0.3,0.1,0.6,0.3,0.8,0.6s0.4,0.5,0.4,0.9
			c0.1,0.3,0.1,0.7,0.1,1.1v5.1H78v-5.2c0-0.5-0.1-0.9-0.4-1.1c-0.3-0.3-0.7-0.4-1.2-0.4c-0.4,0-0.7,0.1-1,0.2s-0.5,0.3-0.7,0.5
			c-0.2,0.2-0.3,0.5-0.4,0.8c-0.1,0.3-0.1,0.6-0.1,1v4.4h-1.3v-7.8H74.1z"/>
		<path class="st0" d="M84.5,112.3v1.1H83v4.8c0,0.2,0,0.3,0,0.4c0,0.1,0.1,0.2,0.1,0.2c0.1,0,0.2,0.1,0.3,0.1s0.3,0,0.5,0h0.6v1.1
			h-1c-0.3,0-0.6,0-0.8-0.1c-0.2,0-0.4-0.1-0.6-0.2c-0.1-0.1-0.3-0.3-0.3-0.5c-0.1-0.2-0.1-0.5-0.1-0.9v-4.9h-1.3v-1.1h1.3V110H83
			v2.3H84.5z"/>
	</g>
</g>
</svg>
