<svg xmlns="http://www.w3.org/2000/svg" viewBox="0 0 216 38"><path d="M11.3.8h6.8l10.2 28.8h-6.5l-1.9-5.9H9.2l-2 5.9H1L11.3.8zm-.4 17.9h7.4L14.6 7.4l-3.7 11.3zm38.5-8.1c1.7 1.8 2.6 4.5 2.6 8.1 0 3.8-.8 6.6-2.5 8.6s-3.9 2.9-6.6 2.9c-1.7 0-3.1-.4-4.2-1.3-.6-.5-1.2-1.2-1.8-2.1V38h-5.5V8.3h5.3v3.1c.6-.9 1.2-1.7 1.9-2.2 1.2-1 2.7-1.4 4.4-1.4 2.5 0 4.7.9 6.4 2.8zm-4.3 4c-.8-1.3-2-1.9-3.7-1.9-2 0-3.4 1-4.2 2.9-.4 1-.6 2.3-.6 3.9 0 2.5.7 4.2 2 5.2.8.6 1.7.9 2.8.9 1.6 0 2.8-.6 3.6-1.8s1.2-2.8 1.2-4.8c0-1.7-.3-3.2-1.1-4.4zm28.7-4c1.7 1.8 2.6 4.5 2.6 8.1 0 3.8-.8 6.6-2.5 8.6s-3.9 2.9-6.6 2.9c-1.7 0-3.1-.4-4.2-1.3-.6-.5-1.2-1.2-1.8-2.1V38h-5.5V8.3h5.3v3.1c.6-.9 1.2-1.7 1.9-2.2 1.2-1 2.7-1.4 4.4-1.4 2.6 0 4.7.9 6.4 2.8zm-4.3 4c-.8-1.3-2-1.9-3.7-1.9-2 0-3.4 1-4.2 2.9-.4 1-.6 2.3-.6 3.9 0 2.5.7 4.2 2 5.2.8.6 1.7.9 2.8.9 1.6 0 2.8-.6 3.6-1.8s1.2-2.8 1.2-4.8c.1-1.7-.3-3.2-1.1-4.4zm16.5 15h-5.6V.8H86v28.8zM97.2 5.7h-5.6V.6h5.6v5.1zm-5.7 2.6h5.6v21.3h-5.6V8.3zm23.8 7.6c-.1-.8-.4-1.5-.8-2.1-.6-.9-1.6-1.3-2.9-1.3-1.9 0-3.2.9-3.9 2.8-.4 1-.5 2.3-.5 3.9s.2 2.8.5 3.8c.7 1.8 1.9 2.7 3.8 2.7 1.3 0 2.2-.4 2.8-1.1.5-.7.9-1.6 1-2.7h5.7c-.1 1.7-.7 3.3-1.8 4.8-1.7 2.4-4.3 3.7-7.8 3.7s-5.9-1-7.6-3c-1.6-2-2.4-4.7-2.4-7.9 0-3.7.9-6.5 2.7-8.5 1.8-2 4.2-3 7.4-3 2.7 0 4.9.6 6.6 1.8 1.7 1.2 2.7 3.3 3 6.3h-5.8zm18 .7c1-.1 1.8-.3 2.2-.5.8-.3 1.2-.9 1.2-1.6 0-.9-.3-1.5-.9-1.8-.6-.3-1.5-.5-2.7-.5-1.3 0-2.3.3-2.8 1-.4.5-.7 1.1-.8 2h-5.4c.1-1.9.6-3.4 1.6-4.6 1.5-1.9 4-2.8 7.6-2.8 2.3 0 4.4.5 6.2 1.4s2.7 2.7 2.7 5.2v12.3c0 .7.1 1.2.3 1.5s.5.5.8.6v.8h-6.1c-.2-.4-.3-.8-.4-1.2s-.1-.8-.2-1.3c-.8.8-1.7 1.5-2.7 2.1-1.2.7-2.6 1-4.1 1-1.9 0-3.5-.5-4.8-1.7s-1.9-2.7-1.9-4.7c0-2.6 1-4.5 3-5.7 1.1-.6 2.8-1.1 4.9-1.4l2.3-.1zm3.4 2.6c-.4.2-.7.4-1.1.5-.4.1-.9.3-1.5.4l-1.3.2c-1.2.2-2 .5-2.6.8-.9.5-1.3 1.3-1.3 2.4 0 1 .3 1.6.8 2.1.5.4 1.2.6 2 .6 1.2 0 2.3-.4 3.4-1.1s1.6-2 1.6-3.8v-2.1zm8.2-6.8v-4h3V2.5h5.5v5.9h3.5v4h-3.5v11.3c0 .9.1 1.4.3 1.6s.9.3 2 .3h1.1v4.2l-2.6.1c-2.6.1-4.4-.4-5.4-1.4-.6-.6-.9-1.6-.9-2.9V12.4h-3zm21.2-6.7h-5.6V.6h5.6v5.1zm-5.6 2.6h5.6v21.3h-5.6V8.3zM189.3 27c-1.8 2.2-4.5 3.3-8.2 3.3s-6.4-1.1-8.2-3.3-2.7-4.9-2.7-8c0-3.1.9-5.7 2.7-8s4.5-3.4 8.2-3.4 6.4 1.1 8.2 3.4 2.7 4.9 2.7 8c0 3.1-.9 5.8-2.7 8zm-4.5-3.1c.9-1.2 1.3-2.8 1.3-4.9 0-2.1-.4-3.8-1.3-4.9-.9-1.2-2.1-1.7-3.8-1.7s-2.9.6-3.8 1.7c-.9 1.2-1.3 2.8-1.3 4.9 0 2.1.4 3.8 1.3 4.9s2.1 1.7 3.8 1.7 2.9-.6 3.8-1.7zm28.3-14.4c1.4 1.2 2.1 3.1 2.1 5.7v14.3h-5.7V16.6c0-1.1-.1-2-.4-2.6-.5-1.1-1.6-1.6-3.1-1.6-1.9 0-3.2.8-3.9 2.4-.4.8-.5 1.9-.5 3.2v11.5H196V8.3h5.4v3.1c.7-1.1 1.4-1.9 2-2.4 1.1-.9 2.6-1.3 4.3-1.3 2.2.1 4 .7 5.4 1.8z" fill="#fff"/></svg>