<?xml version="1.0" encoding="utf-8"?>
<!-- Generator: Adobe Illustrator 20.0.0, SVG Export Plug-In . SVG Version: 6.00 Build 0)  -->
<svg version="1.1" id="레이어_1" xmlns="http://www.w3.org/2000/svg" xmlns:xlink="http://www.w3.org/1999/xlink" x="0px"
	 y="0px" viewBox="0 0 155.8 34.3" style="enable-background:new 0 0 155.8 34.3;" xml:space="preserve">
<style type="text/css">
	.st0{enable-background:new    ;}
	.st1{fill:#333333;}
</style>
<g class="st0">
	<path class="st1" d="M22.1,3.1h8.7v28.8h-5.6V12.4c0-0.6,0-1.3,0-2.4c0-1,0-1.8,0-2.3l-5.5,24.2h-5.8L8.5,7.7c0,0.5,0,1.3,0,2.3
		c0,1,0,1.8,0,2.4v19.5H2.9V3.1h8.8l5.2,22.6L22.1,3.1z"/>
	<path class="st1" d="M49.8,11c1.5,0.7,2.7,1.7,3.7,3.1c0.9,1.3,1.4,2.7,1.7,4.4c0.1,1,0.2,2.4,0.2,4.2H39.8
		c0.1,2.1,0.8,3.6,2.2,4.5c0.9,0.5,1.9,0.8,3.1,0.8c1.3,0,2.3-0.3,3.1-1c0.4-0.4,0.8-0.8,1.1-1.5h5.7c-0.1,1.3-0.8,2.5-2.1,3.8
		c-1.9,2.1-4.6,3.1-8,3.1c-2.8,0-5.3-0.9-7.5-2.6c-2.2-1.7-3.2-4.6-3.2-8.5c0-3.7,1-6.5,2.9-8.5s4.5-3,7.6-3
		C46.6,10,48.3,10.4,49.8,11z M41.5,15.8c-0.8,0.8-1.3,1.9-1.5,3.3h9.6c-0.1-1.5-0.6-2.6-1.5-3.4c-0.9-0.8-2-1.1-3.3-1.1
		C43.4,14.6,42.2,15,41.5,15.8z"/>
	<path class="st1" d="M84.7,10.7c0.9,0.4,1.7,1,2.5,1.9c0.6,0.7,1,1.7,1.2,2.7c0.1,0.7,0.2,1.8,0.2,3.1l0,13.4h-5.7V18.3
		c0-0.8-0.1-1.5-0.4-2c-0.5-1-1.4-1.5-2.7-1.5c-1.5,0-2.6,0.6-3.2,1.9c-0.3,0.7-0.4,1.5-0.4,2.4v12.7h-5.6V19.2
		c0-1.3-0.1-2.2-0.4-2.8c-0.5-1-1.4-1.5-2.8-1.5c-1.6,0-2.7,0.5-3.2,1.5c-0.3,0.6-0.4,1.5-0.4,2.6v12.8h-5.6V10.6h5.4v3.1
		c0.7-1.1,1.3-1.9,2-2.4c1.1-0.8,2.5-1.2,4.2-1.2c1.6,0,2.9,0.4,3.9,1.1c0.8,0.7,1.4,1.5,1.8,2.6c0.7-1.2,1.6-2.2,2.7-2.8
		c1.1-0.6,2.4-0.9,3.8-0.9C82.9,10.1,83.8,10.3,84.7,10.7z"/>
	<path class="st1" d="M111.9,13.1c1.6,2,2.4,4.6,2.4,7.8c0,3.3-0.8,6-2.4,8.2s-3.8,3.3-6.6,3.3c-1.8,0-3.2-0.4-4.3-1.1
		c-0.6-0.4-1.3-1.1-2.1-2.2v2.7h-5.5V3.1h5.6v10.2c0.7-1,1.5-1.7,2.3-2.3c1-0.7,2.3-1,3.9-1C108.1,10.1,110.3,11.1,111.9,13.1z
		 M107.3,26.1c0.8-1.2,1.2-2.7,1.2-4.6c0-1.5-0.2-2.8-0.6-3.8c-0.7-1.9-2.1-2.8-4.1-2.8c-2,0-3.4,0.9-4.2,2.8
		c-0.4,1-0.6,2.2-0.6,3.8c0,1.8,0.4,3.3,1.2,4.5s2.1,1.8,3.7,1.8C105.3,27.9,106.5,27.3,107.3,26.1z"/>
	<path class="st1" d="M132,11c1.5,0.7,2.7,1.7,3.7,3.1c0.9,1.3,1.4,2.7,1.7,4.4c0.1,1,0.2,2.4,0.2,4.2h-15.5
		c0.1,2.1,0.8,3.6,2.2,4.5c0.8,0.5,1.9,0.8,3.1,0.8c1.3,0,2.3-0.3,3.1-1c0.4-0.4,0.8-0.8,1.1-1.5h5.7c-0.2,1.3-0.8,2.5-2.1,3.8
		c-1.9,2.1-4.6,3.1-8,3.1c-2.8,0-5.3-0.9-7.5-2.6c-2.2-1.7-3.2-4.6-3.2-8.5c0-3.7,1-6.5,2.9-8.5s4.5-3,7.6-3
		C128.9,10,130.6,10.4,132,11z M123.7,15.8c-0.8,0.8-1.3,1.9-1.5,3.3h9.6c-0.1-1.5-0.6-2.6-1.5-3.4c-0.9-0.8-2-1.1-3.3-1.1
		C125.6,14.6,124.5,15,123.7,15.8z"/>
	<path class="st1" d="M152.2,10.1c0.1,0,0.2,0,0.5,0v5.7c-0.4,0-0.7-0.1-0.9-0.1s-0.5,0-0.7,0c-2.2,0-3.7,0.7-4.5,2.2
		c-0.4,0.8-0.6,2.1-0.6,3.8v10.2h-5.6V10.6h5.3v3.7c0.9-1.4,1.6-2.4,2.2-2.9c1-0.9,2.4-1.3,4.1-1.3
		C152.1,10.1,152.2,10.1,152.2,10.1z"/>
</g>
</svg>
