<?xml version="1.0" encoding="utf-8"?>
<!-- Generator: Adobe Illustrator 20.0.0, SVG Export Plug-In . SVG Version: 6.00 Build 0)  -->
<svg version="1.1" id="레이어_1" xmlns="http://www.w3.org/2000/svg" xmlns:xlink="http://www.w3.org/1999/xlink" x="0px"
	 y="0px" viewBox="0 0 216 70" style="enable-background:new 0 0 216 70;" xml:space="preserve">
<style type="text/css">
	.st0{fill:url(#SVGID_1_);}
	.st1{fill:url(#SVGID_2_);}
	.st2{fill:url(#SVGID_3_);}
	.st3{fill:url(#SVGID_4_);}
	.st4{fill:url(#SVGID_5_);}
	.st5{fill:url(#SVGID_6_);}
	.st6{fill:url(#SVGID_7_);}
	.st7{fill:url(#SVGID_8_);}
	.st8{fill:url(#SVGID_9_);}
	.st9{fill:url(#SVGID_10_);}
	.st10{fill:url(#SVGID_11_);}
	.st11{fill:#00FCFF;}
</style>
<g>
	
		<linearGradient id="SVGID_1_" gradientUnits="userSpaceOnUse" x1="-40.5" y1="55.8" x2="221.5806" y2="55.8" gradientTransform="matrix(1 0 0 -1 0 72)">
		<stop  offset="0" style="stop-color:#00D1FF"/>
		<stop  offset="6.264919e-02" style="stop-color:#00DDFD"/>
		<stop  offset="0.1922" style="stop-color:#00F0F9"/>
		<stop  offset="0.3255" style="stop-color:#00FBF7"/>
		<stop  offset="0.4677" style="stop-color:#00FFF6"/>
		<stop  offset="1" style="stop-color:#67FFDD"/>
	</linearGradient>
	<path class="st0" d="M10.6,1.8h6.8l10.2,28.8h-6.5l-1.9-5.9H8.6l-2,5.9H0.3L10.6,1.8z M10.2,19.7h7.4L14,8.4L10.2,19.7z"/>
	
		<linearGradient id="SVGID_2_" gradientUnits="userSpaceOnUse" x1="-40.5" y1="48.1" x2="221.5806" y2="48.1" gradientTransform="matrix(1 0 0 -1 0 72)">
		<stop  offset="0" style="stop-color:#00D1FF"/>
		<stop  offset="6.264919e-02" style="stop-color:#00DDFD"/>
		<stop  offset="0.1922" style="stop-color:#00F0F9"/>
		<stop  offset="0.3255" style="stop-color:#00FBF7"/>
		<stop  offset="0.4677" style="stop-color:#00FFF6"/>
		<stop  offset="1" style="stop-color:#67FFDD"/>
	</linearGradient>
	<path class="st1" d="M48.7,11.6c1.7,1.8,2.6,4.5,2.6,8.1c0,3.8-0.8,6.6-2.5,8.6s-3.9,2.9-6.6,2.9c-1.7,0-3.1-0.4-4.2-1.3
		c-0.6-0.5-1.2-1.2-1.8-2.1V39h-5.5V9.3H36v3.1c0.6-0.9,1.2-1.7,1.9-2.2c1.2-1,2.7-1.4,4.4-1.4C44.9,8.8,47,9.7,48.7,11.6z
		 M44.4,15.6c-0.8-1.3-2-1.9-3.7-1.9c-2,0-3.4,1-4.2,2.9c-0.4,1-0.6,2.3-0.6,3.9c0,2.5,0.7,4.2,2,5.2c0.8,0.6,1.7,0.9,2.8,0.9
		c1.6,0,2.8-0.6,3.6-1.8s1.2-2.8,1.2-4.8C45.6,18.3,45.2,16.8,44.4,15.6z"/>
	
		<linearGradient id="SVGID_3_" gradientUnits="userSpaceOnUse" x1="-40.5" y1="48.1" x2="221.5806" y2="48.1" gradientTransform="matrix(1 0 0 -1 0 72)">
		<stop  offset="0" style="stop-color:#00D1FF"/>
		<stop  offset="6.264919e-02" style="stop-color:#00DDFD"/>
		<stop  offset="0.1922" style="stop-color:#00F0F9"/>
		<stop  offset="0.3255" style="stop-color:#00FBF7"/>
		<stop  offset="0.4677" style="stop-color:#00FFF6"/>
		<stop  offset="1" style="stop-color:#67FFDD"/>
	</linearGradient>
	<path class="st2" d="M73.2,11.6c1.7,1.8,2.6,4.5,2.6,8.1c0,3.8-0.8,6.6-2.5,8.6s-3.9,2.9-6.6,2.9c-1.7,0-3.1-0.4-4.2-1.3
		c-0.6-0.5-1.2-1.2-1.8-2.1V39h-5.5V9.3h5.3v3.1c0.6-0.9,1.2-1.7,1.9-2.2c1.2-1,2.7-1.4,4.4-1.4C69.3,8.8,71.4,9.7,73.2,11.6z
		 M68.9,15.6c-0.8-1.3-2-1.9-3.7-1.9c-2,0-3.4,1-4.2,2.9c-0.4,1-0.6,2.3-0.6,3.9c0,2.5,0.7,4.2,2,5.2c0.8,0.6,1.7,0.9,2.8,0.9
		c1.6,0,2.8-0.6,3.6-1.8S70,22,70,20C70,18.3,69.6,16.8,68.9,15.6z"/>
	
		<linearGradient id="SVGID_4_" gradientUnits="userSpaceOnUse" x1="-40.5" y1="55.8" x2="221.5806" y2="55.8" gradientTransform="matrix(1 0 0 -1 0 72)">
		<stop  offset="0" style="stop-color:#00D1FF"/>
		<stop  offset="6.264919e-02" style="stop-color:#00DDFD"/>
		<stop  offset="0.1922" style="stop-color:#00F0F9"/>
		<stop  offset="0.3255" style="stop-color:#00FBF7"/>
		<stop  offset="0.4677" style="stop-color:#00FFF6"/>
		<stop  offset="1" style="stop-color:#67FFDD"/>
	</linearGradient>
	<path class="st3" d="M85.4,30.6h-5.6V1.8h5.6V30.6z"/>
	
		<linearGradient id="SVGID_5_" gradientUnits="userSpaceOnUse" x1="-40.5" y1="55.9" x2="221.5806" y2="55.9" gradientTransform="matrix(1 0 0 -1 0 72)">
		<stop  offset="0" style="stop-color:#00D1FF"/>
		<stop  offset="6.264919e-02" style="stop-color:#00DDFD"/>
		<stop  offset="0.1922" style="stop-color:#00F0F9"/>
		<stop  offset="0.3255" style="stop-color:#00FBF7"/>
		<stop  offset="0.4677" style="stop-color:#00FFF6"/>
		<stop  offset="1" style="stop-color:#67FFDD"/>
	</linearGradient>
	<path class="st4" d="M96.5,6.7h-5.6V1.6h5.6V6.7z M90.9,9.3h5.6v21.3h-5.6V9.3z"/>
	
		<linearGradient id="SVGID_6_" gradientUnits="userSpaceOnUse" x1="-40.5" y1="51.8" x2="221.5806" y2="51.8" gradientTransform="matrix(1 0 0 -1 0 72)">
		<stop  offset="0" style="stop-color:#00D1FF"/>
		<stop  offset="6.264919e-02" style="stop-color:#00DDFD"/>
		<stop  offset="0.1922" style="stop-color:#00F0F9"/>
		<stop  offset="0.3255" style="stop-color:#00FBF7"/>
		<stop  offset="0.4677" style="stop-color:#00FFF6"/>
		<stop  offset="1" style="stop-color:#67FFDD"/>
	</linearGradient>
	<path class="st5" d="M114.6,16.9c-0.1-0.8-0.4-1.5-0.8-2.1c-0.6-0.9-1.6-1.3-2.9-1.3c-1.9,0-3.2,0.9-3.9,2.8
		c-0.4,1-0.5,2.3-0.5,3.9s0.2,2.8,0.5,3.8c0.7,1.8,1.9,2.7,3.8,2.7c1.3,0,2.2-0.4,2.8-1.1c0.5-0.7,0.9-1.6,1-2.7h5.7
		c-0.1,1.7-0.7,3.3-1.8,4.8c-1.7,2.4-4.3,3.7-7.8,3.7s-5.9-1-7.6-3c-1.6-2-2.4-4.7-2.4-7.9c0-3.7,0.9-6.5,2.7-8.5c1.8-2,4.2-3,7.4-3
		c2.7,0,4.9,0.6,6.6,1.8s2.7,3.3,3,6.3h-5.8V16.9z"/>
	
		<linearGradient id="SVGID_7_" gradientUnits="userSpaceOnUse" x1="-40.5" y1="52" x2="221.5806" y2="52" gradientTransform="matrix(1 0 0 -1 0 72)">
		<stop  offset="0" style="stop-color:#00D1FF"/>
		<stop  offset="6.264919e-02" style="stop-color:#00DDFD"/>
		<stop  offset="0.1922" style="stop-color:#00F0F9"/>
		<stop  offset="0.3255" style="stop-color:#00FBF7"/>
		<stop  offset="0.4677" style="stop-color:#00FFF6"/>
		<stop  offset="1" style="stop-color:#67FFDD"/>
	</linearGradient>
	<path class="st6" d="M132.6,17.6c1-0.1,1.8-0.3,2.2-0.5c0.8-0.3,1.2-0.9,1.2-1.6c0-0.9-0.3-1.5-0.9-1.8c-0.6-0.3-1.5-0.5-2.7-0.5
		c-1.3,0-2.3,0.3-2.8,1c-0.4,0.5-0.7,1.1-0.8,2h-5.4c0.1-1.9,0.6-3.4,1.6-4.6c1.5-1.9,4-2.8,7.6-2.8c2.3,0,4.4,0.5,6.2,1.4
		s2.7,2.7,2.7,5.2v9.8c0,0.7,0,1.5,0,2.5c0,0.7,0.1,1.2,0.3,1.5s0.5,0.5,0.8,0.6v0.8h-6.1c-0.2-0.4-0.3-0.8-0.4-1.2
		s-0.1-0.8-0.2-1.3c-0.8,0.8-1.7,1.5-2.7,2.1c-1.2,0.7-2.6,1-4.1,1c-1.9,0-3.5-0.5-4.8-1.7s-1.9-2.7-1.9-4.7c0-2.6,1-4.5,3-5.7
		c1.1-0.6,2.8-1.1,4.9-1.4L132.6,17.6z M136,20.2c-0.4,0.2-0.7,0.4-1.1,0.5c-0.4,0.1-0.9,0.3-1.5,0.4l-1.3,0.2
		c-1.2,0.2-2,0.5-2.6,0.8c-0.9,0.5-1.3,1.3-1.3,2.4c0,1,0.3,1.6,0.8,2.1c0.5,0.4,1.2,0.6,2,0.6c1.2,0,2.3-0.4,3.4-1.1s1.6-2,1.6-3.8
		L136,20.2L136,20.2z"/>
	
		<linearGradient id="SVGID_8_" gradientUnits="userSpaceOnUse" x1="-40.5" y1="54.8437" x2="221.5806" y2="54.8437" gradientTransform="matrix(1 0 0 -1 0 72)">
		<stop  offset="0" style="stop-color:#00D1FF"/>
		<stop  offset="6.264919e-02" style="stop-color:#00DDFD"/>
		<stop  offset="0.1922" style="stop-color:#00F0F9"/>
		<stop  offset="0.3255" style="stop-color:#00FBF7"/>
		<stop  offset="0.4677" style="stop-color:#00FFF6"/>
		<stop  offset="1" style="stop-color:#67FFDD"/>
	</linearGradient>
	<path class="st7" d="M144.2,13.4v-4h3V3.5h5.5v5.9h3.5v4h-3.5v11.2c0,0.9,0.1,1.4,0.3,1.6s0.9,0.3,2,0.3c0.2,0,0.3,0,0.5,0
		s0.4,0,0.6,0v4.2l-2.6,0.1c-2.6,0.1-4.4-0.4-5.4-1.4c-0.6-0.6-0.9-1.6-0.9-2.9V13.4H144.2z"/>
	
		<linearGradient id="SVGID_9_" gradientUnits="userSpaceOnUse" x1="-40.5" y1="55.9" x2="221.5806" y2="55.9" gradientTransform="matrix(1 0 0 -1 0 72)">
		<stop  offset="0" style="stop-color:#00D1FF"/>
		<stop  offset="6.264919e-02" style="stop-color:#00DDFD"/>
		<stop  offset="0.1922" style="stop-color:#00F0F9"/>
		<stop  offset="0.3255" style="stop-color:#00FBF7"/>
		<stop  offset="0.4677" style="stop-color:#00FFF6"/>
		<stop  offset="1" style="stop-color:#67FFDD"/>
	</linearGradient>
	<path class="st8" d="M165.4,6.7h-5.6V1.6h5.6V6.7z M159.8,9.3h5.6v21.3h-5.6V9.3z"/>
	
		<linearGradient id="SVGID_10_" gradientUnits="userSpaceOnUse" x1="-40.5" y1="52.05" x2="221.5806" y2="52.05" gradientTransform="matrix(1 0 0 -1 0 72)">
		<stop  offset="0" style="stop-color:#00D1FF"/>
		<stop  offset="6.264919e-02" style="stop-color:#00DDFD"/>
		<stop  offset="0.1922" style="stop-color:#00F0F9"/>
		<stop  offset="0.3255" style="stop-color:#00FBF7"/>
		<stop  offset="0.4677" style="stop-color:#00FFF6"/>
		<stop  offset="1" style="stop-color:#67FFDD"/>
	</linearGradient>
	<path class="st9" d="M188.6,28c-1.8,2.2-4.5,3.3-8.2,3.3s-6.4-1.1-8.2-3.3s-2.7-4.9-2.7-8s0.9-5.7,2.7-8s4.5-3.4,8.2-3.4
		s6.4,1.1,8.2,3.4s2.7,4.9,2.7,8S190.4,25.8,188.6,28z M184.1,24.9c0.9-1.2,1.3-2.8,1.3-4.9s-0.4-3.8-1.3-4.9
		c-0.9-1.2-2.1-1.7-3.8-1.7s-2.9,0.6-3.8,1.7c-0.9,1.2-1.3,2.8-1.3,4.9s0.4,3.8,1.3,4.9s2.1,1.7,3.8,1.7S183.3,26,184.1,24.9z"/>
	
		<linearGradient id="SVGID_11_" gradientUnits="userSpaceOnUse" x1="-40.5" y1="52.4" x2="221.5806" y2="52.4" gradientTransform="matrix(1 0 0 -1 0 72)">
		<stop  offset="0" style="stop-color:#00D1FF"/>
		<stop  offset="6.264919e-02" style="stop-color:#00DDFD"/>
		<stop  offset="0.1922" style="stop-color:#00F0F9"/>
		<stop  offset="0.3255" style="stop-color:#00FBF7"/>
		<stop  offset="0.4677" style="stop-color:#00FFF6"/>
		<stop  offset="1" style="stop-color:#67FFDD"/>
	</linearGradient>
	<path class="st10" d="M212.4,10.5c1.4,1.2,2.1,3.1,2.1,5.7v14.3h-5.7V17.6c0-1.1-0.1-2-0.4-2.6c-0.5-1.1-1.6-1.6-3.1-1.6
		c-1.9,0-3.2,0.8-3.9,2.4c-0.4,0.8-0.5,1.9-0.5,3.2v11.5h-5.6V9.3h5.4v3.1c0.7-1.1,1.4-1.9,2-2.4c1.1-0.9,2.6-1.3,4.3-1.3
		C209.3,8.8,211,9.4,212.4,10.5z"/>
</g>
<g>
	<path class="st11" d="M6.7,53.5l4.5,11.4H9.5l-1.2-3.4H3.4l-1.3,3.4H0.6L5,53.5H6.7z M7.8,60.2l-1.9-5.3l0,0L4,60.2H7.8z"/>
	<path class="st11" d="M17.7,53.5c1.1,0,1.9,0.3,2.6,0.8s0.9,1.3,0.9,2.2c0,0.7-0.2,1.3-0.5,1.8s-0.8,0.9-1.5,1.1l0,0
		c0.3,0.1,0.6,0.2,0.8,0.3s0.4,0.3,0.5,0.5s0.2,0.4,0.3,0.7s0.1,0.5,0.1,0.8s0,0.6,0,0.8c0,0.3,0,0.6,0.1,0.8c0,0.3,0.1,0.5,0.2,0.8
		s0.2,0.5,0.4,0.7h-1.7c-0.1-0.1-0.2-0.3-0.2-0.5s-0.1-0.4-0.1-0.7c0-0.2,0-0.5,0-0.8s0-0.6-0.1-0.8c0-0.3-0.1-0.5-0.2-0.8
		c-0.1-0.2-0.2-0.5-0.3-0.7s-0.3-0.3-0.5-0.4s-0.6-0.1-1-0.1h-3.7v4.9h-1.5V53.5H17.7z M18,58.7c0.3-0.1,0.6-0.2,0.8-0.3
		c0.2-0.2,0.4-0.4,0.6-0.6s0.2-0.6,0.2-1c0-0.6-0.2-1-0.5-1.4s-0.8-0.5-1.6-0.5h-3.8v4H17C17.3,58.7,17.7,58.7,18,58.7z"/>
	<path class="st11" d="M30.1,64.8c-0.7,0.3-1.3,0.4-2,0.4c-0.9,0-1.6-0.2-2.3-0.5c-0.7-0.3-1.2-0.7-1.7-1.3
		c-0.5-0.5-0.8-1.1-1.1-1.8c-0.2-0.7-0.4-1.4-0.4-2.2s0.1-1.6,0.3-2.4c0.2-0.8,0.6-1.4,1-2c0.5-0.6,1-1,1.7-1.4s1.5-0.5,2.4-0.5
		c0.6,0,1.2,0.1,1.8,0.2c0.5,0.1,1,0.4,1.5,0.7c0.4,0.3,0.8,0.7,1.1,1.2s0.5,1,0.6,1.7h-1.5c-0.1-0.4-0.2-0.8-0.4-1.1
		c-0.2-0.3-0.5-0.6-0.8-0.8s-0.6-0.4-1-0.5s-0.8-0.2-1.2-0.2c-0.7,0-1.3,0.1-1.8,0.4c-0.5,0.3-0.9,0.6-1.2,1.1
		c-0.3,0.5-0.5,1-0.7,1.6c-0.1,0.6-0.2,1.2-0.2,1.8s0.1,1.2,0.3,1.7c0.2,0.5,0.4,1,0.8,1.5c0.3,0.4,0.7,0.8,1.2,1s1,0.4,1.7,0.4
		c0.6,0,1.1-0.1,1.6-0.3s0.8-0.5,1.2-0.8s0.6-0.7,0.7-1.2c0.2-0.5,0.2-0.9,0.2-1.5h-3.6v-1.3h5v6h-1l-0.4-1.4
		C31.3,64.1,30.8,64.5,30.1,64.8z"/>
	<path class="st11" d="M41,64.4c-0.6,0.5-1.4,0.7-2.3,0.7c-0.7,0-1.2-0.1-1.7-0.3c-0.5-0.2-0.9-0.5-1.2-0.9s-0.6-0.8-0.7-1.4
		c-0.2-0.5-0.3-1.1-0.3-1.7c0-0.6,0.1-1.2,0.3-1.7s0.5-1,0.8-1.4s0.8-0.7,1.2-0.9c0.5-0.2,1-0.3,1.6-0.3c0.7,0,1.3,0.2,1.8,0.5
		s0.9,0.7,1.2,1.2s0.5,1,0.6,1.5c0.1,0.6,0.2,1.1,0.1,1.6h-6.2c0,0.4,0,0.7,0.1,1s0.3,0.6,0.5,0.9c0.2,0.3,0.5,0.5,0.8,0.6
		c0.3,0.2,0.7,0.2,1.2,0.2c0.6,0,1-0.1,1.4-0.4s0.6-0.7,0.7-1.2h1.3C42,63.2,41.6,63.9,41,64.4z M40.7,59.1
		c-0.1-0.3-0.3-0.5-0.5-0.7s-0.5-0.4-0.7-0.5c-0.3-0.1-0.6-0.2-0.9-0.2c-0.4,0-0.7,0.1-1,0.2c-0.3,0.1-0.5,0.3-0.7,0.5
		s-0.4,0.5-0.5,0.7c-0.1,0.3-0.2,0.6-0.2,0.9H41C40.9,59.7,40.8,59.4,40.7,59.1z"/>
	<path class="st11" d="M51.1,64.9c-0.2,0.1-0.6,0.2-1,0.2s-0.6-0.1-0.8-0.3s-0.3-0.5-0.3-1c-0.4,0.4-0.8,0.8-1.3,1s-1,0.3-1.6,0.3
		c-0.4,0-0.7,0-1.1-0.1s-0.6-0.2-0.9-0.4c-0.2-0.2-0.4-0.4-0.6-0.7c-0.1-0.3-0.2-0.6-0.2-1.1s0.1-0.9,0.2-1.2
		c0.2-0.3,0.4-0.5,0.6-0.7c0.3-0.2,0.6-0.3,0.9-0.4c0.3-0.1,0.7-0.2,1-0.2c0.4-0.1,0.7-0.1,1.1-0.2c0.3,0,0.6-0.1,0.9-0.2
		s0.5-0.2,0.6-0.3s0.2-0.3,0.2-0.6s-0.1-0.5-0.2-0.7c-0.1-0.2-0.3-0.3-0.4-0.4c-0.2-0.1-0.4-0.2-0.6-0.2s-0.4,0-0.6,0
		c-0.6,0-1.1,0.1-1.4,0.3S45,58.6,45,59.2h-1.4c0-0.5,0.1-0.9,0.3-1.3c0.2-0.4,0.4-0.6,0.8-0.9c0.3-0.2,0.7-0.4,1.1-0.5
		c0.4-0.1,0.9-0.1,1.3-0.1c0.4,0,0.7,0,1.1,0.1c0.4,0.1,0.7,0.2,1,0.3s0.5,0.4,0.7,0.7s0.3,0.7,0.3,1.2V63c0,0.3,0,0.6,0.1,0.7
		c0,0.1,0.2,0.2,0.4,0.2c0.1,0,0.3,0,0.4-0.1C51.1,63.8,51.1,64.9,51.1,64.9z M48.9,60.6c-0.2,0.1-0.4,0.2-0.7,0.3S47.6,61,47.3,61
		c-0.3,0-0.6,0.1-0.9,0.1s-0.6,0.1-0.8,0.2c-0.2,0.1-0.4,0.3-0.6,0.5c-0.2,0.2-0.2,0.5-0.2,0.8c0,0.2,0,0.4,0.1,0.6
		c0.1,0.2,0.2,0.3,0.4,0.4c0.1,0.1,0.3,0.2,0.5,0.2s0.4,0.1,0.6,0.1c0.4,0,0.8-0.1,1.2-0.2c0.3-0.1,0.6-0.3,0.8-0.5s0.4-0.4,0.4-0.6
		c0.1-0.2,0.1-0.4,0.1-0.6C48.9,62,48.9,60.6,48.9,60.6z"/>
	<path class="st11" d="M53.6,56.6v1.7l0,0c0.3-0.7,0.7-1.2,1.2-1.5s1.1-0.5,1.8-0.4v1.4c-0.5,0-1,0.1-1.4,0.2
		c-0.4,0.1-0.7,0.4-0.9,0.7s-0.4,0.6-0.5,1s-0.2,0.9-0.2,1.4v3.7h-1.4v-8.3L53.6,56.6L53.6,56.6z"/>
	<path class="st11" d="M67.1,53.5l4.5,11.4h-1.7l-1.2-3.4h-4.8l-1.3,3.4H61l4.4-11.4H67.1z M68.2,60.2l-1.9-5.3l0,0l-1.9,5.3H68.2z"
		/>
	<path class="st11" d="M73.9,56.6v1.1l0,0c0.2-0.5,0.6-0.8,1.1-1s1-0.3,1.6-0.3s1.2,0.1,1.7,0.4c0.5,0.2,0.9,0.6,1.2,1
		c0.3,0.4,0.6,0.9,0.7,1.4c0.2,0.5,0.2,1.1,0.2,1.7c0,0.6-0.1,1.1-0.2,1.7c-0.2,0.5-0.4,1-0.7,1.4c-0.3,0.4-0.7,0.7-1.2,0.9
		c-0.5,0.2-1,0.3-1.7,0.3c-0.2,0-0.4,0-0.7-0.1c-0.3,0-0.5-0.1-0.7-0.2s-0.5-0.2-0.7-0.4c-0.2-0.2-0.4-0.4-0.6-0.6l0,0v4.3h-1.4
		V56.6H73.9z M78.8,59.6c-0.1-0.4-0.3-0.7-0.5-1s-0.5-0.5-0.8-0.7s-0.7-0.3-1.1-0.3c-0.5,0-0.8,0.1-1.2,0.3
		c-0.3,0.2-0.6,0.4-0.8,0.7c-0.2,0.3-0.3,0.6-0.4,1s-0.1,0.8-0.1,1.1c0,0.4,0,0.8,0.1,1.2s0.2,0.7,0.5,1s0.5,0.5,0.8,0.7
		s0.7,0.3,1.2,0.3s0.9-0.1,1.2-0.3c0.3-0.2,0.6-0.4,0.8-0.7c0.2-0.3,0.3-0.6,0.4-1s0.1-0.8,0.1-1.2C78.9,60.3,78.9,59.9,78.8,59.6z"
		/>
	<path class="st11" d="M83.4,56.6v1.1l0,0c0.2-0.5,0.6-0.8,1.1-1s1-0.3,1.6-0.3s1.2,0.1,1.7,0.4c0.5,0.2,0.9,0.6,1.2,1
		c0.3,0.4,0.6,0.9,0.7,1.4c0.2,0.5,0.2,1.1,0.2,1.7c0,0.6-0.1,1.1-0.2,1.7c-0.2,0.5-0.4,1-0.7,1.4c-0.3,0.4-0.7,0.7-1.2,0.9
		c-0.5,0.2-1,0.3-1.7,0.3c-0.2,0-0.4,0-0.7-0.1c-0.3,0-0.5-0.1-0.7-0.2s-0.5-0.2-0.7-0.4c-0.2-0.2-0.4-0.4-0.6-0.6l0,0v4.3H82V56.6
		H83.4z M88.3,59.6c-0.1-0.4-0.3-0.7-0.5-1s-0.5-0.5-0.8-0.7s-0.7-0.3-1.1-0.3c-0.5,0-0.8,0.1-1.2,0.3c-0.3,0.2-0.6,0.4-0.8,0.7
		c-0.2,0.3-0.3,0.6-0.4,1s-0.1,0.8-0.1,1.1c0,0.4,0,0.8,0.1,1.2s0.2,0.7,0.5,1s0.5,0.5,0.8,0.7s0.7,0.3,1.2,0.3s0.9-0.1,1.2-0.3
		c0.3-0.2,0.6-0.4,0.8-0.7c0.2-0.3,0.3-0.6,0.4-1s0.1-0.8,0.1-1.2C88.4,60.3,88.4,59.9,88.3,59.6z"/>
	<path class="st11" d="M92.9,53.5v11.4h-1.4V53.5H92.9z"/>
	<path class="st11" d="M95.1,55.1v-1.7h1.4v1.7H95.1z M96.5,56.6v8.3h-1.4v-8.3C95.1,56.6,96.5,56.6,96.5,56.6z"/>
	<path class="st11" d="M103.5,58.1c-0.3-0.3-0.8-0.4-1.4-0.4c-0.5,0-0.9,0.1-1.2,0.3c-0.3,0.2-0.6,0.4-0.8,0.7
		c-0.2,0.3-0.3,0.6-0.4,1s-0.1,0.8-0.1,1.2s0,0.8,0.1,1.1c0.1,0.4,0.2,0.7,0.4,1c0.2,0.3,0.4,0.5,0.8,0.7s0.7,0.3,1.1,0.3
		c0.7,0,1.2-0.2,1.6-0.5c0.4-0.4,0.6-0.8,0.7-1.5h1.4c-0.1,1-0.5,1.8-1.1,2.4s-1.4,0.8-2.5,0.8c-0.6,0-1.2-0.1-1.7-0.3
		c-0.5-0.2-0.9-0.5-1.2-0.9c-0.3-0.4-0.6-0.8-0.7-1.3c-0.2-0.5-0.2-1.1-0.2-1.7c0-0.6,0.1-1.2,0.2-1.7c0.2-0.5,0.4-1,0.7-1.4
		c0.3-0.4,0.7-0.7,1.2-0.9s1.1-0.3,1.7-0.3c0.5,0,0.9,0.1,1.3,0.2c0.4,0.1,0.8,0.3,1.1,0.5c0.3,0.2,0.6,0.5,0.8,0.9
		c0.2,0.4,0.3,0.8,0.4,1.3h-1.4C104.1,58.8,103.9,58.4,103.5,58.1z"/>
	<path class="st11" d="M114.5,64.9c-0.2,0.1-0.6,0.2-1,0.2s-0.6-0.1-0.8-0.3s-0.3-0.5-0.3-1c-0.4,0.4-0.8,0.8-1.3,1s-1,0.3-1.6,0.3
		c-0.4,0-0.7,0-1.1-0.1s-0.6-0.2-0.9-0.4c-0.2-0.2-0.4-0.4-0.6-0.7c-0.1-0.3-0.2-0.6-0.2-1.1s0.1-0.9,0.2-1.2
		c0.2-0.3,0.4-0.5,0.6-0.7c0.3-0.2,0.6-0.3,0.9-0.4c0.3-0.1,0.7-0.2,1-0.2c0.4-0.1,0.7-0.1,1.1-0.2c0.3,0,0.6-0.1,0.9-0.2
		s0.5-0.2,0.6-0.3s0.2-0.3,0.2-0.6s-0.1-0.5-0.2-0.7s-0.3-0.3-0.4-0.4c-0.2-0.1-0.4-0.2-0.6-0.2s-0.4,0-0.6,0
		c-0.6,0-1.1,0.1-1.4,0.3s-0.6,0.6-0.6,1.2H107c0-0.5,0.1-0.9,0.3-1.3c0.2-0.4,0.4-0.6,0.8-0.9c0.3-0.2,0.7-0.4,1.1-0.5
		s0.9-0.1,1.3-0.1s0.7,0,1.1,0.1s0.7,0.2,1,0.3s0.5,0.4,0.7,0.7s0.3,0.7,0.3,1.2V63c0,0.3,0,0.6,0.1,0.7c0,0.1,0.2,0.2,0.4,0.2
		c0.1,0,0.3,0,0.4-0.1C114.5,63.8,114.5,64.9,114.5,64.9z M112.3,60.6c-0.2,0.1-0.4,0.2-0.7,0.3S111,61,110.7,61s-0.6,0.1-0.9,0.1
		s-0.6,0.1-0.8,0.2c-0.2,0.1-0.4,0.3-0.6,0.5s-0.2,0.5-0.2,0.8c0,0.2,0,0.4,0.1,0.6c0.1,0.2,0.2,0.3,0.4,0.4
		c0.1,0.1,0.3,0.2,0.5,0.2s0.4,0.1,0.6,0.1c0.4,0,0.8-0.1,1.2-0.2c0.3-0.1,0.6-0.3,0.8-0.5c0.2-0.2,0.4-0.4,0.4-0.6
		c0.1-0.2,0.1-0.4,0.1-0.6V60.6z"/>
	<path class="st11" d="M119.3,56.6v1.2h-1.6V63c0,0.2,0,0.3,0,0.4c0,0.1,0.1,0.2,0.2,0.2c0.1,0.1,0.2,0.1,0.3,0.1c0.1,0,0.3,0,0.5,0
		h0.6v1.2h-1c-0.4,0-0.7,0-0.9-0.1c-0.3,0-0.5-0.1-0.6-0.3s-0.3-0.3-0.3-0.5c-0.1-0.2-0.1-0.5-0.1-0.9v-5.3H115v-1.2h1.4v-2.5h1.4
		v2.5H119.3z"/>
	<path class="st11" d="M120.9,55.1v-1.7h1.4v1.7H120.9z M122.2,56.6v8.3h-1.4v-8.3C120.8,56.6,122.2,56.6,122.2,56.6z"/>
	<path class="st11" d="M124.2,59.1c0.2-0.5,0.4-1,0.8-1.4c0.3-0.4,0.8-0.7,1.3-0.9s1.1-0.3,1.7-0.3c0.7,0,1.2,0.1,1.7,0.3
		s0.9,0.5,1.3,0.9c0.3,0.4,0.6,0.8,0.8,1.4c0.2,0.5,0.3,1.1,0.3,1.7s-0.1,1.2-0.3,1.7s-0.4,1-0.8,1.4c-0.3,0.4-0.8,0.7-1.3,0.9
		c-0.5,0.2-1.1,0.3-1.7,0.3c-0.7,0-1.2-0.1-1.7-0.3c-0.5-0.2-0.9-0.5-1.3-0.9c-0.3-0.4-0.6-0.8-0.8-1.4s-0.3-1.1-0.3-1.7
		S124,59.6,124.2,59.1z M125.5,62.1c0.1,0.4,0.3,0.7,0.6,1c0.2,0.3,0.5,0.5,0.8,0.6s0.6,0.2,1,0.2s0.7-0.1,1-0.2s0.6-0.3,0.8-0.6
		s0.4-0.6,0.6-1c0.1-0.4,0.2-0.8,0.2-1.3s-0.1-0.9-0.2-1.3c-0.1-0.4-0.3-0.7-0.6-1s-0.5-0.5-0.8-0.6s-0.6-0.2-1-0.2
		c-0.4,0-0.7,0.1-1,0.2s-0.6,0.3-0.8,0.6c-0.2,0.3-0.4,0.6-0.6,1s-0.2,0.8-0.2,1.3S125.4,61.7,125.5,62.1z"/>
	<path class="st11" d="M134.8,56.6v1.3l0,0c0.6-1,1.5-1.5,2.7-1.5c0.5,0,1,0.1,1.4,0.2s0.7,0.4,0.9,0.6c0.2,0.3,0.4,0.6,0.5,1
		s0.1,0.8,0.1,1.2v5.4H139v-5.6c0-0.5-0.1-0.9-0.4-1.2c-0.3-0.3-0.7-0.4-1.2-0.4c-0.4,0-0.8,0.1-1.1,0.2s-0.6,0.3-0.8,0.5
		s-0.4,0.5-0.5,0.8s-0.2,0.7-0.2,1v4.7h-1.4v-8.3h1.4V56.6z"/>
	<path class="st11" d="M145.9,54.8v-1.3h9.1v1.3h-3.8v10.1h-1.5V54.8H145.9z"/>
	<path class="st11" d="M159.3,66c-0.2,0.4-0.3,0.7-0.5,1s-0.3,0.5-0.5,0.7s-0.4,0.3-0.6,0.4s-0.5,0.1-0.8,0.1c-0.2,0-0.3,0-0.5,0
		s-0.3-0.1-0.5-0.1v-1.2c0.1,0.1,0.3,0.1,0.4,0.1s0.3,0.1,0.4,0.1c0.3,0,0.5-0.1,0.7-0.2s0.3-0.3,0.4-0.6l0.6-1.4l-3.3-8.2h1.6
		l2.4,6.8l0,0l2.3-6.8h1.5L159.3,66z"/>
	<path class="st11" d="M165.6,56.6v1.1l0,0c0.2-0.5,0.6-0.8,1.1-1s1-0.3,1.6-0.3s1.2,0.1,1.7,0.4c0.5,0.2,0.9,0.6,1.2,1
		s0.6,0.9,0.7,1.4c0.2,0.5,0.2,1.1,0.2,1.7c0,0.6-0.1,1.1-0.2,1.7c-0.2,0.5-0.4,1-0.7,1.4c-0.3,0.4-0.7,0.7-1.2,0.9
		c-0.5,0.2-1,0.3-1.7,0.3c-0.2,0-0.4,0-0.7-0.1c-0.3,0-0.5-0.1-0.8-0.2c-0.2-0.1-0.5-0.2-0.7-0.4c-0.2-0.2-0.4-0.4-0.6-0.6l0,0v4.3
		h-1.4V56.6H165.6z M170.5,59.6c-0.1-0.4-0.3-0.7-0.5-1s-0.5-0.5-0.8-0.7s-0.7-0.3-1.2-0.3s-0.9,0.1-1.2,0.3s-0.6,0.4-0.8,0.7
		s-0.4,0.6-0.4,1c-0.1,0.4-0.1,0.8-0.1,1.1c0,0.4,0,0.8,0.1,1.2s0.2,0.7,0.5,1s0.5,0.5,0.8,0.7s0.7,0.3,1.2,0.3s0.9-0.1,1.2-0.3
		s0.6-0.4,0.8-0.7s0.3-0.6,0.4-1c0.1-0.4,0.1-0.8,0.1-1.2C170.7,60.3,170.6,59.9,170.5,59.6z"/>
	<path class="st11" d="M179.6,64.4c-0.6,0.5-1.4,0.7-2.4,0.7c-0.7,0-1.2-0.1-1.7-0.3c-0.5-0.2-0.9-0.5-1.2-0.9s-0.6-0.8-0.8-1.4
		s-0.3-1.1-0.3-1.7c0-0.6,0.1-1.2,0.3-1.7s0.5-1,0.8-1.4c0.4-0.4,0.8-0.7,1.2-0.9c0.5-0.2,1-0.3,1.6-0.3c0.7,0,1.4,0.2,1.9,0.5
		s0.9,0.7,1.2,1.2s0.5,1,0.6,1.5c0.1,0.6,0.2,1.1,0.1,1.6h-6.3c0,0.4,0,0.7,0.1,1s0.3,0.6,0.5,0.9c0.2,0.3,0.5,0.5,0.8,0.6
		c0.3,0.2,0.7,0.2,1.2,0.2c0.6,0,1.1-0.1,1.4-0.4c0.4-0.3,0.6-0.7,0.7-1.2h1.4C180.7,63.2,180.3,63.9,179.6,64.4z M179.3,59.1
		c-0.1-0.3-0.3-0.5-0.5-0.7s-0.5-0.4-0.7-0.5c-0.3-0.1-0.6-0.2-0.9-0.2c-0.4,0-0.7,0.1-1,0.2c-0.3,0.1-0.5,0.3-0.7,0.5
		s-0.4,0.5-0.5,0.7c-0.1,0.3-0.2,0.6-0.2,0.9h4.8C179.5,59.7,179.4,59.4,179.3,59.1z"/>
</g>
</svg>
